<svg xmlns="http://www.w3.org/2000/svg" xmlns:xlink="http://www.w3.org/1999/xlink" width="500" zoomAndPan="magnify" viewBox="0 0 375 374.999991" height="500" preserveAspectRatio="xMidYMid meet" version="1.0"><defs><g/><clipPath id="5cceb763ff"><path d="M 184 70.476562 L 214 70.476562 L 214 96 L 184 96 Z M 184 70.476562 " clip-rule="nonzero"/></clipPath><clipPath id="fabfd19e6a"><path d="M 135.476562 127 L 239.726562 127 L 239.726562 187.476562 L 135.476562 187.476562 Z M 135.476562 127 " clip-rule="nonzero"/></clipPath><clipPath id="4f9645339c"><path d="M 165 150 L 210 150 L 210 187.476562 L 165 187.476562 Z M 165 150 " clip-rule="nonzero"/></clipPath><clipPath id="2031665890"><path d="M 184 153 L 191 153 L 191 187.476562 L 184 187.476562 Z M 184 153 " clip-rule="nonzero"/></clipPath><clipPath id="36857eb9de"><path d="M 148.847656 269.78125 L 172.941406 269.78125 L 172.941406 293.121094 L 148.847656 293.121094 Z M 148.847656 269.78125 " clip-rule="nonzero"/></clipPath><clipPath id="2aa621e7a3"><path d="M 201.921875 269.78125 L 226.015625 269.78125 L 226.015625 293.121094 L 201.921875 293.121094 Z M 201.921875 269.78125 " clip-rule="nonzero"/></clipPath><clipPath id="f3b4fadb11"><path d="M 201.921875 269.78125 L 226 269.78125 L 226 293.121094 L 201.921875 293.121094 Z M 201.921875 269.78125 " clip-rule="nonzero"/></clipPath><clipPath id="c396a11552"><path d="M 175.683594 279.796875 L 199.777344 279.796875 L 199.777344 303.136719 L 175.683594 303.136719 Z M 175.683594 279.796875 " clip-rule="nonzero"/></clipPath></defs><rect x="-37.5" width="450" fill="#ffffff" y="-37.499999" height="449.999989" fill-opacity="1"/><rect x="-37.5" width="450" fill="#ffffff" y="-37.499999" height="449.999989" fill-opacity="1"/><rect x="-37.5" width="450" fill="#ffffff" y="-37.499999" height="449.999989" fill-opacity="1"/><path fill="#a5d8e0" d="M 199.421875 104.785156 C 200.355469 105.171875 201.265625 105.601562 202.15625 106.078125 C 203.046875 106.550781 203.910156 107.070312 204.75 107.628906 C 205.589844 108.1875 206.402344 108.789062 207.179688 109.425781 C 207.960938 110.066406 208.707031 110.742188 209.421875 111.453125 C 210.136719 112.167969 210.8125 112.914062 211.453125 113.691406 C 212.09375 114.46875 212.695312 115.277344 213.257812 116.117188 C 213.816406 116.953125 214.335938 117.816406 214.8125 118.703125 C 215.289062 119.59375 215.71875 120.503906 216.105469 121.433594 C 216.492188 122.363281 216.832031 123.3125 217.125 124.277344 C 217.417969 125.238281 217.664062 126.214844 217.859375 127.203125 C 218.054688 128.191406 218.203125 129.1875 218.304688 130.1875 C 218.402344 131.191406 218.453125 132.195312 218.453125 133.203125 C 218.453125 134.210938 218.402344 135.214844 218.304688 136.21875 C 218.203125 137.222656 218.054688 138.21875 217.859375 139.203125 C 217.664062 140.191406 217.417969 141.167969 217.125 142.132812 C 216.832031 143.097656 216.492188 144.042969 216.105469 144.976562 C 215.71875 145.90625 215.289062 146.816406 214.8125 147.703125 C 214.335938 148.59375 213.816406 149.457031 213.257812 150.292969 C 212.695312 151.128906 212.09375 151.9375 211.453125 152.71875 C 210.8125 153.496094 210.136719 154.242188 209.421875 154.953125 C 208.707031 155.667969 207.960938 156.34375 207.179688 156.980469 C 206.402344 157.621094 205.589844 158.21875 204.75 158.777344 C 203.910156 159.339844 203.046875 159.855469 202.15625 160.332031 C 201.265625 160.804688 200.355469 161.234375 199.421875 161.621094 C 198.488281 162.007812 197.539062 162.347656 196.574219 162.636719 C 195.605469 162.929688 194.628906 163.175781 193.640625 163.371094 C 192.648438 163.566406 191.652344 163.714844 190.644531 163.816406 C 189.640625 163.914062 188.632812 163.960938 187.625 163.960938 C 186.613281 163.960938 185.609375 163.914062 184.601562 163.816406 C 183.597656 163.714844 182.601562 163.566406 181.609375 163.371094 C 180.621094 163.175781 179.640625 162.929688 178.675781 162.636719 C 177.710938 162.347656 176.761719 162.007812 175.828125 161.621094 C 174.894531 161.234375 173.984375 160.804688 173.09375 160.332031 C 172.203125 159.855469 171.335938 159.339844 170.5 158.777344 C 169.660156 158.21875 168.847656 157.621094 168.066406 156.980469 C 167.289062 156.34375 166.539062 155.667969 165.828125 154.953125 C 165.113281 154.242188 164.433594 153.496094 163.796875 152.71875 C 163.15625 151.9375 162.554688 151.128906 161.992188 150.292969 C 161.433594 149.457031 160.914062 148.59375 160.4375 147.703125 C 159.960938 146.816406 159.53125 145.90625 159.144531 144.976562 C 158.757812 144.042969 158.417969 143.097656 158.125 142.132812 C 157.832031 141.167969 157.585938 140.191406 157.390625 139.203125 C 157.191406 138.21875 157.046875 137.222656 156.945312 136.21875 C 156.847656 135.214844 156.796875 134.210938 156.796875 133.203125 C 156.796875 132.195312 156.847656 131.191406 156.945312 130.1875 C 157.046875 129.1875 157.191406 128.191406 157.390625 127.203125 C 157.585938 126.214844 157.832031 125.238281 158.125 124.277344 C 158.417969 123.3125 158.757812 122.363281 159.144531 121.433594 C 159.53125 120.503906 159.960938 119.59375 160.4375 118.703125 C 160.914062 117.816406 161.433594 116.953125 161.992188 116.117188 C 162.554688 115.277344 163.15625 114.46875 163.796875 113.691406 C 164.433594 112.914062 165.113281 112.167969 165.828125 111.453125 C 166.539062 110.742188 167.289062 110.066406 168.066406 109.425781 C 168.847656 108.789062 169.660156 108.1875 170.5 107.628906 C 171.335938 107.070312 172.203125 106.550781 173.09375 106.078125 C 173.984375 105.601562 174.894531 105.171875 175.828125 104.785156 C 176.761719 104.402344 177.710938 104.0625 178.675781 103.769531 C 179.640625 103.476562 180.621094 103.234375 181.609375 103.035156 C 182.601562 102.839844 183.597656 102.691406 184.601562 102.59375 C 185.609375 102.496094 186.613281 102.445312 187.625 102.445312 C 188.632812 102.445312 189.640625 102.496094 190.644531 102.59375 C 191.652344 102.691406 192.648438 102.839844 193.640625 103.035156 C 194.628906 103.234375 195.605469 103.476562 196.574219 103.769531 C 197.539062 104.0625 198.488281 104.402344 199.421875 104.785156 Z M 199.421875 104.785156 " fill-opacity="1" fill-rule="nonzero"/><path fill="#006079" d="M 187.625 105.214844 C 203.117188 105.214844 215.679688 117.746094 215.679688 133.207031 C 215.679688 148.667969 203.117188 161.199219 187.625 161.199219 C 172.128906 161.199219 159.566406 148.667969 159.566406 133.207031 C 159.566406 117.746094 172.128906 105.214844 187.625 105.214844 M 187.625 99.683594 C 169.097656 99.683594 154.023438 114.722656 154.023438 133.207031 C 154.023438 151.691406 169.097656 166.730469 187.625 166.730469 C 206.152344 166.730469 221.222656 151.691406 221.222656 133.207031 C 221.222656 114.722656 206.148438 99.683594 187.625 99.683594 Z M 187.625 99.683594 " fill-opacity="1" fill-rule="nonzero"/><path fill="#47bcca" d="M 151.652344 170.039062 C 150.121094 170.039062 148.878906 168.800781 148.878906 167.273438 L 148.878906 118.09375 C 148.878906 116.566406 150.121094 115.328125 151.652344 115.328125 L 223.597656 115.328125 C 225.125 115.328125 226.367188 116.566406 226.367188 118.09375 L 226.367188 167.273438 C 226.367188 168.800781 225.125 170.039062 223.597656 170.039062 Z M 151.652344 170.039062 " fill-opacity="1" fill-rule="nonzero"/><path fill="#006079" d="M 223.59375 118.09375 L 223.59375 167.273438 L 151.652344 167.273438 L 151.652344 118.09375 L 223.59375 118.09375 M 223.59375 112.5625 L 151.652344 112.5625 C 148.589844 112.5625 146.109375 115.039062 146.109375 118.09375 L 146.109375 167.273438 C 146.109375 170.328125 148.589844 172.804688 151.652344 172.804688 L 223.597656 172.804688 C 226.65625 172.804688 229.140625 170.328125 229.140625 167.273438 L 229.140625 118.09375 C 229.136719 115.039062 226.65625 112.5625 223.59375 112.5625 Z M 223.59375 112.5625 " fill-opacity="1" fill-rule="nonzero"/><path fill="#e4f3f6" d="M 151.652344 118.09375 L 159.566406 118.09375 L 159.566406 167.273438 L 151.652344 167.273438 Z M 151.652344 118.09375 " fill-opacity="1" fill-rule="nonzero"/><path fill="#a5d8e0" d="M 159.566406 118.09375 L 215.304688 118.09375 L 215.304688 167.273438 L 159.566406 167.273438 Z M 159.566406 118.09375 " fill-opacity="1" fill-rule="nonzero"/><path fill="#006079" d="M 187.625 103.523438 C 186.09375 103.523438 184.851562 102.285156 184.851562 100.757812 L 184.851562 85.492188 C 184.851562 83.964844 186.09375 82.730469 187.625 82.730469 C 189.15625 82.730469 190.394531 83.964844 190.394531 85.492188 L 190.394531 100.757812 C 190.394531 102.285156 189.15625 103.523438 187.625 103.523438 Z M 187.625 103.523438 " fill-opacity="1" fill-rule="nonzero"/><path fill="#a5d8e0" d="M 190.175781 92.523438 C 189.621094 92.523438 189.074219 92.359375 188.605469 92.035156 C 187.851562 91.519531 187.40625 90.667969 187.40625 89.757812 L 187.40625 76.023438 C 187.40625 75.113281 187.855469 74.261719 188.605469 73.742188 C 189.074219 73.421875 189.621094 73.257812 190.175781 73.257812 C 190.511719 73.257812 190.84375 73.316406 191.164062 73.4375 L 209.199219 80.304688 C 210.273438 80.714844 210.980469 81.742188 210.980469 82.890625 C 210.980469 84.035156 210.273438 85.0625 209.199219 85.472656 L 191.164062 92.339844 C 190.84375 92.460938 190.511719 92.523438 190.175781 92.523438 Z M 190.175781 92.523438 " fill-opacity="1" fill-rule="nonzero"/><g clip-path="url(#5cceb763ff)"><path fill="#006079" d="M 190.175781 76.023438 L 208.210938 82.890625 L 190.175781 89.757812 L 190.175781 76.023438 M 190.175781 70.492188 C 189.070312 70.492188 187.96875 70.820312 187.03125 71.464844 C 185.53125 72.5 184.632812 74.203125 184.632812 76.023438 L 184.632812 89.757812 C 184.632812 91.578125 185.53125 93.28125 187.03125 94.3125 C 187.96875 94.957031 189.070312 95.289062 190.175781 95.289062 C 190.84375 95.289062 191.511719 95.167969 192.152344 94.925781 L 210.1875 88.058594 C 212.335938 87.238281 213.753906 85.183594 213.753906 82.890625 C 213.753906 80.597656 212.335938 78.539062 210.1875 77.722656 L 192.152344 70.855469 C 191.511719 70.609375 190.84375 70.492188 190.175781 70.492188 Z M 190.175781 70.492188 " fill-opacity="1" fill-rule="nonzero"/></g><path fill="#a5d8e0" d="M 141.164062 184.707031 C 139.632812 184.707031 138.390625 183.46875 138.390625 181.941406 L 138.390625 132.761719 C 138.390625 131.234375 139.632812 129.996094 141.164062 129.996094 L 234.085938 129.996094 C 235.617188 129.996094 236.855469 131.234375 236.855469 132.761719 L 236.855469 181.941406 C 236.855469 183.46875 235.617188 184.707031 234.085938 184.707031 Z M 141.164062 184.707031 " fill-opacity="1" fill-rule="nonzero"/><g clip-path="url(#fabfd19e6a)"><path fill="#006079" d="M 234.085938 132.761719 L 234.085938 181.941406 L 141.164062 181.941406 L 141.164062 132.761719 L 234.085938 132.761719 M 234.085938 127.230469 L 141.164062 127.230469 C 138.101562 127.230469 135.621094 129.707031 135.621094 132.761719 L 135.621094 181.941406 C 135.621094 184.996094 138.101562 187.472656 141.164062 187.472656 L 234.085938 187.472656 C 237.144531 187.472656 239.628906 184.996094 239.628906 181.941406 L 239.628906 132.761719 C 239.628906 129.707031 237.144531 127.230469 234.085938 127.230469 Z M 234.085938 127.230469 " fill-opacity="1" fill-rule="nonzero"/></g><path fill="#e4f3f6" d="M 141.164062 132.761719 L 159.941406 132.761719 L 159.941406 181.941406 L 141.164062 181.941406 Z M 141.164062 132.761719 " fill-opacity="1" fill-rule="nonzero"/><path fill="#47bcca" d="M 215.304688 132.761719 L 234.085938 132.761719 L 234.085938 181.941406 L 215.304688 181.941406 Z M 215.304688 132.761719 " fill-opacity="1" fill-rule="nonzero"/><path fill="#006079" d="M 155.808594 142.929688 L 147.496094 142.929688 C 145.964844 142.929688 144.722656 141.691406 144.722656 140.164062 C 144.722656 138.636719 145.964844 137.398438 147.496094 137.398438 L 155.808594 137.398438 C 157.339844 137.398438 158.582031 138.636719 158.582031 140.164062 C 158.582031 141.691406 157.339844 142.929688 155.808594 142.929688 Z M 155.808594 142.929688 " fill-opacity="1" fill-rule="nonzero"/><path fill="#006079" d="M 173.535156 142.929688 L 165.21875 142.929688 C 163.691406 142.929688 162.449219 141.691406 162.449219 140.164062 C 162.449219 138.636719 163.691406 137.398438 165.21875 137.398438 L 173.535156 137.398438 C 175.066406 137.398438 176.304688 138.636719 176.304688 140.164062 C 176.304688 141.691406 175.066406 142.929688 173.535156 142.929688 Z M 173.535156 142.929688 " fill-opacity="1" fill-rule="nonzero"/><path fill="#006079" d="M 210.027344 142.929688 L 201.710938 142.929688 C 200.183594 142.929688 198.941406 141.691406 198.941406 140.164062 C 198.941406 138.636719 200.183594 137.398438 201.710938 137.398438 L 210.027344 137.398438 C 211.558594 137.398438 212.800781 138.636719 212.800781 140.164062 C 212.800781 141.691406 211.558594 142.929688 210.027344 142.929688 Z M 210.027344 142.929688 " fill-opacity="1" fill-rule="nonzero"/><path fill="#006079" d="M 227.753906 142.929688 L 219.4375 142.929688 C 217.90625 142.929688 216.667969 141.691406 216.667969 140.164062 C 216.667969 138.636719 217.90625 137.398438 219.4375 137.398438 L 227.753906 137.398438 C 229.285156 137.398438 230.523438 138.636719 230.523438 140.164062 C 230.523438 141.691406 229.285156 142.929688 227.753906 142.929688 Z M 227.753906 142.929688 " fill-opacity="1" fill-rule="nonzero"/><path fill="#ffffff" d="M 171.457031 184.707031 C 169.925781 184.707031 168.683594 183.46875 168.683594 181.941406 L 168.683594 161.1875 C 168.683594 159.992188 169.453125 158.929688 170.59375 158.558594 L 186.761719 153.277344 C 187.042969 153.1875 187.332031 153.140625 187.625 153.140625 C 187.914062 153.140625 188.207031 153.1875 188.484375 153.277344 L 204.652344 158.558594 C 205.792969 158.929688 206.5625 159.992188 206.5625 161.1875 L 206.5625 181.941406 C 206.5625 183.46875 205.320312 184.707031 203.792969 184.707031 Z M 171.457031 184.707031 " fill-opacity="1" fill-rule="nonzero"/><g clip-path="url(#4f9645339c)"><path fill="#006079" d="M 187.625 155.90625 L 203.792969 161.1875 L 203.792969 181.941406 L 171.457031 181.941406 L 171.457031 161.1875 L 187.625 155.90625 M 187.625 150.375 C 187.042969 150.375 186.460938 150.46875 185.898438 150.648438 L 169.730469 155.929688 C 167.453125 156.675781 165.914062 158.792969 165.914062 161.1875 L 165.914062 181.941406 C 165.914062 184.996094 168.394531 187.472656 171.457031 187.472656 L 203.792969 187.472656 C 206.851562 187.472656 209.335938 184.996094 209.335938 181.941406 L 209.335938 161.1875 C 209.335938 158.792969 207.792969 156.671875 205.515625 155.929688 L 189.347656 150.648438 C 188.789062 150.46875 188.207031 150.375 187.625 150.375 Z M 187.625 150.375 " fill-opacity="1" fill-rule="nonzero"/></g><path fill="#a5d8e0" d="M 171.457031 175.5 L 203.792969 175.5 L 203.792969 181.941406 L 171.457031 181.941406 Z M 171.457031 175.5 " fill-opacity="1" fill-rule="nonzero"/><g clip-path="url(#2031665890)"><path fill="#006079" d="M 187.625 187.144531 C 186.09375 187.144531 184.851562 185.90625 184.851562 184.378906 L 184.851562 155.90625 C 184.851562 154.378906 186.09375 153.140625 187.625 153.140625 C 189.15625 153.140625 190.394531 154.378906 190.394531 155.90625 L 190.394531 184.378906 C 190.394531 185.90625 189.15625 187.144531 187.625 187.144531 Z M 187.625 187.144531 " fill-opacity="1" fill-rule="nonzero"/></g><path fill="#006079" d="M 182.917969 126.125 L 174.601562 126.125 C 173.074219 126.125 171.832031 124.886719 171.832031 123.359375 C 171.832031 121.832031 173.074219 120.59375 174.601562 120.59375 L 182.917969 120.59375 C 184.449219 120.59375 185.691406 121.832031 185.691406 123.359375 C 185.691406 124.886719 184.449219 126.125 182.917969 126.125 Z M 182.917969 126.125 " fill-opacity="1" fill-rule="nonzero"/><path fill="#006079" d="M 200.644531 126.125 L 192.328125 126.125 C 190.796875 126.125 189.558594 124.886719 189.558594 123.359375 C 189.558594 121.832031 190.796875 120.59375 192.328125 120.59375 L 200.644531 120.59375 C 202.175781 120.59375 203.414062 121.832031 203.414062 123.359375 C 203.414062 124.886719 202.175781 126.125 200.644531 126.125 Z M 200.644531 126.125 " fill-opacity="1" fill-rule="nonzero"/><g clip-path="url(#36857eb9de)"><path fill="#006079" d="M 160.925781 269.851562 L 164.632812 277.511719 L 172.929688 278.738281 L 166.925781 284.707031 L 168.347656 293.121094 L 160.925781 289.148438 L 153.5 293.121094 L 154.917969 284.707031 L 148.917969 278.738281 L 157.210938 277.511719 Z M 160.925781 269.851562 " fill-opacity="1" fill-rule="nonzero"/><path fill="#006079" d="M 160.867188 269.78125 L 164.582031 277.4375 L 172.878906 278.667969 L 166.871094 284.632812 L 168.289062 293.050781 L 160.867188 289.074219 L 153.445312 293.050781 L 154.863281 284.632812 L 148.859375 278.667969 L 157.15625 277.4375 Z M 160.867188 269.78125 " fill-opacity="1" fill-rule="nonzero"/><path fill="#006079" d="M 160.867188 269.78125 L 164.582031 277.4375 L 172.878906 278.667969 L 166.871094 284.632812 L 168.289062 293.050781 L 160.867188 289.074219 L 153.445312 293.050781 L 154.863281 284.632812 L 148.859375 278.667969 L 157.15625 277.4375 Z M 160.867188 269.78125 " fill-opacity="1" fill-rule="nonzero"/><path fill="#006079" d="M 160.867188 269.78125 L 164.582031 277.4375 L 172.878906 278.667969 L 166.871094 284.632812 L 168.289062 293.050781 L 160.867188 289.074219 L 153.445312 293.050781 L 154.863281 284.632812 L 148.859375 278.667969 L 157.15625 277.4375 Z M 160.867188 269.78125 " fill-opacity="1" fill-rule="nonzero"/></g><g clip-path="url(#2aa621e7a3)"><path fill="#006079" d="M 214 269.851562 L 217.707031 277.511719 L 226.003906 278.738281 L 220 284.707031 L 221.421875 293.121094 L 214 289.148438 L 206.574219 293.121094 L 207.992188 284.707031 L 201.992188 278.738281 L 210.289062 277.511719 Z M 214 269.851562 " fill-opacity="1" fill-rule="nonzero"/></g><g clip-path="url(#f3b4fadb11)"><path fill="#006079" d="M 213.941406 269.78125 L 217.65625 277.4375 L 225.953125 278.667969 L 219.949219 284.632812 L 221.363281 293.050781 L 213.941406 289.074219 L 206.519531 293.050781 L 207.9375 284.632812 L 201.933594 278.667969 L 210.230469 277.4375 Z M 213.941406 269.78125 " fill-opacity="1" fill-rule="nonzero"/><path fill="#006079" d="M 213.941406 269.78125 L 217.65625 277.4375 L 225.953125 278.667969 L 219.949219 284.632812 L 221.363281 293.050781 L 213.941406 289.074219 L 206.519531 293.050781 L 207.9375 284.632812 L 201.933594 278.667969 L 210.230469 277.4375 Z M 213.941406 269.78125 " fill-opacity="1" fill-rule="nonzero"/><path fill="#006079" d="M 213.941406 269.78125 L 217.65625 277.4375 L 225.953125 278.667969 L 219.949219 284.632812 L 221.363281 293.050781 L 213.941406 289.074219 L 206.519531 293.050781 L 207.9375 284.632812 L 201.933594 278.667969 L 210.230469 277.4375 Z M 213.941406 269.78125 " fill-opacity="1" fill-rule="nonzero"/></g><g clip-path="url(#c396a11552)"><path fill="#006079" d="M 187.761719 279.867188 L 191.46875 287.527344 L 199.765625 288.753906 L 193.761719 294.71875 L 195.183594 303.136719 L 187.761719 299.164062 L 180.335938 303.136719 L 181.753906 294.71875 L 175.753906 288.753906 L 184.046875 287.527344 Z M 187.761719 279.867188 " fill-opacity="1" fill-rule="nonzero"/><path fill="#006079" d="M 187.703125 279.796875 L 191.417969 287.453125 L 199.710938 288.679688 L 193.707031 294.648438 L 195.125 303.0625 L 187.703125 299.089844 L 180.28125 303.0625 L 181.699219 294.648438 L 175.695312 288.679688 L 183.992188 287.453125 Z M 187.703125 279.796875 " fill-opacity="1" fill-rule="nonzero"/><path fill="#006079" d="M 187.703125 279.796875 L 191.417969 287.453125 L 199.710938 288.679688 L 193.707031 294.648438 L 195.125 303.0625 L 187.703125 299.089844 L 180.28125 303.0625 L 181.699219 294.648438 L 175.695312 288.679688 L 183.992188 287.453125 Z M 187.703125 279.796875 " fill-opacity="1" fill-rule="nonzero"/><path fill="#006079" d="M 187.703125 279.796875 L 191.417969 287.453125 L 199.710938 288.679688 L 193.707031 294.648438 L 195.125 303.0625 L 187.703125 299.089844 L 180.28125 303.0625 L 181.699219 294.648438 L 175.695312 288.679688 L 183.992188 287.453125 Z M 187.703125 279.796875 " fill-opacity="1" fill-rule="nonzero"/></g><g fill="#47bcca" fill-opacity="1"><g transform="translate(19.837816, 233.735921)"><g><path d="M 13.550781 -20.113281 L 8.027344 -20.113281 L 8.027344 -33.835938 C 8.027344 -34.269531 7.769531 -34.527344 7.335938 -34.527344 L 2.890625 -34.527344 C 2.375 -34.527344 2.15625 -34.269531 2.15625 -33.835938 L 2.15625 -0.691406 C 2.15625 -0.257812 2.375 0 2.890625 0 L 7.335938 0 C 7.769531 0 8.027344 -0.257812 8.027344 -0.691406 L 8.027344 -14.414062 L 13.550781 -14.414062 L 13.550781 -0.691406 C 13.550781 -0.257812 13.8125 0 14.242188 0 L 18.6875 0 C 19.207031 0 19.421875 -0.257812 19.421875 -0.691406 L 19.421875 -33.835938 C 19.421875 -34.269531 19.207031 -34.527344 18.6875 -34.527344 L 14.242188 -34.527344 C 13.8125 -34.527344 13.550781 -34.269531 13.550781 -33.835938 Z M 13.550781 -20.113281 "/></g></g></g><g fill="#47bcca" fill-opacity="1"><g transform="translate(43.142343, 233.735921)"><g><path d="M 22.960938 0 C 23.480469 0 23.652344 -0.257812 23.566406 -0.734375 L 16.402344 -33.921875 C 16.3125 -34.355469 16.054688 -34.527344 15.667969 -34.527344 L 9.667969 -34.527344 C 9.28125 -34.527344 9.019531 -34.355469 8.933594 -33.921875 L 1.769531 -0.734375 C 1.640625 -0.257812 1.855469 0 2.332031 0 L 6.949219 0 C 7.335938 0 7.554688 -0.214844 7.640625 -0.605469 L 8.804688 -6.90625 L 16.488281 -6.90625 L 17.695312 -0.605469 C 17.78125 -0.214844 17.996094 0 18.386719 0 Z M 15.40625 -11.914062 L 9.882812 -11.914062 L 12.644531 -26.976562 Z M 15.40625 -11.914062 "/></g></g></g><g fill="#47bcca" fill-opacity="1"><g transform="translate(70.1583, 233.735921)"><g><path d="M 19.898438 -28.3125 C 19.898438 -32.371094 17.738281 -34.527344 13.683594 -34.527344 L 2.847656 -34.527344 C 2.417969 -34.527344 2.15625 -34.269531 2.15625 -33.835938 L 2.15625 -0.691406 C 2.15625 -0.257812 2.417969 0 2.847656 0 L 7.335938 0 C 7.769531 0 8.027344 -0.257812 8.027344 -0.691406 L 8.027344 -11.566406 L 11.003906 -11.566406 L 13.898438 -0.605469 C 13.984375 -0.214844 14.199219 0 14.632812 0 L 19.121094 0 C 19.59375 0 19.855469 -0.257812 19.722656 -0.777344 L 16.746094 -12.085938 C 18.816406 -12.992188 19.898438 -14.890625 19.898438 -17.78125 Z M 8.027344 -17.265625 L 8.027344 -28.832031 L 12.300781 -28.832031 C 13.421875 -28.832031 14.027344 -28.226562 14.027344 -27.105469 L 14.027344 -18.992188 C 14.027344 -17.867188 13.421875 -17.265625 12.300781 -17.265625 Z M 8.027344 -17.265625 "/></g></g></g><g fill="#47bcca" fill-opacity="1"><g transform="translate(93.937539, 233.735921)"><g><path d="M 17.222656 -34.527344 C 16.703125 -34.527344 16.402344 -34.269531 16.269531 -33.75 L 11.695312 -10.617188 L 7.164062 -33.75 C 7.035156 -34.269531 6.734375 -34.527344 6.214844 -34.527344 L 2.113281 -34.527344 C 1.46875 -34.527344 1.207031 -34.183594 1.339844 -33.578125 L 8.589844 -0.777344 C 8.71875 -0.257812 9.019531 0 9.539062 0 L 13.855469 0 C 14.371094 0 14.675781 -0.257812 14.804688 -0.777344 L 22.097656 -33.578125 C 22.226562 -34.183594 21.96875 -34.527344 21.320312 -34.527344 Z M 17.222656 -34.527344 "/></g></g></g><g fill="#47bcca" fill-opacity="1"><g transform="translate(119.097784, 233.735921)"><g><path d="M 2.847656 -34.527344 C 2.375 -34.527344 2.15625 -34.269531 2.15625 -33.835938 L 2.15625 -0.691406 C 2.15625 -0.257812 2.375 0 2.847656 0 L 7.335938 0 C 7.769531 0 8.027344 -0.257812 8.027344 -0.691406 L 8.027344 -33.835938 C 8.027344 -34.269531 7.769531 -34.527344 7.335938 -34.527344 Z M 2.847656 -34.527344 "/></g></g></g><g fill="#47bcca" fill-opacity="1"><g transform="translate(131.009096, 233.735921)"><g><path d="M 15.40625 -34.527344 C 14.933594 -34.527344 14.71875 -34.269531 14.71875 -33.835938 L 14.71875 -15.625 L 14.457031 -15.625 L 7.898438 -33.96875 C 7.769531 -34.355469 7.511719 -34.527344 7.121094 -34.527344 L 2.847656 -34.527344 C 2.417969 -34.527344 2.15625 -34.269531 2.15625 -33.835938 L 2.15625 -0.691406 C 2.15625 -0.257812 2.417969 0 2.847656 0 L 7.335938 0 C 7.8125 0 8.027344 -0.257812 8.027344 -0.691406 L 8.027344 -18.992188 L 8.242188 -18.992188 L 14.847656 -0.5625 C 14.976562 -0.171875 15.234375 0 15.625 0 L 19.898438 0 C 20.328125 0 20.585938 -0.257812 20.585938 -0.691406 L 20.585938 -33.835938 C 20.585938 -34.269531 20.328125 -34.527344 19.898438 -34.527344 Z M 15.40625 -34.527344 "/></g></g></g><g fill="#47bcca" fill-opacity="1"><g transform="translate(155.478846, 233.735921)"><g><path d="M 22.960938 0 C 23.480469 0 23.652344 -0.257812 23.566406 -0.734375 L 16.402344 -33.921875 C 16.3125 -34.355469 16.054688 -34.527344 15.667969 -34.527344 L 9.667969 -34.527344 C 9.28125 -34.527344 9.019531 -34.355469 8.933594 -33.921875 L 1.769531 -0.734375 C 1.640625 -0.257812 1.855469 0 2.332031 0 L 6.949219 0 C 7.335938 0 7.554688 -0.214844 7.640625 -0.605469 L 8.804688 -6.90625 L 16.488281 -6.90625 L 17.695312 -0.605469 C 17.78125 -0.214844 17.996094 0 18.386719 0 Z M 15.40625 -11.914062 L 9.882812 -11.914062 L 12.644531 -26.976562 Z M 15.40625 -11.914062 "/></g></g></g><g fill="#47bcca" fill-opacity="1"><g transform="translate(182.494805, 233.735921)"><g><path d="M 1.984375 -34.527344 C 1.554688 -34.527344 1.292969 -34.269531 1.292969 -33.835938 L 1.292969 -29.519531 C 1.292969 -29.089844 1.554688 -28.832031 1.984375 -28.832031 L 6.992188 -28.832031 L 6.992188 -0.691406 C 6.992188 -0.214844 7.25 0 7.683594 0 L 12.171875 0 C 12.644531 0 12.863281 -0.214844 12.863281 -0.691406 L 12.863281 -28.832031 L 17.867188 -28.832031 C 18.34375 -28.832031 18.558594 -29.089844 18.558594 -29.519531 L 18.558594 -33.835938 C 18.558594 -34.269531 18.34375 -34.527344 17.867188 -34.527344 Z M 1.984375 -34.527344 "/></g></g></g><g fill="#47bcca" fill-opacity="1"><g transform="translate(204.073082, 233.735921)"><g><path d="M 2.15625 -6.214844 C 2.15625 -2.15625 4.316406 0 8.371094 0 L 13.207031 0 C 17.265625 0 19.421875 -2.15625 19.421875 -6.214844 L 19.421875 -28.3125 C 19.421875 -32.371094 17.265625 -34.527344 13.207031 -34.527344 L 8.371094 -34.527344 C 4.316406 -34.527344 2.15625 -32.371094 2.15625 -28.3125 Z M 9.625 -5.566406 C 8.503906 -5.566406 7.898438 -6.128906 7.898438 -7.292969 L 7.898438 -27.234375 C 7.898438 -28.355469 8.503906 -28.960938 9.625 -28.960938 L 12.128906 -28.960938 C 13.25 -28.960938 13.855469 -28.355469 13.855469 -27.234375 L 13.855469 -7.292969 C 13.855469 -6.128906 13.25 -5.566406 12.128906 -5.566406 Z M 9.625 -5.566406 "/></g></g></g><g fill="#47bcca" fill-opacity="1"><g transform="translate(227.377602, 233.735921)"><g><path d="M 19.898438 -28.3125 C 19.898438 -32.371094 17.738281 -34.527344 13.683594 -34.527344 L 2.847656 -34.527344 C 2.417969 -34.527344 2.15625 -34.269531 2.15625 -33.835938 L 2.15625 -0.691406 C 2.15625 -0.257812 2.417969 0 2.847656 0 L 7.335938 0 C 7.769531 0 8.027344 -0.257812 8.027344 -0.691406 L 8.027344 -11.566406 L 11.003906 -11.566406 L 13.898438 -0.605469 C 13.984375 -0.214844 14.199219 0 14.632812 0 L 19.121094 0 C 19.59375 0 19.855469 -0.257812 19.722656 -0.777344 L 16.746094 -12.085938 C 18.816406 -12.992188 19.898438 -14.890625 19.898438 -17.78125 Z M 8.027344 -17.265625 L 8.027344 -28.832031 L 12.300781 -28.832031 C 13.421875 -28.832031 14.027344 -28.226562 14.027344 -27.105469 L 14.027344 -18.992188 C 14.027344 -17.867188 13.421875 -17.265625 12.300781 -17.265625 Z M 8.027344 -17.265625 "/></g></g></g><g fill="#47bcca" fill-opacity="1"><g transform="translate(251.156847, 233.735921)"><g/></g></g><g fill="#47bcca" fill-opacity="1"><g transform="translate(263.672344, 233.735921)"><g><path d="M 11.957031 -13.335938 L 6.734375 -0.992188 C 6.472656 -0.386719 6.734375 0 7.378906 0 L 11.867188 0 C 12.386719 0 12.6875 -0.214844 12.863281 -0.648438 L 18.992188 -15.234375 C 19.292969 -16.011719 19.421875 -16.574219 19.421875 -17.394531 L 19.421875 -28.484375 C 19.421875 -32.414062 17.308594 -34.527344 13.378906 -34.527344 L 8.199219 -34.527344 C 4.273438 -34.527344 2.15625 -32.414062 2.15625 -28.484375 L 2.15625 -19.378906 C 2.15625 -15.453125 4.273438 -13.335938 8.199219 -13.335938 Z M 12 -28.832031 C 13.121094 -28.832031 13.726562 -28.226562 13.726562 -27.105469 L 13.726562 -20.761719 C 13.726562 -19.636719 13.121094 -19.035156 12 -19.035156 L 9.582031 -19.035156 C 8.460938 -19.035156 7.855469 -19.636719 7.855469 -20.761719 L 7.855469 -27.105469 C 7.855469 -28.226562 8.460938 -28.832031 9.582031 -28.832031 Z M 12 -28.832031 "/></g></g></g><g fill="#47bcca" fill-opacity="1"><g transform="translate(286.976865, 233.735921)"><g><path d="M 2.15625 -6.214844 C 2.15625 -2.15625 4.316406 0 8.371094 0 L 13.207031 0 C 17.265625 0 19.421875 -2.15625 19.421875 -6.214844 L 19.421875 -28.3125 C 19.421875 -32.371094 17.265625 -34.527344 13.207031 -34.527344 L 8.371094 -34.527344 C 4.316406 -34.527344 2.15625 -32.371094 2.15625 -28.3125 Z M 9.625 -5.566406 C 8.503906 -5.566406 7.898438 -6.128906 7.898438 -7.292969 L 7.898438 -27.234375 C 7.898438 -28.355469 8.503906 -28.960938 9.625 -28.960938 L 12.128906 -28.960938 C 13.25 -28.960938 13.855469 -28.355469 13.855469 -27.234375 L 13.855469 -7.292969 C 13.855469 -6.128906 13.25 -5.566406 12.128906 -5.566406 Z M 9.625 -5.566406 "/></g></g></g><g fill="#47bcca" fill-opacity="1"><g transform="translate(310.281385, 233.735921)"><g><path d="M 2.15625 -6.214844 C 2.15625 -2.15625 4.316406 0 8.371094 0 L 13.207031 0 C 17.265625 0 19.421875 -2.15625 19.421875 -6.214844 L 19.421875 -28.3125 C 19.421875 -32.371094 17.265625 -34.527344 13.207031 -34.527344 L 8.371094 -34.527344 C 4.316406 -34.527344 2.15625 -32.371094 2.15625 -28.3125 Z M 9.625 -5.566406 C 8.503906 -5.566406 7.898438 -6.128906 7.898438 -7.292969 L 7.898438 -27.234375 C 7.898438 -28.355469 8.503906 -28.960938 9.625 -28.960938 L 12.128906 -28.960938 C 13.25 -28.960938 13.855469 -28.355469 13.855469 -27.234375 L 13.855469 -7.292969 C 13.855469 -6.128906 13.25 -5.566406 12.128906 -5.566406 Z M 9.625 -5.566406 "/></g></g></g><g fill="#47bcca" fill-opacity="1"><g transform="translate(333.585906, 233.735921)"><g><path d="M 2.15625 -6.214844 C 2.15625 -2.15625 4.316406 0 8.371094 0 L 13.207031 0 C 17.265625 0 19.421875 -2.15625 19.421875 -6.214844 L 19.421875 -28.3125 C 19.421875 -32.371094 17.265625 -34.527344 13.207031 -34.527344 L 8.371094 -34.527344 C 4.316406 -34.527344 2.15625 -32.371094 2.15625 -28.3125 Z M 9.625 -5.566406 C 8.503906 -5.566406 7.898438 -6.128906 7.898438 -7.292969 L 7.898438 -27.234375 C 7.898438 -28.355469 8.503906 -28.960938 9.625 -28.960938 L 12.128906 -28.960938 C 13.25 -28.960938 13.855469 -28.355469 13.855469 -27.234375 L 13.855469 -7.292969 C 13.855469 -6.128906 13.25 -5.566406 12.128906 -5.566406 Z M 9.625 -5.566406 "/></g></g></g><g fill="#47bcca" fill-opacity="1"><g transform="translate(130.013727, 257.460365)"><g><path d="M 1.765625 -4.21875 C 1.765625 -3.707031 1.828125 -3.242188 1.953125 -2.828125 C 2.085938 -2.421875 2.273438 -2.066406 2.515625 -1.765625 C 2.753906 -1.472656 3.035156 -1.25 3.359375 -1.09375 C 3.691406 -0.9375 4.050781 -0.859375 4.4375 -0.859375 C 4.832031 -0.859375 5.171875 -0.898438 5.453125 -0.984375 C 5.742188 -1.078125 6.023438 -1.207031 6.296875 -1.375 L 6.640625 -0.421875 C 6.347656 -0.265625 6.007812 -0.128906 5.625 -0.015625 C 5.25 0.0859375 4.8125 0.140625 4.3125 0.140625 C 3.757812 0.140625 3.253906 0.0390625 2.796875 -0.15625 C 2.347656 -0.351562 1.957031 -0.640625 1.625 -1.015625 C 1.300781 -1.390625 1.046875 -1.84375 0.859375 -2.375 C 0.679688 -2.90625 0.59375 -3.5 0.59375 -4.15625 C 0.59375 -4.800781 0.679688 -5.390625 0.859375 -5.921875 C 1.046875 -6.460938 1.304688 -6.925781 1.640625 -7.3125 C 1.972656 -7.695312 2.378906 -8 2.859375 -8.21875 C 3.335938 -8.4375 3.867188 -8.546875 4.453125 -8.546875 C 4.859375 -8.546875 5.222656 -8.503906 5.546875 -8.421875 C 5.867188 -8.347656 6.175781 -8.242188 6.46875 -8.109375 L 6.125 -7.15625 C 5.875 -7.269531 5.617188 -7.363281 5.359375 -7.4375 C 5.097656 -7.507812 4.789062 -7.546875 4.4375 -7.546875 C 4.050781 -7.546875 3.691406 -7.472656 3.359375 -7.328125 C 3.035156 -7.179688 2.753906 -6.960938 2.515625 -6.671875 C 2.273438 -6.378906 2.085938 -6.023438 1.953125 -5.609375 C 1.828125 -5.203125 1.765625 -4.738281 1.765625 -4.21875 Z M 1.765625 -4.21875 "/></g></g></g><g fill="#47bcca" fill-opacity="1"><g transform="translate(139.265736, 257.460365)"><g><path d="M 0.9375 -1.671875 C 1.226562 -1.429688 1.550781 -1.234375 1.90625 -1.078125 C 2.269531 -0.929688 2.691406 -0.859375 3.171875 -0.859375 C 3.742188 -0.859375 4.195312 -0.976562 4.53125 -1.21875 C 4.875 -1.457031 5.046875 -1.78125 5.046875 -2.1875 C 5.046875 -2.351562 5.019531 -2.507812 4.96875 -2.65625 C 4.914062 -2.800781 4.816406 -2.9375 4.671875 -3.0625 C 4.535156 -3.195312 4.34375 -3.328125 4.09375 -3.453125 C 3.84375 -3.585938 3.519531 -3.734375 3.125 -3.890625 C 2.6875 -4.054688 2.316406 -4.21875 2.015625 -4.375 C 1.722656 -4.539062 1.484375 -4.722656 1.296875 -4.921875 C 1.109375 -5.117188 0.972656 -5.332031 0.890625 -5.5625 C 0.816406 -5.800781 0.78125 -6.078125 0.78125 -6.390625 C 0.78125 -6.679688 0.84375 -6.957031 0.96875 -7.21875 C 1.09375 -7.488281 1.273438 -7.71875 1.515625 -7.90625 C 1.765625 -8.101562 2.066406 -8.257812 2.421875 -8.375 C 2.773438 -8.488281 3.179688 -8.546875 3.640625 -8.546875 C 4.128906 -8.546875 4.570312 -8.492188 4.96875 -8.390625 C 5.363281 -8.296875 5.75 -8.15625 6.125 -7.96875 L 5.71875 -7 C 5.4375 -7.15625 5.113281 -7.285156 4.75 -7.390625 C 4.394531 -7.503906 4.015625 -7.5625 3.609375 -7.5625 C 3.078125 -7.5625 2.660156 -7.457031 2.359375 -7.25 C 2.054688 -7.050781 1.90625 -6.78125 1.90625 -6.4375 C 1.90625 -6.28125 1.925781 -6.140625 1.96875 -6.015625 C 2.019531 -5.890625 2.109375 -5.769531 2.234375 -5.65625 C 2.367188 -5.539062 2.550781 -5.421875 2.78125 -5.296875 C 3.019531 -5.179688 3.335938 -5.050781 3.734375 -4.90625 C 4.191406 -4.726562 4.582031 -4.546875 4.90625 -4.359375 C 5.226562 -4.179688 5.484375 -3.988281 5.671875 -3.78125 C 5.867188 -3.570312 6.007812 -3.347656 6.09375 -3.109375 C 6.175781 -2.867188 6.21875 -2.601562 6.21875 -2.3125 C 6.21875 -1.925781 6.140625 -1.578125 5.984375 -1.265625 C 5.835938 -0.960938 5.628906 -0.707031 5.359375 -0.5 C 5.085938 -0.289062 4.765625 -0.128906 4.390625 -0.015625 C 4.015625 0.0859375 3.609375 0.140625 3.171875 0.140625 C 2.585938 0.140625 2.054688 0.0625 1.578125 -0.09375 C 1.097656 -0.25 0.691406 -0.453125 0.359375 -0.703125 Z M 0.9375 -1.671875 "/></g></g></g><g fill="#47bcca" fill-opacity="1"><g transform="translate(148.205744, 257.460365)"><g><path d="M 6.1875 -2.609375 C 6.1875 -2.203125 6.113281 -1.832031 5.96875 -1.5 C 5.832031 -1.164062 5.632812 -0.875 5.375 -0.625 C 5.113281 -0.382812 4.800781 -0.195312 4.4375 -0.0625 C 4.082031 0.0703125 3.679688 0.140625 3.234375 0.140625 C 2.742188 0.140625 2.320312 0.0859375 1.96875 -0.015625 C 1.625 -0.128906 1.304688 -0.285156 1.015625 -0.484375 L 1.578125 -1.40625 C 1.804688 -1.238281 2.054688 -1.101562 2.328125 -1 C 2.597656 -0.894531 2.90625 -0.84375 3.25 -0.84375 C 3.507812 -0.84375 3.75 -0.878906 3.96875 -0.953125 C 4.195312 -1.035156 4.390625 -1.148438 4.546875 -1.296875 C 4.703125 -1.453125 4.820312 -1.628906 4.90625 -1.828125 C 5 -2.023438 5.046875 -2.242188 5.046875 -2.484375 C 5.046875 -2.984375 4.875 -3.390625 4.53125 -3.703125 C 4.1875 -4.015625 3.703125 -4.171875 3.078125 -4.171875 L 1.578125 -4.171875 L 1.578125 -8.40625 L 5.734375 -8.40625 L 5.734375 -7.421875 L 2.609375 -7.421875 L 2.609375 -5.140625 L 3.203125 -5.140625 C 3.671875 -5.140625 4.085938 -5.078125 4.453125 -4.953125 C 4.816406 -4.835938 5.125 -4.664062 5.375 -4.4375 C 5.632812 -4.207031 5.832031 -3.9375 5.96875 -3.625 C 6.113281 -3.3125 6.1875 -2.972656 6.1875 -2.609375 Z M 6.1875 -2.609375 "/></g></g></g><g fill="#47bcca" fill-opacity="1"><g transform="translate(157.529759, 257.460365)"><g><path d="M 3.609375 -8.546875 C 4.078125 -8.546875 4.488281 -8.445312 4.84375 -8.25 C 5.207031 -8.050781 5.507812 -7.765625 5.75 -7.390625 C 5.988281 -7.023438 6.171875 -6.570312 6.296875 -6.03125 C 6.421875 -5.488281 6.484375 -4.875 6.484375 -4.1875 C 6.484375 -2.789062 6.234375 -1.71875 5.734375 -0.96875 C 5.234375 -0.226562 4.519531 0.140625 3.59375 0.140625 C 2.65625 0.140625 1.941406 -0.238281 1.453125 -1 C 0.960938 -1.757812 0.71875 -2.832031 0.71875 -4.21875 C 0.71875 -5.601562 0.960938 -6.671875 1.453125 -7.421875 C 1.953125 -8.171875 2.671875 -8.546875 3.609375 -8.546875 Z M 3.59375 -7.5625 C 3.332031 -7.5625 3.09375 -7.503906 2.875 -7.390625 C 2.664062 -7.273438 2.484375 -7.085938 2.328125 -6.828125 C 2.171875 -6.566406 2.050781 -6.222656 1.96875 -5.796875 C 1.894531 -5.367188 1.859375 -4.84375 1.859375 -4.21875 C 1.859375 -3.113281 2.007812 -2.273438 2.3125 -1.703125 C 2.613281 -1.128906 3.039062 -0.84375 3.59375 -0.84375 C 3.863281 -0.84375 4.101562 -0.898438 4.3125 -1.015625 C 4.53125 -1.128906 4.710938 -1.316406 4.859375 -1.578125 C 5.015625 -1.835938 5.132812 -2.175781 5.21875 -2.59375 C 5.300781 -3.019531 5.34375 -3.546875 5.34375 -4.171875 C 5.34375 -5.285156 5.1875 -6.128906 4.875 -6.703125 C 4.570312 -7.273438 4.144531 -7.5625 3.59375 -7.5625 Z M 3.59375 -7.5625 "/></g></g></g><g fill="#47bcca" fill-opacity="1"><g transform="translate(166.853775, 257.460365)"><g/></g></g><g fill="#47bcca" fill-opacity="1"><g transform="translate(172.577777, 257.460365)"><g><path d="M 0.125 -8.40625 L 6.421875 -8.40625 L 6.421875 -7.390625 L 3.84375 -7.390625 L 3.84375 0 L 2.703125 0 L 2.703125 -7.390625 L 0.125 -7.390625 Z M 0.125 -8.40625 "/></g></g></g><g fill="#47bcca" fill-opacity="1"><g transform="translate(181.241787, 257.460365)"><g><path d="M 1.078125 -8.40625 L 6.125 -8.40625 L 6.125 -7.421875 L 2.21875 -7.421875 L 2.21875 -4.859375 L 5.578125 -4.859375 L 5.578125 -3.90625 L 2.21875 -3.90625 L 2.21875 -0.984375 L 6.125 -0.984375 L 6.125 0 L 1.078125 0 Z M 1.078125 -8.40625 "/></g></g></g><g fill="#47bcca" fill-opacity="1"><g transform="translate(190.025802, 257.460365)"><g><path d="M 7.78125 -6.953125 L 5.546875 -1.890625 L 4.421875 -1.890625 L 2.15625 -6.953125 L 2.15625 0 L 1.078125 0 L 1.078125 -8.40625 L 2.671875 -8.40625 L 5 -3.078125 L 7.296875 -8.40625 L 8.921875 -8.40625 L 8.921875 0 L 7.78125 0 Z M 7.78125 -6.953125 "/></g></g></g><g fill="#47bcca" fill-opacity="1"><g transform="translate(202.15782, 257.460365)"><g><path d="M 1.078125 -8.375 C 1.410156 -8.414062 1.769531 -8.445312 2.15625 -8.46875 C 2.550781 -8.488281 2.960938 -8.5 3.390625 -8.5 C 3.910156 -8.5 4.375 -8.429688 4.78125 -8.296875 C 5.195312 -8.171875 5.539062 -7.992188 5.8125 -7.765625 C 6.09375 -7.546875 6.304688 -7.273438 6.453125 -6.953125 C 6.597656 -6.640625 6.671875 -6.300781 6.671875 -5.9375 C 6.671875 -5.488281 6.582031 -5.085938 6.40625 -4.734375 C 6.238281 -4.390625 6 -4.097656 5.6875 -3.859375 C 5.382812 -3.617188 5.015625 -3.4375 4.578125 -3.3125 C 4.148438 -3.1875 3.675781 -3.125 3.15625 -3.125 C 2.820312 -3.125 2.507812 -3.140625 2.21875 -3.171875 L 2.21875 0 L 1.078125 0 Z M 3.296875 -4.078125 C 4.015625 -4.078125 4.566406 -4.234375 4.953125 -4.546875 C 5.347656 -4.867188 5.546875 -5.300781 5.546875 -5.84375 C 5.546875 -6.363281 5.359375 -6.773438 4.984375 -7.078125 C 4.609375 -7.378906 4.070312 -7.53125 3.375 -7.53125 C 3.15625 -7.53125 2.945312 -7.523438 2.75 -7.515625 C 2.5625 -7.515625 2.382812 -7.503906 2.21875 -7.484375 L 2.21875 -4.140625 C 2.34375 -4.117188 2.492188 -4.101562 2.671875 -4.09375 C 2.859375 -4.082031 3.066406 -4.078125 3.296875 -4.078125 Z M 3.296875 -4.078125 "/></g></g></g><g fill="#47bcca" fill-opacity="1"><g transform="translate(211.253835, 257.460365)"><g><path d="M 6.078125 0 L 1.078125 0 L 1.078125 -8.40625 L 2.21875 -8.40625 L 2.21875 -1.015625 L 6.078125 -1.015625 Z M 6.078125 0 "/></g></g></g><g fill="#47bcca" fill-opacity="1"><g transform="translate(219.509843, 257.460365)"><g><path d="M 0.125 -0.296875 L 3.40625 -8.40625 L 4.65625 -8.40625 L 7.890625 -0.296875 L 6.859375 0.125 L 5.921875 -2.28125 L 2.03125 -2.28125 L 1.09375 0.09375 Z M 2.390625 -3.234375 L 5.546875 -3.234375 L 3.96875 -7.265625 Z M 2.390625 -3.234375 "/></g></g></g><g fill="#47bcca" fill-opacity="1"><g transform="translate(229.649851, 257.460365)"><g><path d="M 0.125 -8.40625 L 6.421875 -8.40625 L 6.421875 -7.390625 L 3.84375 -7.390625 L 3.84375 0 L 2.703125 0 L 2.703125 -7.390625 L 0.125 -7.390625 Z M 0.125 -8.40625 "/></g></g></g><g fill="#47bcca" fill-opacity="1"><g transform="translate(238.313864, 257.460365)"><g><path d="M 1.078125 -8.40625 L 6.125 -8.40625 L 6.125 -7.421875 L 2.21875 -7.421875 L 2.21875 -4.859375 L 5.578125 -4.859375 L 5.578125 -3.90625 L 2.21875 -3.90625 L 2.21875 -0.984375 L 6.125 -0.984375 L 6.125 0 L 1.078125 0 Z M 1.078125 -8.40625 "/></g></g></g></svg>