<svg xmlns="http://www.w3.org/2000/svg" xmlns:xlink="http://www.w3.org/1999/xlink" width="500" zoomAndPan="magnify" viewBox="0 0 375 374.999991" height="500" preserveAspectRatio="xMidYMid meet" version="1.0"><defs><g/><clipPath id="a2c604d6df"><path d="M 100.300781 106.402344 L 264 106.402344 L 264 187.402344 L 100.300781 187.402344 Z M 100.300781 106.402344 " clip-rule="nonzero"/></clipPath><clipPath id="461efdf918"><path d="M 230 171 L 257 171 L 257 187.402344 L 230 187.402344 Z M 230 171 " clip-rule="nonzero"/></clipPath></defs><path fill="#000000" d="M 375 187.5 C 375 190.570312 374.925781 193.636719 374.773438 196.699219 C 374.625 199.765625 374.398438 202.824219 374.097656 205.878906 C 373.796875 208.933594 373.421875 211.976562 372.96875 215.011719 C 372.519531 218.046875 371.996094 221.070312 371.398438 224.078125 C 370.796875 227.089844 370.125 230.082031 369.378906 233.058594 C 368.636719 236.035156 367.816406 238.992188 366.925781 241.929688 C 366.035156 244.863281 365.074219 247.777344 364.039062 250.667969 C 363.003906 253.554688 361.902344 256.417969 360.726562 259.253906 C 359.554688 262.089844 358.308594 264.890625 356.996094 267.667969 C 355.6875 270.441406 354.304688 273.179688 352.859375 275.886719 C 351.414062 278.59375 349.902344 281.261719 348.324219 283.894531 C 346.746094 286.527344 345.105469 289.117188 343.402344 291.667969 C 341.695312 294.222656 339.929688 296.730469 338.101562 299.195312 C 336.273438 301.660156 334.386719 304.078125 332.4375 306.449219 C 330.492188 308.820312 328.488281 311.144531 326.429688 313.417969 C 324.367188 315.691406 322.253906 317.914062 320.082031 320.082031 C 317.914062 322.253906 315.691406 324.367188 313.417969 326.429688 C 311.144531 328.488281 308.820312 330.492188 306.449219 332.4375 C 304.078125 334.386719 301.660156 336.273438 299.195312 338.101562 C 296.730469 339.929688 294.222656 341.695312 291.667969 343.402344 C 289.117188 345.105469 286.527344 346.746094 283.894531 348.324219 C 281.261719 349.902344 278.59375 351.414062 275.886719 352.859375 C 273.179688 354.308594 270.441406 355.6875 267.667969 356.996094 C 264.890625 358.308594 262.089844 359.554688 259.253906 360.726562 C 256.417969 361.902344 253.554688 363.003906 250.667969 364.039062 C 247.777344 365.074219 244.863281 366.035156 241.929688 366.925781 C 238.992188 367.816406 236.035156 368.636719 233.058594 369.378906 C 230.082031 370.125 227.089844 370.796875 224.078125 371.398438 C 221.070312 371.996094 218.046875 372.519531 215.011719 372.96875 C 211.976562 373.421875 208.933594 373.796875 205.878906 374.097656 C 202.824219 374.398438 199.765625 374.625 196.699219 374.773438 C 193.636719 374.925781 190.570312 375 187.5 375 C 184.429688 375 181.363281 374.925781 178.300781 374.773438 C 175.234375 374.625 172.175781 374.398438 169.121094 374.097656 C 166.066406 373.796875 163.023438 373.421875 159.988281 372.96875 C 156.953125 372.519531 153.929688 371.996094 150.921875 371.398438 C 147.910156 370.796875 144.917969 370.125 141.941406 369.378906 C 138.964844 368.636719 136.007812 367.816406 133.070312 366.925781 C 130.136719 366.035156 127.222656 365.074219 124.332031 364.039062 C 121.445312 363.003906 118.582031 361.902344 115.746094 360.726562 C 112.910156 359.554688 110.105469 358.308594 107.332031 356.996094 C 104.558594 355.6875 101.820312 354.308594 99.113281 352.859375 C 96.40625 351.414062 93.738281 349.902344 91.105469 348.324219 C 88.472656 346.746094 85.882812 345.105469 83.332031 343.402344 C 80.777344 341.695312 78.269531 339.929688 75.804688 338.101562 C 73.339844 336.273438 70.921875 334.386719 68.550781 332.4375 C 66.179688 330.492188 63.855469 328.488281 61.582031 326.429688 C 59.308594 324.367188 57.085938 322.253906 54.917969 320.082031 C 52.746094 317.914062 50.632812 315.691406 48.570312 313.417969 C 46.511719 311.144531 44.507812 308.820312 42.558594 306.449219 C 40.613281 304.078125 38.726562 301.660156 36.898438 299.195312 C 35.070312 296.730469 33.304688 294.222656 31.597656 291.667969 C 29.894531 289.117188 28.253906 286.527344 26.675781 283.894531 C 25.097656 281.261719 23.585938 278.59375 22.140625 275.886719 C 20.691406 273.179688 19.3125 270.441406 18.003906 267.667969 C 16.691406 264.890625 15.445312 262.089844 14.273438 259.253906 C 13.097656 256.417969 11.996094 253.554688 10.960938 250.667969 C 9.925781 247.777344 8.964844 244.863281 8.074219 241.929688 C 7.183594 238.992188 6.363281 236.035156 5.617188 233.058594 C 4.875 230.082031 4.203125 227.089844 3.601562 224.078125 C 3.003906 221.070312 2.480469 218.046875 2.03125 215.011719 C 1.578125 211.976562 1.203125 208.933594 0.902344 205.878906 C 0.601562 202.824219 0.375 199.765625 0.226562 196.699219 C 0.0742188 193.636719 0 190.570312 0 187.5 C 0 184.429688 0.0742188 181.363281 0.226562 178.300781 C 0.375 175.234375 0.601562 172.175781 0.902344 169.121094 C 1.203125 166.066406 1.578125 163.023438 2.03125 159.988281 C 2.480469 156.953125 3.003906 153.929688 3.601562 150.921875 C 4.203125 147.910156 4.875 144.917969 5.617188 141.941406 C 6.363281 138.964844 7.183594 136.007812 8.074219 133.070312 C 8.964844 130.136719 9.925781 127.222656 10.960938 124.332031 C 11.996094 121.445312 13.097656 118.582031 14.273438 115.746094 C 15.445312 112.910156 16.691406 110.105469 18.003906 107.332031 C 19.3125 104.558594 20.691406 101.820312 22.140625 99.113281 C 23.585938 96.40625 25.097656 93.738281 26.675781 91.105469 C 28.253906 88.472656 29.894531 85.882812 31.597656 83.332031 C 33.304688 80.777344 35.070312 78.269531 36.898438 75.804688 C 38.726562 73.339844 40.613281 70.921875 42.558594 68.550781 C 44.507812 66.179688 46.511719 63.855469 48.570312 61.582031 C 50.632812 59.308594 52.746094 57.085938 54.917969 54.917969 C 57.085938 52.746094 59.308594 50.632812 61.582031 48.570312 C 63.855469 46.511719 66.179688 44.507812 68.550781 42.558594 C 70.921875 40.613281 73.339844 38.726562 75.804688 36.898438 C 78.269531 35.070312 80.777344 33.304688 83.332031 31.597656 C 85.882812 29.894531 88.472656 28.253906 91.105469 26.675781 C 93.738281 25.097656 96.40625 23.585938 99.113281 22.140625 C 101.820312 20.691406 104.558594 19.3125 107.332031 18.003906 C 110.105469 16.691406 112.910156 15.445312 115.746094 14.273438 C 118.582031 13.097656 121.445312 11.996094 124.332031 10.960938 C 127.222656 9.925781 130.136719 8.964844 133.070312 8.074219 C 136.007812 7.183594 138.964844 6.363281 141.941406 5.617188 C 144.917969 4.875 147.910156 4.203125 150.921875 3.601562 C 153.929688 3.003906 156.953125 2.480469 159.988281 2.03125 C 163.023438 1.578125 166.066406 1.203125 169.121094 0.902344 C 172.175781 0.601562 175.234375 0.375 178.300781 0.226562 C 181.363281 0.0742188 184.429688 0 187.5 0 C 190.570312 0 193.636719 0.0742188 196.699219 0.226562 C 199.765625 0.375 202.824219 0.601562 205.878906 0.902344 C 208.933594 1.203125 211.976562 1.578125 215.011719 2.03125 C 218.046875 2.480469 221.070312 3.003906 224.078125 3.601562 C 227.089844 4.203125 230.082031 4.875 233.058594 5.617188 C 236.035156 6.363281 238.992188 7.183594 241.929688 8.074219 C 244.863281 8.964844 247.777344 9.925781 250.667969 10.960938 C 253.554688 11.996094 256.417969 13.097656 259.253906 14.273438 C 262.089844 15.445312 264.890625 16.691406 267.667969 18.003906 C 270.441406 19.3125 273.179688 20.691406 275.886719 22.140625 C 278.59375 23.585938 281.261719 25.097656 283.894531 26.675781 C 286.527344 28.253906 289.117188 29.894531 291.667969 31.597656 C 294.222656 33.304688 296.730469 35.070312 299.195312 36.898438 C 301.660156 38.726562 304.078125 40.613281 306.449219 42.558594 C 308.820312 44.507812 311.144531 46.511719 313.417969 48.570312 C 315.691406 50.632812 317.914062 52.746094 320.082031 54.917969 C 322.253906 57.085938 324.367188 59.308594 326.429688 61.582031 C 328.488281 63.855469 330.492188 66.179688 332.4375 68.550781 C 334.386719 70.921875 336.273438 73.339844 338.101562 75.804688 C 339.929688 78.269531 341.695312 80.777344 343.402344 83.332031 C 345.105469 85.882812 346.746094 88.472656 348.324219 91.105469 C 349.902344 93.738281 351.414062 96.40625 352.859375 99.113281 C 354.304688 101.820312 355.6875 104.558594 356.996094 107.332031 C 358.308594 110.105469 359.554688 112.910156 360.726562 115.746094 C 361.902344 118.582031 363.003906 121.445312 364.039062 124.332031 C 365.074219 127.222656 366.035156 130.136719 366.925781 133.070312 C 367.816406 136.007812 368.636719 138.964844 369.378906 141.941406 C 370.125 144.917969 370.796875 147.910156 371.398438 150.921875 C 371.996094 153.929688 372.519531 156.953125 372.96875 159.988281 C 373.421875 163.023438 373.796875 166.066406 374.097656 169.121094 C 374.398438 172.175781 374.625 175.234375 374.773438 178.300781 C 374.925781 181.363281 375 184.429688 375 187.5 Z M 375 187.5 " fill-opacity="1" fill-rule="nonzero"/><path fill="#ffffff" d="M 266.722656 128.09375 L 255.84375 128.09375 C 251.4375 128.09375 247.851562 131.667969 247.851562 136.058594 C 247.851562 140.449219 251.4375 144.023438 255.84375 144.023438 L 266.722656 144.023438 C 271.128906 144.023438 274.714844 140.449219 274.714844 136.058594 C 274.714844 131.667969 271.128906 128.09375 266.722656 128.09375 Z M 266.722656 138.9375 L 255.84375 138.9375 C 254.25 138.9375 252.953125 137.648438 252.953125 136.058594 C 252.953125 134.46875 254.25 133.175781 255.84375 133.175781 L 266.722656 133.175781 C 268.316406 133.175781 269.613281 134.46875 269.613281 136.058594 C 269.613281 137.648438 268.316406 138.9375 266.722656 138.9375 Z M 266.722656 138.9375 " fill-opacity="1" fill-rule="nonzero"/><g clip-path="url(#a2c604d6df)"><path fill="#ffffff" d="M 215.382812 171.476562 L 207.71875 171.476562 C 206.113281 171.476562 204.75 170.246094 204.679688 168.734375 C 204.640625 167.9375 204.921875 167.179688 205.472656 166.609375 C 206.023438 166.03125 206.765625 165.710938 207.566406 165.710938 L 238.503906 165.710938 C 242.910156 165.710938 246.492188 162.140625 246.492188 157.75 C 246.492188 153.359375 242.910156 149.785156 238.503906 149.785156 L 216.558594 149.785156 C 214.953125 149.785156 213.589844 148.554688 213.519531 147.046875 C 213.480469 146.246094 213.761719 145.492188 214.3125 144.914062 C 214.863281 144.339844 215.605469 144.023438 216.402344 144.023438 L 227.964844 144.023438 C 232.367188 144.023438 235.953125 140.449219 235.953125 136.058594 C 235.953125 131.667969 232.367188 128.09375 227.964844 128.09375 L 203.296875 128.09375 C 201.695312 128.09375 200.328125 126.867188 200.257812 125.355469 C 200.222656 124.558594 200.503906 123.800781 201.050781 123.226562 C 201.605469 122.648438 202.347656 122.332031 203.144531 122.332031 L 255.503906 122.332031 C 257.675781 122.332031 259.785156 121.433594 261.285156 119.867188 C 262.808594 118.273438 263.585938 116.1875 263.484375 113.984375 C 263.28125 109.734375 259.710938 106.402344 255.347656 106.402344 L 155.121094 106.402344 C 153.714844 106.402344 152.570312 107.542969 152.570312 108.945312 C 152.570312 110.347656 153.714844 111.488281 155.121094 111.488281 L 255.347656 111.488281 C 256.953125 111.488281 258.316406 112.71875 258.390625 114.226562 C 258.425781 115.023438 258.144531 115.78125 257.59375 116.355469 C 257.042969 116.929688 256.300781 117.25 255.503906 117.25 L 203.144531 117.25 C 200.972656 117.25 198.863281 118.148438 197.363281 119.714844 C 195.839844 121.308594 195.058594 123.394531 195.164062 125.59375 C 195.363281 129.847656 198.9375 133.179688 203.296875 133.179688 L 227.964844 133.179688 C 229.554688 133.179688 230.851562 134.472656 230.851562 136.058594 C 230.851562 137.648438 229.554688 138.9375 227.964844 138.9375 L 216.402344 138.9375 C 214.230469 138.9375 212.125 139.839844 210.625 141.40625 C 209.101562 142.996094 208.320312 145.085938 208.421875 147.285156 C 208.625 151.539062 212.195312 154.871094 216.558594 154.871094 L 238.503906 154.871094 C 240.097656 154.871094 241.394531 156.160156 241.394531 157.75 C 241.394531 159.339844 240.097656 160.628906 238.503906 160.628906 L 207.566406 160.628906 C 205.390625 160.628906 203.285156 161.53125 201.78125 163.097656 C 200.261719 164.6875 199.480469 166.773438 199.582031 168.976562 C 199.785156 173.230469 203.359375 176.558594 207.71875 176.558594 L 215.382812 176.558594 C 216.976562 176.558594 218.273438 177.851562 218.273438 179.441406 C 218.273438 181.03125 216.976562 182.320312 215.382812 182.320312 L 109.046875 182.320312 C 107.222656 182.320312 105.738281 180.839844 105.738281 179.019531 L 105.738281 126.738281 L 166.765625 126.738281 C 168.175781 126.738281 169.316406 125.597656 169.316406 124.195312 C 169.316406 122.792969 168.175781 121.652344 166.765625 121.652344 L 105.738281 121.652344 L 105.738281 114.785156 C 105.738281 112.96875 107.222656 111.488281 109.046875 111.488281 L 144.921875 111.488281 C 146.328125 111.488281 147.472656 110.347656 147.472656 108.945312 C 147.472656 107.542969 146.328125 106.402344 144.921875 106.402344 L 109.046875 106.402344 C 104.410156 106.402344 100.636719 110.164062 100.636719 114.785156 L 100.636719 179.019531 C 100.636719 183.644531 104.410156 187.402344 109.046875 187.402344 L 215.382812 187.402344 C 219.789062 187.402344 223.375 183.828125 223.375 179.4375 C 223.375 175.046875 219.789062 171.476562 215.382812 171.476562 Z M 215.382812 171.476562 " fill-opacity="1" fill-rule="nonzero"/></g><g clip-path="url(#461efdf918)"><path fill="#ffffff" d="M 248.363281 171.476562 L 238.84375 171.476562 C 234.4375 171.476562 230.851562 175.046875 230.851562 179.441406 C 230.851562 183.828125 234.4375 187.402344 238.84375 187.402344 L 248.363281 187.402344 C 252.769531 187.402344 256.351562 183.828125 256.351562 179.441406 C 256.351562 175.046875 252.769531 171.476562 248.363281 171.476562 Z M 248.363281 182.320312 L 238.84375 182.320312 C 237.25 182.320312 235.953125 181.027344 235.953125 179.441406 C 235.953125 177.851562 237.25 176.558594 238.84375 176.558594 L 248.363281 176.558594 C 249.957031 176.558594 251.253906 177.851562 251.253906 179.441406 C 251.253906 181.027344 249.957031 182.320312 248.363281 182.320312 Z M 248.363281 182.320312 " fill-opacity="1" fill-rule="nonzero"/></g><path fill="#ffffff" d="M 188.527344 126.738281 C 189.933594 126.738281 191.074219 125.597656 191.074219 124.195312 C 191.074219 122.792969 189.933594 121.652344 188.527344 121.652344 L 177.304688 121.652344 C 175.898438 121.652344 174.753906 122.792969 174.753906 124.195312 C 174.753906 125.597656 175.898438 126.738281 177.304688 126.738281 Z M 188.527344 126.738281 " fill-opacity="1" fill-rule="nonzero"/><path fill="#ffffff" d="M 114.238281 117.078125 C 114.238281 118.296875 113.25 119.285156 112.027344 119.285156 C 110.808594 119.285156 109.820312 118.296875 109.820312 117.078125 C 109.820312 115.863281 110.808594 114.875 112.027344 114.875 C 113.25 114.875 114.238281 115.863281 114.238281 117.078125 Z M 114.238281 117.078125 " fill-opacity="1" fill-rule="nonzero"/><path fill="#ffffff" d="M 122.398438 117.078125 C 122.398438 118.296875 121.40625 119.285156 120.1875 119.285156 C 118.96875 119.285156 117.976562 118.296875 117.976562 117.078125 C 117.976562 115.863281 118.96875 114.875 120.1875 114.875 C 121.40625 114.875 122.398438 115.863281 122.398438 117.078125 Z M 122.398438 117.078125 " fill-opacity="1" fill-rule="nonzero"/><path fill="#ffffff" d="M 130.554688 117.078125 C 130.554688 118.296875 129.566406 119.285156 128.347656 119.285156 C 127.125 119.285156 126.136719 118.296875 126.136719 117.078125 C 126.136719 115.863281 127.125 114.875 128.347656 114.875 C 129.566406 114.875 130.554688 115.863281 130.554688 117.078125 Z M 130.554688 117.078125 " fill-opacity="1" fill-rule="nonzero"/><path fill="#ffffff" d="M 120.460938 136.125 C 119.464844 135.132812 117.851562 135.132812 116.855469 136.125 L 109.542969 143.414062 C 108.546875 144.40625 108.546875 146.011719 109.542969 147.007812 L 117.195312 154.632812 C 117.691406 155.128906 118.34375 155.378906 118.996094 155.378906 C 119.648438 155.378906 120.300781 155.128906 120.800781 154.632812 C 121.796875 153.640625 121.796875 152.027344 120.800781 151.039062 L 114.953125 145.210938 L 120.460938 139.71875 C 121.457031 138.726562 121.457031 137.117188 120.460938 136.125 Z M 120.460938 136.125 " fill-opacity="1" fill-rule="nonzero"/><path fill="#ffffff" d="M 137.933594 154.632812 C 138.433594 155.128906 139.085938 155.378906 139.738281 155.378906 C 140.390625 155.378906 141.042969 155.128906 141.539062 154.632812 L 149.191406 147.007812 C 150.183594 146.011719 150.183594 144.402344 149.191406 143.414062 L 141.878906 136.125 C 140.882812 135.132812 139.269531 135.132812 138.273438 136.125 C 137.277344 137.117188 137.277344 138.726562 138.273438 139.71875 L 143.78125 145.210938 L 137.933594 151.039062 C 136.9375 152.027344 136.9375 153.640625 137.933594 154.632812 Z M 137.933594 154.632812 " fill-opacity="1" fill-rule="nonzero"/><path fill="#ffffff" d="M 125.625 155.207031 C 126.519531 155.207031 127.386719 154.738281 127.855469 153.902344 L 136.011719 139.332031 C 136.699219 138.105469 136.257812 136.554688 135.03125 135.871094 C 133.800781 135.1875 132.246094 135.625 131.5625 136.851562 L 123.402344 151.429688 C 122.714844 152.652344 123.152344 154.199219 124.382812 154.886719 C 124.777344 155.105469 125.203125 155.207031 125.625 155.207031 Z M 125.625 155.207031 " fill-opacity="1" fill-rule="nonzero"/><path fill="#ffffff" d="M 157.246094 152.15625 L 179.34375 152.15625 C 180.753906 152.15625 181.894531 151.019531 181.894531 149.613281 C 181.894531 148.210938 180.753906 147.074219 179.34375 147.074219 L 157.246094 147.074219 C 155.839844 147.074219 154.695312 148.210938 154.695312 149.613281 C 154.695312 151.019531 155.839844 152.15625 157.246094 152.15625 Z M 157.246094 152.15625 " fill-opacity="1" fill-rule="nonzero"/><path fill="#ffffff" d="M 157.246094 140.292969 L 159.96875 140.292969 C 161.375 140.292969 162.515625 139.15625 162.515625 137.753906 C 162.515625 136.347656 161.375 135.210938 159.96875 135.210938 L 157.246094 135.210938 C 155.839844 135.210938 154.695312 136.347656 154.695312 137.753906 C 154.695312 139.15625 155.839844 140.292969 157.246094 140.292969 Z M 157.246094 140.292969 " fill-opacity="1" fill-rule="nonzero"/><path fill="#ffffff" d="M 200.933594 149.613281 C 200.933594 148.210938 199.792969 147.074219 198.386719 147.074219 L 187.84375 147.074219 C 186.4375 147.074219 185.296875 148.210938 185.296875 149.613281 C 185.296875 151.019531 186.4375 152.15625 187.84375 152.15625 L 198.386719 152.15625 C 199.792969 152.15625 200.933594 151.019531 200.933594 149.613281 Z M 200.933594 149.613281 " fill-opacity="1" fill-rule="nonzero"/><path fill="#ffffff" d="M 162.175781 162.15625 C 162.175781 160.75 161.035156 159.613281 159.625 159.613281 L 118.828125 159.613281 C 117.421875 159.613281 116.277344 160.75 116.277344 162.15625 C 116.277344 163.558594 117.421875 164.699219 118.828125 164.699219 L 159.625 164.699219 C 161.035156 164.699219 162.175781 163.558594 162.175781 162.15625 Z M 162.175781 162.15625 " fill-opacity="1" fill-rule="nonzero"/><path fill="#ffffff" d="M 187.84375 159.613281 L 168.464844 159.613281 C 167.058594 159.613281 165.917969 160.75 165.917969 162.15625 C 165.917969 163.558594 167.058594 164.699219 168.464844 164.699219 L 187.84375 164.699219 C 189.253906 164.699219 190.394531 163.558594 190.394531 162.15625 C 190.394531 160.75 189.253906 159.613281 187.84375 159.613281 Z M 187.84375 159.613281 " fill-opacity="1" fill-rule="nonzero"/><path fill="#ffffff" d="M 118.828125 170.796875 C 117.421875 170.796875 116.277344 171.933594 116.277344 173.339844 C 116.277344 174.742188 117.421875 175.878906 118.828125 175.878906 L 132.085938 175.878906 C 133.496094 175.878906 134.636719 174.742188 134.636719 173.339844 C 134.636719 171.933594 133.496094 170.796875 132.085938 170.796875 Z M 118.828125 170.796875 " fill-opacity="1" fill-rule="nonzero"/><path fill="#ffffff" d="M 139.90625 170.796875 C 138.5 170.796875 137.355469 171.933594 137.355469 173.339844 C 137.355469 174.742188 138.5 175.878906 139.90625 175.878906 L 147.386719 175.878906 C 148.792969 175.878906 149.9375 174.742188 149.9375 173.339844 C 149.9375 171.933594 148.792969 170.796875 147.386719 170.796875 Z M 139.90625 170.796875 " fill-opacity="1" fill-rule="nonzero"/><path fill="#ffffff" d="M 154.1875 175.878906 L 187.84375 175.878906 C 189.253906 175.878906 190.394531 174.742188 190.394531 173.339844 C 190.394531 171.933594 189.253906 170.796875 187.84375 170.796875 L 154.1875 170.796875 C 152.777344 170.796875 151.636719 171.933594 151.636719 173.339844 C 151.636719 174.742188 152.777344 175.878906 154.1875 175.878906 Z M 154.1875 175.878906 " fill-opacity="1" fill-rule="nonzero"/><path fill="#ffffff" d="M 165.234375 138.09375 C 165.234375 139.496094 166.378906 140.632812 167.785156 140.632812 L 188.527344 140.632812 C 189.933594 140.632812 191.074219 139.496094 191.074219 138.09375 C 191.074219 136.6875 189.933594 135.550781 188.527344 135.550781 L 167.785156 135.550781 C 166.378906 135.550781 165.234375 136.6875 165.234375 138.09375 Z M 165.234375 138.09375 " fill-opacity="1" fill-rule="nonzero"/><path fill="#ffffff" d="M 187.5 375 C 84.144531 375 0 290.855469 0 187.5 C 0 84.144531 84.144531 0 187.5 0 C 290.855469 0 375 84.144531 375 187.5 C 375 290.855469 290.855469 375 187.5 375 Z M 187.5 2.769531 C 85.621094 2.769531 2.769531 85.621094 2.769531 187.5 C 2.769531 289.378906 85.621094 372.230469 187.5 372.230469 C 289.378906 372.230469 372.230469 289.378906 372.230469 187.5 C 372.230469 85.621094 289.378906 2.769531 187.5 2.769531 Z M 187.5 2.769531 " fill-opacity="1" fill-rule="nonzero"/><g fill="#ffffff" fill-opacity="1"><g transform="translate(49.576998, 270.316785)"><g><path d="M 1.4375 -8.078125 L 1.4375 -10.6875 L 9.828125 -10.6875 L 9.828125 -8.078125 Z M 1.4375 -8.078125 "/></g></g></g><g fill="#ffffff" fill-opacity="1"><g transform="translate(65.70162, 270.316785)"><g/></g></g><g fill="#ffffff" fill-opacity="1"><g transform="translate(79.656317, 270.316785)"><g><path d="M -0.203125 6.578125 C -1.273438 6.578125 -2.117188 6.425781 -2.734375 6.125 L -2.734375 3.640625 C -1.921875 3.867188 -1.078125 3.984375 -0.203125 3.984375 C 0.921875 3.984375 1.773438 3.640625 2.359375 2.953125 C 2.953125 2.273438 3.25 1.289062 3.25 0 L 3.25 -24.984375 L 6.15625 -24.984375 L 6.15625 -0.234375 C 6.15625 1.929688 5.609375 3.609375 4.515625 4.796875 C 3.421875 5.984375 1.847656 6.578125 -0.203125 6.578125 Z M -0.203125 6.578125 "/></g></g></g><g fill="#ffffff" fill-opacity="1"><g transform="translate(93.867307, 270.316785)"><g><path d="M 22.296875 -24.984375 L 22.296875 -8.8125 C 22.296875 -5.96875 21.4375 -3.726562 19.71875 -2.09375 C 18 -0.46875 15.632812 0.34375 12.625 0.34375 C 9.625 0.34375 7.296875 -0.472656 5.640625 -2.109375 C 3.992188 -3.753906 3.171875 -6.015625 3.171875 -8.890625 L 3.171875 -24.984375 L 6.078125 -24.984375 L 6.078125 -8.6875 C 6.078125 -6.59375 6.644531 -4.988281 7.78125 -3.875 C 8.925781 -2.757812 10.601562 -2.203125 12.8125 -2.203125 C 14.925781 -2.203125 16.550781 -2.765625 17.6875 -3.890625 C 18.820312 -5.015625 19.390625 -6.625 19.390625 -8.71875 L 19.390625 -24.984375 Z M 22.296875 -24.984375 "/></g></g></g><g fill="#ffffff" fill-opacity="1"><g transform="translate(124.207503, 270.316785)"><g><path d="M 17.53125 -6.640625 C 17.53125 -4.441406 16.734375 -2.726562 15.140625 -1.5 C 13.546875 -0.269531 11.378906 0.34375 8.640625 0.34375 C 5.679688 0.34375 3.40625 -0.0351562 1.8125 -0.796875 L 1.8125 -3.609375 C 2.832031 -3.171875 3.945312 -2.828125 5.15625 -2.578125 C 6.363281 -2.328125 7.5625 -2.203125 8.75 -2.203125 C 10.6875 -2.203125 12.144531 -2.566406 13.125 -3.296875 C 14.101562 -4.035156 14.59375 -5.0625 14.59375 -6.375 C 14.59375 -7.238281 14.414062 -7.945312 14.0625 -8.5 C 13.71875 -9.050781 13.140625 -9.5625 12.328125 -10.03125 C 11.515625 -10.5 10.273438 -11.03125 8.609375 -11.625 C 6.285156 -12.457031 4.625 -13.441406 3.625 -14.578125 C 2.632812 -15.710938 2.140625 -17.195312 2.140625 -19.03125 C 2.140625 -20.957031 2.863281 -22.488281 4.3125 -23.625 C 5.757812 -24.769531 7.671875 -25.34375 10.046875 -25.34375 C 12.535156 -25.34375 14.820312 -24.890625 16.90625 -23.984375 L 16 -21.453125 C 13.9375 -22.316406 11.929688 -22.75 9.984375 -22.75 C 8.441406 -22.75 7.238281 -22.414062 6.375 -21.75 C 5.507812 -21.09375 5.078125 -20.175781 5.078125 -19 C 5.078125 -18.132812 5.234375 -17.425781 5.546875 -16.875 C 5.867188 -16.320312 6.410156 -15.8125 7.171875 -15.34375 C 7.929688 -14.882812 9.085938 -14.378906 10.640625 -13.828125 C 13.265625 -12.890625 15.066406 -11.882812 16.046875 -10.8125 C 17.035156 -9.75 17.53125 -8.359375 17.53125 -6.640625 Z M 17.53125 -6.640625 "/></g></g></g><g fill="#ffffff" fill-opacity="1"><g transform="translate(148.277133, 270.316785)"><g><path d="M 11.125 0 L 8.21875 0 L 8.21875 -22.40625 L 0.3125 -22.40625 L 0.3125 -24.984375 L 19.03125 -24.984375 L 19.03125 -22.40625 L 11.125 -22.40625 Z M 11.125 0 "/></g></g></g><g fill="#ffffff" fill-opacity="1"><g transform="translate(172.500532, 270.316785)"><g/></g></g><g fill="#ffffff" fill-opacity="1"><g transform="translate(186.455227, 270.316785)"><g><path d="M 14.140625 -22.75 C 11.390625 -22.75 9.21875 -21.832031 7.625 -20 C 6.039062 -18.175781 5.25 -15.675781 5.25 -12.5 C 5.25 -9.226562 6.015625 -6.695312 7.546875 -4.90625 C 9.078125 -3.125 11.257812 -2.234375 14.09375 -2.234375 C 15.84375 -2.234375 17.832031 -2.546875 20.0625 -3.171875 L 20.0625 -0.625 C 18.332031 0.0195312 16.195312 0.34375 13.65625 0.34375 C 9.976562 0.34375 7.140625 -0.769531 5.140625 -3 C 3.140625 -5.238281 2.140625 -8.414062 2.140625 -12.53125 C 2.140625 -15.101562 2.617188 -17.359375 3.578125 -19.296875 C 4.546875 -21.234375 5.9375 -22.722656 7.75 -23.765625 C 9.5625 -24.816406 11.703125 -25.34375 14.171875 -25.34375 C 16.785156 -25.34375 19.070312 -24.863281 21.03125 -23.90625 L 19.8125 -21.40625 C 17.914062 -22.300781 16.023438 -22.75 14.140625 -22.75 Z M 14.140625 -22.75 "/></g></g></g><g fill="#ffffff" fill-opacity="1"><g transform="translate(213.395304, 270.316785)"><g><path d="M 25.125 -12.53125 C 25.125 -8.53125 24.113281 -5.382812 22.09375 -3.09375 C 20.070312 -0.800781 17.257812 0.34375 13.65625 0.34375 C 9.976562 0.34375 7.140625 -0.78125 5.140625 -3.03125 C 3.140625 -5.28125 2.140625 -8.457031 2.140625 -12.5625 C 2.140625 -16.625 3.140625 -19.773438 5.140625 -22.015625 C 7.148438 -24.253906 10 -25.375 13.6875 -25.375 C 17.28125 -25.375 20.082031 -24.234375 22.09375 -21.953125 C 24.113281 -19.679688 25.125 -16.539062 25.125 -12.53125 Z M 5.21875 -12.53125 C 5.21875 -9.144531 5.9375 -6.578125 7.375 -4.828125 C 8.8125 -3.078125 10.90625 -2.203125 13.65625 -2.203125 C 16.425781 -2.203125 18.515625 -3.070312 19.921875 -4.8125 C 21.335938 -6.5625 22.046875 -9.132812 22.046875 -12.53125 C 22.046875 -15.882812 21.34375 -18.429688 19.9375 -20.171875 C 18.53125 -21.910156 16.445312 -22.78125 13.6875 -22.78125 C 10.914062 -22.78125 8.8125 -21.90625 7.375 -20.15625 C 5.9375 -18.40625 5.21875 -15.863281 5.21875 -12.53125 Z M 5.21875 -12.53125 "/></g></g></g><g fill="#ffffff" fill-opacity="1"><g transform="translate(245.512448, 270.316785)"><g><path d="M 23.375 -12.734375 C 23.375 -8.609375 22.253906 -5.453125 20.015625 -3.265625 C 17.773438 -1.085938 14.554688 0 10.359375 0 L 3.4375 0 L 3.4375 -24.984375 L 11.09375 -24.984375 C 14.976562 -24.984375 17.992188 -23.90625 20.140625 -21.75 C 22.296875 -19.601562 23.375 -16.597656 23.375 -12.734375 Z M 20.296875 -12.625 C 20.296875 -15.882812 19.476562 -18.335938 17.84375 -19.984375 C 16.207031 -21.640625 13.78125 -22.46875 10.5625 -22.46875 L 6.34375 -22.46875 L 6.34375 -2.515625 L 9.875 -2.515625 C 13.34375 -2.515625 15.945312 -3.363281 17.6875 -5.0625 C 19.425781 -6.769531 20.296875 -9.289062 20.296875 -12.625 Z M 20.296875 -12.625 "/></g></g></g><g fill="#ffffff" fill-opacity="1"><g transform="translate(275.886828, 270.316785)"><g><path d="M 17.359375 0 L 3.4375 0 L 3.4375 -24.984375 L 17.359375 -24.984375 L 17.359375 -22.40625 L 6.34375 -22.40625 L 6.34375 -14.359375 L 16.703125 -14.359375 L 16.703125 -11.796875 L 6.34375 -11.796875 L 6.34375 -2.59375 L 17.359375 -2.59375 Z M 17.359375 0 "/></g></g></g><g fill="#ffffff" fill-opacity="1"><g transform="translate(300.212754, 270.316785)"><g/></g></g><g fill="#ffffff" fill-opacity="1"><g transform="translate(314.167449, 270.316785)"><g><path d="M 1.4375 -8.078125 L 1.4375 -10.6875 L 9.828125 -10.6875 L 9.828125 -8.078125 Z M 1.4375 -8.078125 "/></g></g></g><g fill="#ffffff" fill-opacity="1"><g transform="translate(19.007816, 226.158355)"><g><path d="M 9.390625 0.375 C 7.890625 0.375 6.507812 0.0195312 5.25 -0.6875 C 4 -1.394531 3.007812 -2.367188 2.28125 -3.609375 C 2.050781 -3.960938 1.9375 -4.304688 1.9375 -4.640625 C 1.9375 -5.117188 2.125 -5.53125 2.5 -5.875 C 2.882812 -6.21875 3.28125 -6.390625 3.6875 -6.390625 C 4.238281 -6.390625 4.804688 -6.070312 5.390625 -5.4375 C 6.378906 -3.96875 7.710938 -3.234375 9.390625 -3.234375 C 10.773438 -3.234375 11.945312 -3.703125 12.90625 -4.640625 C 13.875 -5.578125 14.359375 -6.726562 14.359375 -8.09375 L 14.359375 -24.78125 C 14.359375 -25.28125 14.546875 -25.707031 14.921875 -26.0625 C 15.304688 -26.414062 15.753906 -26.59375 16.265625 -26.59375 C 16.816406 -26.59375 17.265625 -26.421875 17.609375 -26.078125 C 17.953125 -25.742188 18.125 -25.3125 18.125 -24.78125 L 18.125 -8.09375 C 18.125 -6.550781 17.742188 -5.132812 16.984375 -3.84375 C 16.222656 -2.550781 15.175781 -1.523438 13.84375 -0.765625 C 12.519531 -0.00390625 11.035156 0.375 9.390625 0.375 Z M 9.390625 0.375 "/></g></g></g><g fill="#ffffff" fill-opacity="1"><g transform="translate(40.283468, 226.158355)"><g><path d="M 18.84375 -20.171875 C 19.375 -20.171875 19.8125 -20 20.15625 -19.65625 C 20.5 -19.320312 20.671875 -18.875 20.671875 -18.3125 L 20.671875 -1.828125 C 20.671875 -1.316406 20.5 -0.882812 20.15625 -0.53125 C 19.8125 -0.175781 19.375 0 18.84375 0 C 18.3125 0 17.878906 -0.171875 17.546875 -0.515625 C 17.222656 -0.859375 17.0625 -1.296875 17.0625 -1.828125 L 17.0625 -2.8125 C 16.40625 -1.925781 15.503906 -1.171875 14.359375 -0.546875 C 13.222656 0.0664062 11.992188 0.375 10.671875 0.375 C 8.953125 0.375 7.390625 -0.0664062 5.984375 -0.953125 C 4.578125 -1.835938 3.472656 -3.070312 2.671875 -4.65625 C 1.878906 -6.238281 1.484375 -8.019531 1.484375 -10 C 1.484375 -11.96875 1.878906 -13.742188 2.671875 -15.328125 C 3.472656 -16.910156 4.570312 -18.144531 5.96875 -19.03125 C 7.363281 -19.925781 8.894531 -20.375 10.5625 -20.375 C 11.90625 -20.375 13.148438 -20.09375 14.296875 -19.53125 C 15.453125 -18.976562 16.375 -18.269531 17.0625 -17.40625 L 17.0625 -18.3125 C 17.0625 -18.84375 17.222656 -19.285156 17.546875 -19.640625 C 17.878906 -19.992188 18.3125 -20.171875 18.84375 -20.171875 Z M 11.09375 -2.96875 C 12.28125 -2.96875 13.335938 -3.269531 14.265625 -3.875 C 15.191406 -4.476562 15.914062 -5.3125 16.4375 -6.375 C 16.957031 -7.445312 17.21875 -8.65625 17.21875 -10 C 17.21875 -11.3125 16.957031 -12.5 16.4375 -13.5625 C 15.914062 -14.625 15.191406 -15.46875 14.265625 -16.09375 C 13.335938 -16.71875 12.28125 -17.03125 11.09375 -17.03125 C 9.90625 -17.03125 8.847656 -16.722656 7.921875 -16.109375 C 6.992188 -15.503906 6.269531 -14.671875 5.75 -13.609375 C 5.238281 -12.546875 4.984375 -11.34375 4.984375 -10 C 4.984375 -8.65625 5.238281 -7.445312 5.75 -6.375 C 6.269531 -5.3125 6.992188 -4.476562 7.921875 -3.875 C 8.847656 -3.269531 9.90625 -2.96875 11.09375 -2.96875 Z M 11.09375 -2.96875 "/></g></g></g><g fill="#ffffff" fill-opacity="1"><g transform="translate(63.610703, 226.158355)"><g><path d="M 17.515625 -20.109375 C 18.046875 -20.109375 18.484375 -19.925781 18.828125 -19.5625 C 19.171875 -19.207031 19.34375 -18.78125 19.34375 -18.28125 L 19.34375 -1.859375 C 19.34375 1.304688 18.46875 3.671875 16.71875 5.234375 C 14.96875 6.804688 12.660156 7.59375 9.796875 7.59375 C 8.859375 7.59375 7.929688 7.503906 7.015625 7.328125 C 6.109375 7.148438 5.363281 6.910156 4.78125 6.609375 C 3.84375 6.179688 3.375 5.597656 3.375 4.859375 C 3.375 4.734375 3.398438 4.570312 3.453125 4.375 C 3.609375 3.9375 3.820312 3.601562 4.09375 3.375 C 4.375 3.15625 4.691406 3.046875 5.046875 3.046875 C 5.253906 3.046875 5.445312 3.082031 5.625 3.15625 C 6.40625 3.507812 7.097656 3.785156 7.703125 3.984375 C 8.316406 4.191406 9.03125 4.296875 9.84375 4.296875 C 13.769531 4.296875 15.734375 2.28125 15.734375 -1.75 L 15.734375 -2.515625 C 15.046875 -1.597656 14.160156 -0.882812 13.078125 -0.375 C 12.003906 0.125 10.773438 0.375 9.390625 0.375 C 7.285156 0.375 5.644531 -0.289062 4.46875 -1.625 C 3.289062 -2.96875 2.703125 -4.734375 2.703125 -6.921875 L 2.703125 -18.28125 C 2.703125 -18.8125 2.863281 -19.25 3.1875 -19.59375 C 3.519531 -19.9375 3.953125 -20.109375 4.484375 -20.109375 C 5.015625 -20.109375 5.453125 -19.925781 5.796875 -19.5625 C 6.140625 -19.207031 6.3125 -18.78125 6.3125 -18.28125 L 6.3125 -7.859375 C 6.3125 -6.191406 6.675781 -4.957031 7.40625 -4.15625 C 8.144531 -3.363281 9.257812 -2.96875 10.75 -2.96875 C 12.195312 -2.96875 13.390625 -3.421875 14.328125 -4.328125 C 15.265625 -5.242188 15.734375 -6.421875 15.734375 -7.859375 L 15.734375 -18.28125 C 15.734375 -18.8125 15.894531 -19.25 16.21875 -19.59375 C 16.550781 -19.9375 16.984375 -20.109375 17.515625 -20.109375 Z M 17.515625 -20.109375 "/></g></g></g><g fill="#ffffff" fill-opacity="1"><g transform="translate(85.608203, 226.158355)"><g><path d="M 23.59375 -2.359375 C 23.675781 -2.128906 23.71875 -1.890625 23.71875 -1.640625 C 23.71875 -1.128906 23.546875 -0.707031 23.203125 -0.375 C 22.859375 -0.0507812 22.457031 0.109375 22 0.109375 C 21.644531 0.109375 21.320312 0.00390625 21.03125 -0.203125 C 20.738281 -0.421875 20.503906 -0.722656 20.328125 -1.109375 L 17.96875 -6.6875 L 6.234375 -6.6875 L 3.90625 -1.0625 C 3.78125 -0.6875 3.570312 -0.394531 3.28125 -0.1875 C 2.988281 0.0078125 2.664062 0.109375 2.3125 0.109375 C 1.78125 0.109375 1.375 -0.0234375 1.09375 -0.296875 C 0.820312 -0.578125 0.6875 -0.957031 0.6875 -1.4375 C 0.6875 -1.539062 0.710938 -1.742188 0.765625 -2.046875 L 10.453125 -25.53125 C 10.628906 -25.9375 10.875 -26.25 11.1875 -26.46875 C 11.507812 -26.6875 11.875 -26.769531 12.28125 -26.71875 C 12.65625 -26.71875 12.992188 -26.613281 13.296875 -26.40625 C 13.597656 -26.207031 13.816406 -25.914062 13.953125 -25.53125 Z M 7.671875 -10.140625 L 16.53125 -10.140625 L 12.078125 -20.78125 Z M 7.671875 -10.140625 "/></g></g></g><g fill="#ffffff" fill-opacity="1"><g transform="translate(109.999223, 226.158355)"><g><path d="M 17.515625 -20.109375 C 18.046875 -20.109375 18.484375 -19.925781 18.828125 -19.5625 C 19.171875 -19.207031 19.34375 -18.78125 19.34375 -18.28125 L 19.34375 -1.859375 C 19.34375 1.304688 18.46875 3.671875 16.71875 5.234375 C 14.96875 6.804688 12.660156 7.59375 9.796875 7.59375 C 8.859375 7.59375 7.929688 7.503906 7.015625 7.328125 C 6.109375 7.148438 5.363281 6.910156 4.78125 6.609375 C 3.84375 6.179688 3.375 5.597656 3.375 4.859375 C 3.375 4.734375 3.398438 4.570312 3.453125 4.375 C 3.609375 3.9375 3.820312 3.601562 4.09375 3.375 C 4.375 3.15625 4.691406 3.046875 5.046875 3.046875 C 5.253906 3.046875 5.445312 3.082031 5.625 3.15625 C 6.40625 3.507812 7.097656 3.785156 7.703125 3.984375 C 8.316406 4.191406 9.03125 4.296875 9.84375 4.296875 C 13.769531 4.296875 15.734375 2.28125 15.734375 -1.75 L 15.734375 -2.515625 C 15.046875 -1.597656 14.160156 -0.882812 13.078125 -0.375 C 12.003906 0.125 10.773438 0.375 9.390625 0.375 C 7.285156 0.375 5.644531 -0.289062 4.46875 -1.625 C 3.289062 -2.96875 2.703125 -4.734375 2.703125 -6.921875 L 2.703125 -18.28125 C 2.703125 -18.8125 2.863281 -19.25 3.1875 -19.59375 C 3.519531 -19.9375 3.953125 -20.109375 4.484375 -20.109375 C 5.015625 -20.109375 5.453125 -19.925781 5.796875 -19.5625 C 6.140625 -19.207031 6.3125 -18.78125 6.3125 -18.28125 L 6.3125 -7.859375 C 6.3125 -6.191406 6.675781 -4.957031 7.40625 -4.15625 C 8.144531 -3.363281 9.257812 -2.96875 10.75 -2.96875 C 12.195312 -2.96875 13.390625 -3.421875 14.328125 -4.328125 C 15.265625 -5.242188 15.734375 -6.421875 15.734375 -7.859375 L 15.734375 -18.28125 C 15.734375 -18.8125 15.894531 -19.25 16.21875 -19.59375 C 16.550781 -19.9375 16.984375 -20.109375 17.515625 -20.109375 Z M 17.515625 -20.109375 "/></g></g></g><g fill="#ffffff" fill-opacity="1"><g transform="translate(131.996723, 226.158355)"><g><path d="M 11.203125 0.375 C 9.359375 0.375 7.726562 0.117188 6.3125 -0.390625 C 4.894531 -0.910156 3.535156 -1.753906 2.234375 -2.921875 C 1.703125 -3.378906 1.4375 -3.898438 1.4375 -4.484375 C 1.4375 -4.941406 1.613281 -5.351562 1.96875 -5.71875 C 2.332031 -6.082031 2.753906 -6.265625 3.234375 -6.265625 C 3.660156 -6.265625 4.023438 -6.128906 4.328125 -5.859375 C 5.347656 -4.921875 6.394531 -4.226562 7.46875 -3.78125 C 8.539062 -3.332031 9.765625 -3.109375 11.140625 -3.109375 C 12.734375 -3.109375 14.078125 -3.472656 15.171875 -4.203125 C 16.273438 -4.941406 16.828125 -5.867188 16.828125 -6.984375 C 16.804688 -8.304688 16.253906 -9.328125 15.171875 -10.046875 C 14.097656 -10.773438 12.460938 -11.378906 10.265625 -11.859375 C 7.648438 -12.390625 5.640625 -13.257812 4.234375 -14.46875 C 2.828125 -15.6875 2.125 -17.375 2.125 -19.53125 C 2.125 -21.03125 2.515625 -22.34375 3.296875 -23.46875 C 4.085938 -24.59375 5.175781 -25.457031 6.5625 -26.0625 C 7.957031 -26.675781 9.53125 -26.984375 11.28125 -26.984375 C 12.851562 -26.984375 14.335938 -26.726562 15.734375 -26.21875 C 17.128906 -25.707031 18.253906 -25.035156 19.109375 -24.203125 C 19.691406 -23.703125 19.984375 -23.160156 19.984375 -22.578125 C 19.984375 -22.117188 19.8125 -21.710938 19.46875 -21.359375 C 19.132812 -21.003906 18.722656 -20.828125 18.234375 -20.828125 C 17.878906 -20.828125 17.585938 -20.925781 17.359375 -21.125 C 16.703125 -21.78125 15.789062 -22.335938 14.625 -22.796875 C 13.457031 -23.253906 12.34375 -23.484375 11.28125 -23.484375 C 9.582031 -23.484375 8.234375 -23.132812 7.234375 -22.4375 C 6.234375 -21.738281 5.734375 -20.820312 5.734375 -19.6875 C 5.734375 -18.445312 6.234375 -17.492188 7.234375 -16.828125 C 8.234375 -16.171875 9.722656 -15.613281 11.703125 -15.15625 C 13.679688 -14.726562 15.296875 -14.222656 16.546875 -13.640625 C 17.804688 -13.054688 18.773438 -12.242188 19.453125 -11.203125 C 20.140625 -10.171875 20.484375 -8.816406 20.484375 -7.140625 C 20.484375 -5.671875 20.070312 -4.363281 19.25 -3.21875 C 18.425781 -2.082031 17.300781 -1.195312 15.875 -0.5625 C 14.457031 0.0625 12.898438 0.375 11.203125 0.375 Z M 11.203125 0.375 "/></g></g></g><g fill="#ffffff" fill-opacity="1"><g transform="translate(154.108206, 226.158355)"><g><path d="M 20.171875 -10.71875 C 20.148438 -10.257812 19.960938 -9.867188 19.609375 -9.546875 C 19.253906 -9.234375 18.835938 -9.078125 18.359375 -9.078125 L 4.984375 -9.078125 C 5.160156 -7.234375 5.863281 -5.753906 7.09375 -4.640625 C 8.320312 -3.523438 9.820312 -2.96875 11.59375 -2.96875 C 12.800781 -2.96875 13.785156 -3.144531 14.546875 -3.5 C 15.304688 -3.851562 15.976562 -4.304688 16.5625 -4.859375 C 16.945312 -5.085938 17.316406 -5.203125 17.671875 -5.203125 C 18.097656 -5.203125 18.457031 -5.050781 18.75 -4.75 C 19.039062 -4.445312 19.1875 -4.09375 19.1875 -3.6875 C 19.1875 -3.15625 18.9375 -2.671875 18.4375 -2.234375 C 17.695312 -1.503906 16.71875 -0.882812 15.5 -0.375 C 14.289062 0.125 13.050781 0.375 11.78125 0.375 C 9.726562 0.375 7.921875 -0.0507812 6.359375 -0.90625 C 4.804688 -1.769531 3.601562 -2.972656 2.75 -4.515625 C 1.90625 -6.066406 1.484375 -7.816406 1.484375 -9.765625 C 1.484375 -11.890625 1.921875 -13.753906 2.796875 -15.359375 C 3.671875 -16.972656 4.820312 -18.210938 6.25 -19.078125 C 7.675781 -19.941406 9.21875 -20.375 10.875 -20.375 C 12.488281 -20.375 14.003906 -19.953125 15.421875 -19.109375 C 16.847656 -18.273438 17.988281 -17.125 18.84375 -15.65625 C 19.707031 -14.1875 20.148438 -12.539062 20.171875 -10.71875 Z M 10.875 -17.03125 C 9.445312 -17.03125 8.210938 -16.628906 7.171875 -15.828125 C 6.140625 -15.023438 5.457031 -13.789062 5.125 -12.125 L 16.34375 -12.125 L 16.34375 -12.421875 C 16.21875 -13.765625 15.613281 -14.867188 14.53125 -15.734375 C 13.457031 -16.597656 12.238281 -17.03125 10.875 -17.03125 Z M 10.875 -17.03125 "/></g></g></g><g fill="#ffffff" fill-opacity="1"><g transform="translate(175.763779, 226.158355)"><g><path d="M 18.84375 -20.171875 C 19.375 -20.171875 19.8125 -20 20.15625 -19.65625 C 20.5 -19.320312 20.671875 -18.875 20.671875 -18.3125 L 20.671875 -1.828125 C 20.671875 -1.316406 20.5 -0.882812 20.15625 -0.53125 C 19.8125 -0.175781 19.375 0 18.84375 0 C 18.3125 0 17.878906 -0.171875 17.546875 -0.515625 C 17.222656 -0.859375 17.0625 -1.296875 17.0625 -1.828125 L 17.0625 -2.8125 C 16.40625 -1.925781 15.503906 -1.171875 14.359375 -0.546875 C 13.222656 0.0664062 11.992188 0.375 10.671875 0.375 C 8.953125 0.375 7.390625 -0.0664062 5.984375 -0.953125 C 4.578125 -1.835938 3.472656 -3.070312 2.671875 -4.65625 C 1.878906 -6.238281 1.484375 -8.019531 1.484375 -10 C 1.484375 -11.96875 1.878906 -13.742188 2.671875 -15.328125 C 3.472656 -16.910156 4.570312 -18.144531 5.96875 -19.03125 C 7.363281 -19.925781 8.894531 -20.375 10.5625 -20.375 C 11.90625 -20.375 13.148438 -20.09375 14.296875 -19.53125 C 15.453125 -18.976562 16.375 -18.269531 17.0625 -17.40625 L 17.0625 -18.3125 C 17.0625 -18.84375 17.222656 -19.285156 17.546875 -19.640625 C 17.878906 -19.992188 18.3125 -20.171875 18.84375 -20.171875 Z M 11.09375 -2.96875 C 12.28125 -2.96875 13.335938 -3.269531 14.265625 -3.875 C 15.191406 -4.476562 15.914062 -5.3125 16.4375 -6.375 C 16.957031 -7.445312 17.21875 -8.65625 17.21875 -10 C 17.21875 -11.3125 16.957031 -12.5 16.4375 -13.5625 C 15.914062 -14.625 15.191406 -15.46875 14.265625 -16.09375 C 13.335938 -16.71875 12.28125 -17.03125 11.09375 -17.03125 C 9.90625 -17.03125 8.847656 -16.722656 7.921875 -16.109375 C 6.992188 -15.503906 6.269531 -14.671875 5.75 -13.609375 C 5.238281 -12.546875 4.984375 -11.34375 4.984375 -10 C 4.984375 -8.65625 5.238281 -7.445312 5.75 -6.375 C 6.269531 -5.3125 6.992188 -4.476562 7.921875 -3.875 C 8.847656 -3.269531 9.90625 -2.96875 11.09375 -2.96875 Z M 11.09375 -2.96875 "/></g></g></g><g fill="#ffffff" fill-opacity="1"><g transform="translate(199.091014, 226.158355)"><g><path d="M 27.328125 -13.296875 C 27.328125 -10.742188 26.773438 -8.425781 25.671875 -6.34375 C 24.566406 -4.269531 23.035156 -2.628906 21.078125 -1.421875 C 19.128906 -0.222656 16.929688 0.375 14.484375 0.375 C 12.023438 0.375 9.816406 -0.222656 7.859375 -1.421875 C 5.910156 -2.628906 4.382812 -4.269531 3.28125 -6.34375 C 2.1875 -8.425781 1.640625 -10.742188 1.640625 -13.296875 C 1.640625 -15.859375 2.1875 -18.175781 3.28125 -20.25 C 4.382812 -22.332031 5.910156 -23.972656 7.859375 -25.171875 C 9.816406 -26.378906 12.023438 -26.984375 14.484375 -26.984375 C 16.929688 -26.984375 19.128906 -26.378906 21.078125 -25.171875 C 23.035156 -23.972656 24.566406 -22.332031 25.671875 -20.25 C 26.773438 -18.175781 27.328125 -15.859375 27.328125 -13.296875 Z M 23.40625 -13.296875 C 23.40625 -15.203125 23.023438 -16.921875 22.265625 -18.453125 C 21.503906 -19.984375 20.445312 -21.1875 19.09375 -22.0625 C 17.738281 -22.9375 16.203125 -23.375 14.484375 -23.375 C 12.753906 -23.375 11.210938 -22.941406 9.859375 -22.078125 C 8.503906 -21.210938 7.445312 -20.015625 6.6875 -18.484375 C 5.925781 -16.953125 5.546875 -15.222656 5.546875 -13.296875 C 5.546875 -11.398438 5.925781 -9.6875 6.6875 -8.15625 C 7.445312 -6.625 8.503906 -5.421875 9.859375 -4.546875 C 11.210938 -3.671875 12.753906 -3.234375 14.484375 -3.234375 C 16.203125 -3.234375 17.738281 -3.671875 19.09375 -4.546875 C 20.445312 -5.421875 21.503906 -6.625 22.265625 -8.15625 C 23.023438 -9.6875 23.40625 -11.398438 23.40625 -13.296875 Z M 23.40625 -13.296875 "/></g></g></g><g fill="#ffffff" fill-opacity="1"><g transform="translate(228.041097, 226.158355)"><g><path d="M 12.609375 -20.25 C 17.066406 -20.25 19.296875 -17.488281 19.296875 -11.96875 L 19.296875 -1.828125 C 19.296875 -1.316406 19.125 -0.882812 18.78125 -0.53125 C 18.445312 -0.175781 18.015625 0 17.484375 0 C 16.972656 0 16.546875 -0.175781 16.203125 -0.53125 C 15.859375 -0.882812 15.6875 -1.316406 15.6875 -1.828125 L 15.6875 -11.96875 C 15.6875 -15.257812 14.296875 -16.90625 11.515625 -16.90625 C 10.015625 -16.90625 8.769531 -16.429688 7.78125 -15.484375 C 6.800781 -14.535156 6.3125 -13.363281 6.3125 -11.96875 L 6.3125 -1.828125 C 6.3125 -1.316406 6.140625 -0.882812 5.796875 -0.53125 C 5.453125 -0.175781 5.015625 0 4.484375 0 C 3.953125 0 3.519531 -0.171875 3.1875 -0.515625 C 2.863281 -0.859375 2.703125 -1.296875 2.703125 -1.828125 L 2.703125 -26.296875 C 2.703125 -26.804688 2.867188 -27.238281 3.203125 -27.59375 C 3.546875 -27.945312 3.972656 -28.125 4.484375 -28.125 C 5.015625 -28.125 5.453125 -27.945312 5.796875 -27.59375 C 6.140625 -27.238281 6.3125 -26.804688 6.3125 -26.296875 L 6.3125 -16.6875 C 6.945312 -17.664062 7.832031 -18.503906 8.96875 -19.203125 C 10.101562 -19.898438 11.316406 -20.25 12.609375 -20.25 Z M 12.609375 -20.25 "/></g></g></g><g fill="#ffffff" fill-opacity="1"><g transform="translate(250.038608, 226.158355)"><g><path d="M 18.390625 -14.515625 C 19.785156 -14.035156 20.929688 -13.242188 21.828125 -12.140625 C 22.734375 -11.035156 23.1875 -9.597656 23.1875 -7.828125 C 23.1875 -5.015625 22.367188 -3.003906 20.734375 -1.796875 C 19.097656 -0.597656 17.101562 0 14.75 0 L 4.984375 0 C 4.472656 0 4.039062 -0.175781 3.6875 -0.53125 C 3.332031 -0.882812 3.15625 -1.316406 3.15625 -1.828125 L 3.15625 -24.78125 C 3.15625 -25.28125 3.332031 -25.707031 3.6875 -26.0625 C 4.039062 -26.414062 4.472656 -26.59375 4.984375 -26.59375 L 14.75 -26.59375 C 17.050781 -26.59375 18.800781 -26.023438 20 -24.890625 C 21.207031 -23.753906 21.8125 -22.109375 21.8125 -19.953125 C 21.8125 -18.734375 21.519531 -17.648438 20.9375 -16.703125 C 20.351562 -15.753906 19.503906 -15.023438 18.390625 -14.515625 Z M 17.890625 -19.375 C 17.890625 -20.570312 17.566406 -21.476562 16.921875 -22.09375 C 16.273438 -22.71875 15.375 -23.03125 14.21875 -23.03125 L 7.03125 -23.03125 L 7.03125 -15.625 L 14.28125 -15.625 C 15.320312 -15.644531 16.179688 -15.976562 16.859375 -16.625 C 17.546875 -17.269531 17.890625 -18.1875 17.890625 -19.375 Z M 14.703125 -3.5 C 16.097656 -3.5 17.210938 -3.859375 18.046875 -4.578125 C 18.878906 -5.296875 19.296875 -6.378906 19.296875 -7.828125 C 19.296875 -10.640625 17.703125 -12.046875 14.515625 -12.046875 L 7.03125 -12.046875 L 7.03125 -3.5 Z M 14.703125 -3.5 "/></g></g></g><g fill="#ffffff" fill-opacity="1"><g transform="translate(274.847544, 226.158355)"><g><path d="M 20.171875 -10.71875 C 20.148438 -10.257812 19.960938 -9.867188 19.609375 -9.546875 C 19.253906 -9.234375 18.835938 -9.078125 18.359375 -9.078125 L 4.984375 -9.078125 C 5.160156 -7.234375 5.863281 -5.753906 7.09375 -4.640625 C 8.320312 -3.523438 9.820312 -2.96875 11.59375 -2.96875 C 12.800781 -2.96875 13.785156 -3.144531 14.546875 -3.5 C 15.304688 -3.851562 15.976562 -4.304688 16.5625 -4.859375 C 16.945312 -5.085938 17.316406 -5.203125 17.671875 -5.203125 C 18.097656 -5.203125 18.457031 -5.050781 18.75 -4.75 C 19.039062 -4.445312 19.1875 -4.09375 19.1875 -3.6875 C 19.1875 -3.15625 18.9375 -2.671875 18.4375 -2.234375 C 17.695312 -1.503906 16.71875 -0.882812 15.5 -0.375 C 14.289062 0.125 13.050781 0.375 11.78125 0.375 C 9.726562 0.375 7.921875 -0.0507812 6.359375 -0.90625 C 4.804688 -1.769531 3.601562 -2.972656 2.75 -4.515625 C 1.90625 -6.066406 1.484375 -7.816406 1.484375 -9.765625 C 1.484375 -11.890625 1.921875 -13.753906 2.796875 -15.359375 C 3.671875 -16.972656 4.820312 -18.210938 6.25 -19.078125 C 7.675781 -19.941406 9.21875 -20.375 10.875 -20.375 C 12.488281 -20.375 14.003906 -19.953125 15.421875 -19.109375 C 16.847656 -18.273438 17.988281 -17.125 18.84375 -15.65625 C 19.707031 -14.1875 20.148438 -12.539062 20.171875 -10.71875 Z M 10.875 -17.03125 C 9.445312 -17.03125 8.210938 -16.628906 7.171875 -15.828125 C 6.140625 -15.023438 5.457031 -13.789062 5.125 -12.125 L 16.34375 -12.125 L 16.34375 -12.421875 C 16.21875 -13.765625 15.613281 -14.867188 14.53125 -15.734375 C 13.457031 -16.597656 12.238281 -17.03125 10.875 -17.03125 Z M 10.875 -17.03125 "/></g></g></g><g fill="#ffffff" fill-opacity="1"><g transform="translate(296.503129, 226.158355)"><g><path d="M 20.171875 -10.71875 C 20.148438 -10.257812 19.960938 -9.867188 19.609375 -9.546875 C 19.253906 -9.234375 18.835938 -9.078125 18.359375 -9.078125 L 4.984375 -9.078125 C 5.160156 -7.234375 5.863281 -5.753906 7.09375 -4.640625 C 8.320312 -3.523438 9.820312 -2.96875 11.59375 -2.96875 C 12.800781 -2.96875 13.785156 -3.144531 14.546875 -3.5 C 15.304688 -3.851562 15.976562 -4.304688 16.5625 -4.859375 C 16.945312 -5.085938 17.316406 -5.203125 17.671875 -5.203125 C 18.097656 -5.203125 18.457031 -5.050781 18.75 -4.75 C 19.039062 -4.445312 19.1875 -4.09375 19.1875 -3.6875 C 19.1875 -3.15625 18.9375 -2.671875 18.4375 -2.234375 C 17.695312 -1.503906 16.71875 -0.882812 15.5 -0.375 C 14.289062 0.125 13.050781 0.375 11.78125 0.375 C 9.726562 0.375 7.921875 -0.0507812 6.359375 -0.90625 C 4.804688 -1.769531 3.601562 -2.972656 2.75 -4.515625 C 1.90625 -6.066406 1.484375 -7.816406 1.484375 -9.765625 C 1.484375 -11.890625 1.921875 -13.753906 2.796875 -15.359375 C 3.671875 -16.972656 4.820312 -18.210938 6.25 -19.078125 C 7.675781 -19.941406 9.21875 -20.375 10.875 -20.375 C 12.488281 -20.375 14.003906 -19.953125 15.421875 -19.109375 C 16.847656 -18.273438 17.988281 -17.125 18.84375 -15.65625 C 19.707031 -14.1875 20.148438 -12.539062 20.171875 -10.71875 Z M 10.875 -17.03125 C 9.445312 -17.03125 8.210938 -16.628906 7.171875 -15.828125 C 6.140625 -15.023438 5.457031 -13.789062 5.125 -12.125 L 16.34375 -12.125 L 16.34375 -12.421875 C 16.21875 -13.765625 15.613281 -14.867188 14.53125 -15.734375 C 13.457031 -16.597656 12.238281 -17.03125 10.875 -17.03125 Z M 10.875 -17.03125 "/></g></g></g><g fill="#ffffff" fill-opacity="1"><g transform="translate(318.15869, 226.158355)"><g><path d="M 8.46875 -26.59375 C 8.976562 -26.570312 9.390625 -26.390625 9.703125 -26.046875 C 10.023438 -25.703125 10.1875 -25.28125 10.1875 -24.78125 L 10.1875 -1.828125 C 10.1875 -1.316406 9.992188 -0.882812 9.609375 -0.53125 C 9.234375 -0.175781 8.765625 0 8.203125 0 C 7.648438 0 7.195312 -0.175781 6.84375 -0.53125 C 6.488281 -0.882812 6.3125 -1.316406 6.3125 -1.828125 L 6.3125 -21.578125 L 2.96875 -19.5625 C 2.6875 -19.382812 2.367188 -19.296875 2.015625 -19.296875 C 1.503906 -19.296875 1.070312 -19.492188 0.71875 -19.890625 C 0.363281 -20.285156 0.1875 -20.710938 0.1875 -21.171875 C 0.1875 -21.472656 0.273438 -21.757812 0.453125 -22.03125 C 0.628906 -22.3125 0.859375 -22.539062 1.140625 -22.71875 L 7.140625 -26.328125 C 7.492188 -26.503906 7.9375 -26.59375 8.46875 -26.59375 Z M 8.46875 -26.59375 "/></g></g></g><g fill="#ffffff" fill-opacity="1"><g transform="translate(331.493963, 226.158355)"><g><path d="M 20.375 -10.9375 C 20.851562 -10.9375 21.253906 -10.78125 21.578125 -10.46875 C 21.910156 -10.15625 22.078125 -9.753906 22.078125 -9.265625 C 22.078125 -8.785156 21.910156 -8.394531 21.578125 -8.09375 C 21.253906 -7.789062 20.851562 -7.640625 20.375 -7.640625 L 18.359375 -7.640625 L 18.359375 -1.828125 C 18.359375 -1.316406 18.179688 -0.882812 17.828125 -0.53125 C 17.472656 -0.175781 17.039062 0 16.53125 0 C 16.019531 0 15.59375 -0.175781 15.25 -0.53125 C 14.914062 -0.882812 14.75 -1.316406 14.75 -1.828125 L 14.75 -7.640625 L 4.328125 -7.640625 C 3.867188 -7.640625 3.457031 -7.816406 3.09375 -8.171875 C 2.726562 -8.523438 2.546875 -8.941406 2.546875 -9.421875 C 2.546875 -9.878906 2.6875 -10.285156 2.96875 -10.640625 L 15.09375 -25.875 C 15.269531 -26.101562 15.488281 -26.28125 15.75 -26.40625 C 16.019531 -26.53125 16.289062 -26.59375 16.5625 -26.59375 C 17.070312 -26.59375 17.5 -26.414062 17.84375 -26.0625 C 18.1875 -25.707031 18.359375 -25.28125 18.359375 -24.78125 L 18.359375 -10.9375 Z M 7.328125 -10.9375 L 14.75 -10.9375 L 14.75 -20.4375 Z M 7.328125 -10.9375 "/></g></g></g></svg>