<svg xmlns="http://www.w3.org/2000/svg" xmlns:xlink="http://www.w3.org/1999/xlink" width="500" zoomAndPan="magnify" viewBox="0 0 375 374.999991" height="500" preserveAspectRatio="xMidYMid meet" version="1.0"><defs><g/><clipPath id="8f4de675d4"><path d="M 119.726562 67.832031 L 255.542969 67.832031 L 255.542969 203.644531 L 119.726562 203.644531 Z M 119.726562 67.832031 " clip-rule="nonzero"/></clipPath><clipPath id="8baf00f049"><path d="M 246.457031 203.375 L 128.542969 203.375 C 123.6875 203.375 119.726562 199.417969 119.726562 194.5625 L 119.726562 76.644531 C 119.726562 71.789062 123.6875 67.832031 128.542969 67.832031 L 246.457031 67.832031 C 251.3125 67.832031 255.273438 71.789062 255.273438 76.644531 L 255.273438 194.5625 C 255.273438 199.417969 251.3125 203.375 246.457031 203.375 " clip-rule="nonzero"/></clipPath><clipPath id="c572691f81"><path d="M 144.808594 92.914062 L 230 92.914062 L 230 178 L 144.808594 178 Z M 144.808594 92.914062 " clip-rule="nonzero"/></clipPath></defs><rect x="-37.5" width="450" fill="#ffffff" y="-37.499999" height="449.999989" fill-opacity="1"/><rect x="-37.5" width="450" fill="#ffffff" y="-37.499999" height="449.999989" fill-opacity="1"/><rect x="-37.5" width="450" fill="#ffffff" y="-37.499999" height="449.999989" fill-opacity="1"/><g clip-path="url(#8f4de675d4)"><g clip-path="url(#8baf00f049)"><path fill="#38b6ff" d="M 119.726562 67.832031 L 255.542969 67.832031 L 255.542969 203.644531 L 119.726562 203.644531 Z M 119.726562 67.832031 " fill-opacity="1" fill-rule="nonzero"/></g></g><g clip-path="url(#c572691f81)"><path fill="#ffffff" d="M 204.066406 114.714844 L 204.066406 97.144531 C 204.066406 96.867188 204.039062 96.59375 203.984375 96.320312 C 203.929688 96.046875 203.851562 95.78125 203.746094 95.527344 C 203.636719 95.269531 203.507812 95.023438 203.355469 94.792969 C 203.199219 94.5625 203.023438 94.347656 202.828125 94.152344 C 202.632812 93.957031 202.417969 93.78125 202.1875 93.625 C 201.953125 93.472656 201.710938 93.339844 201.453125 93.234375 C 201.199219 93.128906 200.933594 93.046875 200.660156 92.996094 C 200.386719 92.941406 200.113281 92.914062 199.835938 92.914062 L 149.042969 92.914062 C 148.765625 92.914062 148.488281 92.941406 148.214844 92.996094 C 147.945312 93.046875 147.679688 93.128906 147.421875 93.234375 C 147.164062 93.339844 146.921875 93.472656 146.691406 93.625 C 146.460938 93.78125 146.246094 93.957031 146.050781 94.152344 C 145.851562 94.347656 145.675781 94.5625 145.523438 94.792969 C 145.367188 95.023438 145.238281 95.269531 145.132812 95.527344 C 145.027344 95.78125 144.945312 96.046875 144.890625 96.320312 C 144.835938 96.59375 144.808594 96.867188 144.808594 97.144531 L 144.808594 147.9375 C 144.808594 148.214844 144.835938 148.492188 144.890625 148.761719 C 144.945312 149.035156 145.027344 149.300781 145.132812 149.558594 C 145.238281 149.8125 145.367188 150.058594 145.523438 150.289062 C 145.675781 150.519531 145.851562 150.734375 146.050781 150.929688 C 146.246094 151.128906 146.460938 151.300781 146.691406 151.457031 C 146.921875 151.613281 147.164062 151.742188 147.421875 151.847656 C 147.679688 151.953125 147.945312 152.035156 148.214844 152.089844 C 148.488281 152.144531 148.765625 152.171875 149.042969 152.171875 L 166.613281 152.171875 C 166.800781 153.101562 167.035156 154.023438 167.308594 154.933594 C 167.578125 155.84375 167.894531 156.742188 168.246094 157.625 C 168.601562 158.503906 168.992188 159.371094 169.421875 160.21875 C 169.855469 161.066406 170.324219 161.890625 170.828125 162.695312 C 171.335938 163.5 171.875 164.28125 172.449219 165.039062 C 173.027344 165.796875 173.632812 166.523438 174.277344 167.226562 C 174.917969 167.929688 175.585938 168.601562 176.289062 169.242188 C 176.992188 169.882812 177.71875 170.492188 178.476562 171.070312 C 179.230469 171.644531 180.011719 172.1875 180.816406 172.691406 C 181.621094 173.199219 182.449219 173.667969 183.292969 174.097656 C 184.140625 174.53125 185.007812 174.925781 185.886719 175.277344 C 186.769531 175.632812 187.667969 175.945312 188.578125 176.21875 C 189.488281 176.492188 190.410156 176.726562 191.339844 176.917969 C 192.273438 177.109375 193.210938 177.257812 194.152344 177.363281 C 195.097656 177.46875 196.046875 177.535156 196.996094 177.554688 C 197.949219 177.578125 198.898438 177.554688 199.84375 177.492188 C 200.792969 177.429688 201.738281 177.320312 202.675781 177.171875 C 203.617188 177.023438 204.546875 176.835938 205.46875 176.601562 C 206.390625 176.371094 207.300781 176.097656 208.195312 175.785156 C 209.09375 175.46875 209.976562 175.117188 210.839844 174.722656 C 211.707031 174.328125 212.554688 173.898438 213.378906 173.429688 C 214.207031 172.960938 215.011719 172.457031 215.792969 171.914062 C 216.574219 171.371094 217.328125 170.796875 218.058594 170.1875 C 218.789062 169.578125 219.488281 168.9375 220.164062 168.265625 C 220.835938 167.59375 221.476562 166.890625 222.085938 166.164062 C 222.695312 165.433594 223.269531 164.675781 223.808594 163.894531 C 224.351562 163.113281 224.855469 162.308594 225.328125 161.484375 C 225.796875 160.65625 226.226562 159.808594 226.621094 158.945312 C 227.011719 158.078125 227.367188 157.199219 227.679688 156.300781 C 227.992188 155.402344 228.265625 154.492188 228.5 153.570312 C 228.730469 152.648438 228.921875 151.71875 229.070312 150.78125 C 229.21875 149.839844 229.324219 148.898438 229.390625 147.949219 C 229.453125 147 229.472656 146.050781 229.453125 145.101562 C 229.429688 144.148438 229.367188 143.203125 229.261719 142.257812 C 229.152344 141.3125 229.003906 140.375 228.8125 139.445312 C 228.621094 138.511719 228.390625 137.589844 228.117188 136.679688 C 227.84375 135.769531 227.527344 134.875 227.175781 133.992188 C 226.820312 133.109375 226.429688 132.246094 225.996094 131.398438 C 225.5625 130.550781 225.09375 129.726562 224.589844 128.921875 C 224.082031 128.117188 223.542969 127.335938 222.964844 126.578125 C 222.390625 125.824219 221.78125 125.09375 221.140625 124.394531 C 220.496094 123.691406 219.824219 123.019531 219.125 122.378906 C 218.421875 121.738281 217.691406 121.128906 216.9375 120.554688 C 216.179688 119.976562 215.398438 119.4375 214.59375 118.933594 C 213.789062 118.425781 212.960938 117.957031 212.113281 117.527344 C 211.265625 117.097656 210.402344 116.703125 209.519531 116.351562 C 208.636719 115.996094 207.742188 115.683594 206.832031 115.410156 C 205.917969 115.136719 205 114.90625 204.066406 114.714844 Z M 204.066406 114.714844 " fill-opacity="1" fill-rule="nonzero"/></g><path fill="#38b6ff" d="M 204.066406 114.710938 L 204.066406 147.9375 C 204.066406 148.214844 204.039062 148.492188 203.984375 148.761719 C 203.929688 149.035156 203.851562 149.300781 203.746094 149.558594 C 203.636719 149.8125 203.507812 150.058594 203.355469 150.289062 C 203.199219 150.519531 203.023438 150.734375 202.828125 150.929688 C 202.632812 151.128906 202.417969 151.300781 202.1875 151.457031 C 201.953125 151.613281 201.710938 151.742188 201.453125 151.847656 C 201.199219 151.953125 200.933594 152.035156 200.660156 152.089844 C 200.386719 152.144531 200.113281 152.171875 199.835938 152.171875 L 166.609375 152.171875 C 166.179688 150.074219 165.96875 147.960938 165.972656 145.820312 C 165.972656 144.78125 166.023438 143.746094 166.125 142.710938 C 166.226562 141.675781 166.378906 140.648438 166.582031 139.628906 C 166.785156 138.609375 167.039062 137.601562 167.339844 136.605469 C 167.640625 135.613281 167.992188 134.632812 168.390625 133.671875 C 168.789062 132.710938 169.230469 131.773438 169.722656 130.855469 C 170.210938 129.941406 170.746094 129.050781 171.324219 128.183594 C 171.902344 127.320312 172.519531 126.484375 173.179688 125.683594 C 173.839844 124.878906 174.535156 124.109375 175.269531 123.375 C 176.007812 122.640625 176.777344 121.941406 177.578125 121.28125 C 178.382812 120.621094 179.21875 120.003906 180.082031 119.425781 C 180.945312 118.847656 181.835938 118.316406 182.753906 117.824219 C 183.671875 117.335938 184.609375 116.890625 185.570312 116.492188 C 186.53125 116.09375 187.507812 115.746094 188.503906 115.441406 C 189.496094 115.140625 190.503906 114.890625 191.523438 114.6875 C 192.542969 114.484375 193.570312 114.332031 194.605469 114.230469 C 195.640625 114.128906 196.679688 114.078125 197.71875 114.078125 C 199.855469 114.070312 201.972656 114.285156 204.066406 114.710938 Z M 204.066406 114.710938 " fill-opacity="1" fill-rule="nonzero"/><g fill="#3b3b3b" fill-opacity="1"><g transform="translate(14.025302, 267.116102)"><g><path d="M 52.226562 0 L 46.207031 -39.019531 L 37.734375 -39.019531 L 27.144531 -15.050781 L 16.554688 -39.019531 L 8.136719 -39.019531 L 2.007812 0 L 10.589844 0 L 14.4375 -25.417969 L 26.085938 -0.0546875 L 28.148438 -0.0546875 L 39.796875 -25.417969 L 43.644531 0 Z M 52.226562 0 "/></g></g></g><g fill="#3b3b3b" fill-opacity="1"><g transform="translate(68.366275, 267.116102)"><g><path d="M 28.425781 -30.097656 L 27.589844 -27.257812 C 24.972656 -29.542969 21.570312 -30.9375 17.667969 -30.9375 C 8.640625 -30.9375 1.894531 -24.136719 1.894531 -15.050781 C 1.894531 -5.964844 8.640625 0.890625 17.667969 0.890625 C 21.515625 0.890625 24.859375 -0.445312 27.425781 -2.730469 L 28.148438 0 L 34.503906 0 L 34.503906 -30.097656 Z M 18.339844 -6.800781 C 13.601562 -6.800781 10.144531 -10.367188 10.144531 -15.050781 C 10.144531 -19.789062 13.601562 -23.300781 18.339844 -23.300781 C 23.078125 -23.300781 26.53125 -19.789062 26.53125 -15.050781 C 26.53125 -10.3125 23.078125 -6.800781 18.339844 -6.800781 Z M 18.339844 -6.800781 "/></g></g></g><g fill="#3b3b3b" fill-opacity="1"><g transform="translate(106.822965, 267.116102)"><g><path d="M 18.617188 -7.246094 C 15.605469 -7.246094 13.933594 -8.917969 13.933594 -11.816406 L 13.933594 -23.523438 L 22.128906 -23.523438 L 22.128906 -30.097656 L 13.824219 -30.097656 L 13.824219 -37.902344 L 12.261719 -37.902344 L 0.390625 -25.304688 L 0.390625 -23.523438 L 5.796875 -23.523438 L 5.796875 -10.703125 C 5.796875 -4.070312 9.867188 0 16.5 0 L 22.296875 0 L 22.296875 -7.246094 Z M 18.617188 -7.246094 "/></g></g></g><g fill="#3b3b3b" fill-opacity="1"><g transform="translate(130.788723, 267.116102)"><g><path d="M 21.125 -30.769531 C 17.503906 -30.769531 14.324219 -29.429688 12.039062 -27.257812 L 12.039062 -40.914062 L 3.902344 -40.914062 L 3.902344 0 L 12.039062 0 L 12.039062 -15.773438 C 12.039062 -20.679688 14.714844 -23.632812 18.785156 -23.632812 C 22.40625 -23.632812 24.023438 -21.402344 24.023438 -16.890625 L 24.023438 0 L 32.160156 0 L 32.160156 -18.28125 C 32.160156 -25.917969 27.925781 -30.769531 21.125 -30.769531 Z M 21.125 -30.769531 "/></g></g></g><g fill="#3b3b3b" fill-opacity="1"><g transform="translate(166.514428, 267.116102)"><g/></g></g><g fill="#3b3b3b" fill-opacity="1"><g transform="translate(179.834938, 267.116102)"><g><path d="M 30.324219 0 L 39.519531 0 L 23.746094 -39.019531 L 15.773438 -39.019531 L 0.445312 0 L 9.421875 0 L 12.09375 -7.359375 L 27.589844 -7.359375 Z M 19.84375 -28.707031 L 24.972656 -14.714844 L 14.714844 -14.714844 Z M 19.84375 -28.707031 "/></g></g></g><g fill="#3b3b3b" fill-opacity="1"><g transform="translate(219.852178, 267.116102)"><g><path d="M 19.285156 -30.265625 C 15.382812 -30.265625 12.707031 -29.039062 10.535156 -26.363281 L 9.085938 -30.097656 L 3.902344 -30.097656 L 3.902344 0 L 12.039062 0 L 12.039062 -15.605469 C 12.039062 -20.511719 13.824219 -22.574219 18.394531 -22.574219 L 21.960938 -22.574219 L 21.960938 -30.265625 Z M 19.285156 -30.265625 "/></g></g></g><g fill="#3b3b3b" fill-opacity="1"><g transform="translate(242.53606, 267.116102)"><g><path d="M 18.617188 -7.246094 C 15.605469 -7.246094 13.933594 -8.917969 13.933594 -11.816406 L 13.933594 -23.523438 L 22.128906 -23.523438 L 22.128906 -30.097656 L 13.824219 -30.097656 L 13.824219 -37.902344 L 12.261719 -37.902344 L 0.390625 -25.304688 L 0.390625 -23.523438 L 5.796875 -23.523438 L 5.796875 -10.703125 C 5.796875 -4.070312 9.867188 0 16.5 0 L 22.296875 0 L 22.296875 -7.246094 Z M 18.617188 -7.246094 "/></g></g></g><g fill="#3b3b3b" fill-opacity="1"><g transform="translate(266.501817, 267.116102)"><g/></g></g><g fill="#3b3b3b" fill-opacity="1"><g transform="translate(279.822327, 267.116102)"><g><path d="M 16.441406 -7.46875 C 25.140625 -17.445312 27.089844 -21.628906 27.089844 -26.140625 C 27.089844 -33 21.960938 -37.792969 14.660156 -37.792969 C 7.246094 -37.792969 2.507812 -32.886719 2.507812 -26.085938 L 2.507812 -25.25 L 10.480469 -25.25 L 10.480469 -25.976562 C 10.480469 -28.59375 12.152344 -30.378906 14.828125 -30.378906 C 17.335938 -30.378906 19.0625 -28.648438 19.0625 -26.085938 C 19.0625 -22.242188 17.054688 -19.339844 1.785156 -1.726562 L 1.785156 0 L 27.757812 0 L 27.757812 -7.46875 Z M 16.441406 -7.46875 "/></g></g></g><g fill="#3b3b3b" fill-opacity="1"><g transform="translate(310.36473, 267.116102)"><g><path d="M 3.289062 0 L 11.929688 0 L 11.929688 -8.695312 L 3.289062 -8.695312 Z M 3.289062 0 "/></g></g></g><g fill="#3b3b3b" fill-opacity="1"><g transform="translate(325.635954, 267.116102)"><g><path d="M 17.613281 0.667969 C 26.867188 0.667969 32.664062 -6.746094 32.664062 -18.5625 C 32.664062 -30.378906 26.921875 -37.734375 17.613281 -37.734375 C 8.359375 -37.734375 2.621094 -30.378906 2.621094 -18.5625 C 2.621094 -6.746094 8.417969 0.667969 17.613281 0.667969 Z M 17.613281 -6.746094 C 13.097656 -6.746094 10.644531 -10.925781 10.644531 -18.5625 C 10.644531 -26.140625 13.097656 -30.324219 17.613281 -30.324219 C 22.128906 -30.324219 24.636719 -26.085938 24.636719 -18.503906 C 24.636719 -10.871094 22.183594 -6.746094 17.613281 -6.746094 Z M 17.613281 -6.746094 "/></g></g></g><g fill="#3b3b3b" fill-opacity="1"><g transform="translate(128.823563, 303.373516)"><g><path d="M 3.515625 0.15625 C 5.148438 0.15625 6.5 -0.664062 6.5 -2.367188 C 6.5 -4.132812 4.992188 -4.507812 3.796875 -4.808594 C 2.953125 -5.011719 2.277344 -5.183594 2.277344 -5.734375 C 2.277344 -6.253906 2.828125 -6.488281 3.378906 -6.488281 C 4.023438 -6.488281 4.585938 -6.171875 4.585938 -5.484375 L 6.261719 -5.484375 C 6.261719 -7.0625 5.238281 -8.03125 3.425781 -8.03125 C 1.679688 -8.03125 0.5625 -7.175781 0.5625 -5.667969 C 0.5625 -3.964844 2.003906 -3.617188 3.199219 -3.324219 C 4.054688 -3.132812 4.777344 -2.960938 4.777344 -2.34375 C 4.777344 -1.757812 4.144531 -1.417969 3.503906 -1.417969 C 2.804688 -1.417969 2.175781 -1.792969 2.175781 -2.546875 L 0.449219 -2.546875 C 0.449219 -0.855469 1.699219 0.15625 3.515625 0.15625 Z M 3.515625 0.15625 "/></g></g></g><g fill="#3b3b3b" fill-opacity="1"><g transform="translate(138.408735, 303.373516)"><g><path d="M 5.578125 -7.886719 L 5.578125 -4.84375 L 2.601562 -4.84375 L 2.601562 -7.886719 L 0.902344 -7.886719 L 0.902344 0 L 2.601562 0 L 2.601562 -3.253906 L 5.578125 -3.253906 L 5.578125 0 L 7.277344 0 L 7.277344 -7.886719 Z M 5.578125 -7.886719 "/></g></g></g><g fill="#3b3b3b" fill-opacity="1"><g transform="translate(149.210163, 303.373516)"><g><path d="M 6.128906 0 L 7.988281 0 L 4.800781 -7.886719 L 3.1875 -7.886719 L 0.0898438 0 L 1.902344 0 L 2.445312 -1.488281 L 5.578125 -1.488281 Z M 4.011719 -5.800781 L 5.046875 -2.972656 L 2.972656 -2.972656 Z M 4.011719 -5.800781 "/></g></g></g><g fill="#3b3b3b" fill-opacity="1"><g transform="translate(159.91024, 303.373516)"><g><path d="M 3.929688 -7.886719 L 0.902344 -7.886719 L 0.902344 0 L 2.601562 0 L 2.601562 -2.457031 L 3.929688 -2.457031 C 5.519531 -2.457031 6.714844 -3.617188 6.714844 -5.171875 C 6.714844 -6.726562 5.507812 -7.886719 3.929688 -7.886719 Z M 3.851562 -4.03125 L 2.601562 -4.03125 L 2.601562 -6.296875 L 3.851562 -6.296875 C 4.527344 -6.296875 4.992188 -5.824219 4.992188 -5.171875 C 4.992188 -4.515625 4.527344 -4.03125 3.851562 -4.03125 Z M 3.851562 -4.03125 "/></g></g></g><g fill="#3b3b3b" fill-opacity="1"><g transform="translate(169.529196, 303.373516)"><g><path d="M 2.601562 -1.578125 L 2.601562 -3.199219 L 5.339844 -3.199219 L 5.339844 -4.742188 L 2.601562 -4.742188 L 2.601562 -6.308594 L 5.632812 -6.308594 L 5.632812 -7.886719 L 0.902344 -7.886719 L 0.902344 0 L 5.757812 0 L 5.757812 -1.578125 Z M 2.601562 -1.578125 "/></g></g></g><g fill="#3b3b3b" fill-opacity="1"><g transform="translate(178.438664, 303.373516)"><g/></g></g><g fill="#3b3b3b" fill-opacity="1"><g transform="translate(183.744385, 303.373516)"><g><path d="M 3.929688 -7.886719 L 0.902344 -7.886719 L 0.902344 0 L 2.601562 0 L 2.601562 -2.457031 L 3.929688 -2.457031 C 5.519531 -2.457031 6.714844 -3.617188 6.714844 -5.171875 C 6.714844 -6.726562 5.507812 -7.886719 3.929688 -7.886719 Z M 3.851562 -4.03125 L 2.601562 -4.03125 L 2.601562 -6.296875 L 3.851562 -6.296875 C 4.527344 -6.296875 4.992188 -5.824219 4.992188 -5.171875 C 4.992188 -4.515625 4.527344 -4.03125 3.851562 -4.03125 Z M 3.851562 -4.03125 "/></g></g></g><g fill="#3b3b3b" fill-opacity="1"><g transform="translate(193.363338, 303.373516)"><g><path d="M 5.238281 0 L 7.140625 0 L 5.394531 -2.972656 C 6.273438 -3.402344 6.835938 -4.234375 6.835938 -5.273438 C 6.835938 -6.792969 5.65625 -7.886719 4.078125 -7.886719 L 0.902344 -7.886719 L 0.902344 0 L 2.601562 0 L 2.601562 -2.679688 L 3.695312 -2.679688 Z M 2.601562 -6.308594 L 3.964844 -6.308594 C 4.6875 -6.308594 5.101562 -5.867188 5.101562 -5.285156 C 5.101562 -4.6875 4.6875 -4.257812 3.964844 -4.257812 L 2.601562 -4.257812 Z M 2.601562 -6.308594 "/></g></g></g><g fill="#3b3b3b" fill-opacity="1"><g transform="translate(203.421493, 303.373516)"><g><path d="M 0.902344 0 L 2.601562 0 L 2.601562 -7.886719 L 0.902344 -7.886719 Z M 0.902344 0 "/></g></g></g><g fill="#3b3b3b" fill-opacity="1"><g transform="translate(209.549323, 303.373516)"><g><path d="M 5.890625 -7.886719 L 5.890625 -3.074219 L 2.433594 -7.886719 L 0.902344 -7.886719 L 0.902344 0 L 2.570312 0 L 2.570312 -4.921875 L 6.140625 0 L 7.570312 0 L 7.570312 -7.886719 Z M 5.890625 -7.886719 "/></g></g></g><g fill="#3b3b3b" fill-opacity="1"><g transform="translate(220.632295, 303.373516)"><g><path d="M 6.332031 -7.886719 L 0.238281 -7.886719 L 0.238281 -6.296875 L 2.433594 -6.296875 L 2.433594 0 L 4.132812 0 L 4.132812 -6.296875 L 6.332031 -6.296875 Z M 6.332031 -7.886719 "/></g></g></g><g fill="#3b3b3b" fill-opacity="1"><g transform="translate(229.823308, 303.373516)"><g><path d="M 2.601562 -1.578125 L 2.601562 -3.199219 L 5.339844 -3.199219 L 5.339844 -4.742188 L 2.601562 -4.742188 L 2.601562 -6.308594 L 5.632812 -6.308594 L 5.632812 -7.886719 L 0.902344 -7.886719 L 0.902344 0 L 5.757812 0 L 5.757812 -1.578125 Z M 2.601562 -1.578125 "/></g></g></g><g fill="#3b3b3b" fill-opacity="1"><g transform="translate(238.732773, 303.373516)"><g><path d="M 5.238281 0 L 7.140625 0 L 5.394531 -2.972656 C 6.273438 -3.402344 6.835938 -4.234375 6.835938 -5.273438 C 6.835938 -6.792969 5.65625 -7.886719 4.078125 -7.886719 L 0.902344 -7.886719 L 0.902344 0 L 2.601562 0 L 2.601562 -2.679688 L 3.695312 -2.679688 Z M 2.601562 -6.308594 L 3.964844 -6.308594 C 4.6875 -6.308594 5.101562 -5.867188 5.101562 -5.285156 C 5.101562 -4.6875 4.6875 -4.257812 3.964844 -4.257812 L 2.601562 -4.257812 Z M 2.601562 -6.308594 "/></g></g></g></svg>