<svg xmlns="http://www.w3.org/2000/svg" xmlns:xlink="http://www.w3.org/1999/xlink" width="500" zoomAndPan="magnify" viewBox="0 0 375 374.999991" height="500" preserveAspectRatio="xMidYMid meet" version="1.0"><defs><g/><clipPath id="23a2560a2a"><path d="M 112.5 149 L 156 149 L 156 225.785156 L 112.5 225.785156 Z M 112.5 149 " clip-rule="nonzero"/></clipPath><clipPath id="75283a7353"><path d="M 166 112 L 209 112 L 209 225.785156 L 166 225.785156 Z M 166 112 " clip-rule="nonzero"/></clipPath><clipPath id="580a5733db"><path d="M 219 79.535156 L 262.5 79.535156 L 262.5 225.785156 L 219 225.785156 Z M 219 79.535156 " clip-rule="nonzero"/></clipPath></defs><rect x="-37.5" width="450" fill="#ffffff" y="-37.499999" height="449.999989" fill-opacity="1"/><rect x="-37.5" width="450" fill="#ffffff" y="-37.499999" height="449.999989" fill-opacity="1"/><rect x="-37.5" width="450" fill="#ffffff" y="-37.499999" height="449.999989" fill-opacity="1"/><path fill="#000000" d="M 118.550781 154.957031 C 118.191406 154.957031 117.898438 155.25 117.898438 155.609375 L 117.898438 219.964844 C 117.898438 220.324219 118.191406 220.613281 118.550781 220.613281 L 149.683594 220.613281 C 150.039062 220.613281 150.332031 220.324219 150.332031 219.964844 L 150.332031 155.609375 C 150.332031 155.25 150.039062 154.957031 149.683594 154.957031 Z M 118.550781 154.957031 " fill-opacity="1" fill-rule="nonzero"/><g clip-path="url(#23a2560a2a)"><path fill="#000000" d="M 118.550781 149.804688 C 115.355469 149.804688 112.753906 152.410156 112.753906 155.609375 L 112.753906 219.964844 C 112.753906 223.164062 115.355469 225.765625 118.550781 225.765625 L 149.683594 225.765625 C 152.878906 225.765625 155.480469 223.164062 155.480469 219.964844 L 155.480469 155.609375 C 155.480469 152.410156 152.878906 149.804688 149.683594 149.804688 Z M 150.332031 155.609375 L 150.332031 219.964844 C 150.332031 220.320312 150.039062 220.613281 149.679688 220.613281 L 118.550781 220.613281 C 118.191406 220.613281 117.898438 220.320312 117.898438 219.964844 L 117.898438 155.609375 C 117.898438 155.25 118.191406 154.957031 118.550781 154.957031 L 149.679688 154.957031 C 150.039062 154.957031 150.332031 155.25 150.332031 155.609375 Z M 150.332031 155.609375 " fill-opacity="1" fill-rule="nonzero"/></g><path fill="#000000" d="M 203.046875 117.605469 L 171.914062 117.605469 C 171.558594 117.605469 171.265625 117.898438 171.265625 118.257812 L 171.265625 219.964844 C 171.265625 220.324219 171.558594 220.613281 171.914062 220.613281 L 203.046875 220.613281 C 203.40625 220.613281 203.699219 220.324219 203.699219 219.964844 L 203.699219 118.257812 C 203.699219 117.898438 203.40625 117.605469 203.046875 117.605469 Z M 203.046875 117.605469 " fill-opacity="1" fill-rule="nonzero"/><g clip-path="url(#75283a7353)"><path fill="#000000" d="M 203.046875 112.453125 L 171.917969 112.453125 C 168.71875 112.453125 166.121094 115.054688 166.121094 118.257812 L 166.121094 219.964844 C 166.121094 223.164062 168.71875 225.765625 171.917969 225.765625 L 203.046875 225.765625 C 206.246094 225.765625 208.84375 223.164062 208.84375 219.964844 L 208.84375 118.257812 C 208.84375 115.054688 206.246094 112.453125 203.046875 112.453125 Z M 203.699219 219.964844 C 203.699219 220.320312 203.40625 220.613281 203.046875 220.613281 L 171.917969 220.613281 C 171.558594 220.613281 171.265625 220.320312 171.265625 219.964844 L 171.265625 118.257812 C 171.265625 117.898438 171.558594 117.605469 171.917969 117.605469 L 203.046875 117.605469 C 203.40625 117.605469 203.699219 117.898438 203.699219 118.257812 Z M 203.699219 219.964844 " fill-opacity="1" fill-rule="nonzero"/></g><path fill="#000000" d="M 225.28125 220.613281 L 256.414062 220.613281 C 256.773438 220.613281 257.0625 220.320312 257.0625 219.960938 L 257.0625 85.339844 C 257.0625 84.980469 256.773438 84.6875 256.414062 84.6875 L 225.28125 84.6875 C 224.921875 84.6875 224.632812 84.980469 224.632812 85.339844 L 224.632812 219.964844 C 224.632812 220.320312 224.925781 220.613281 225.28125 220.613281 Z M 225.28125 220.613281 " fill-opacity="1" fill-rule="nonzero"/><g clip-path="url(#580a5733db)"><path fill="#000000" d="M 225.28125 225.765625 L 256.414062 225.765625 C 259.609375 225.765625 262.210938 223.164062 262.210938 219.964844 L 262.210938 85.339844 C 262.210938 82.140625 259.609375 79.535156 256.414062 79.535156 L 225.28125 79.535156 C 222.085938 79.535156 219.484375 82.140625 219.484375 85.339844 L 219.484375 219.964844 C 219.484375 223.164062 222.085938 225.765625 225.28125 225.765625 Z M 224.632812 85.339844 C 224.632812 84.980469 224.925781 84.6875 225.28125 84.6875 L 256.414062 84.6875 C 256.773438 84.6875 257.066406 84.980469 257.066406 85.339844 L 257.066406 219.964844 C 257.066406 220.320312 256.773438 220.613281 256.414062 220.613281 L 225.28125 220.613281 C 224.925781 220.613281 224.632812 220.320312 224.632812 219.964844 Z M 224.632812 85.339844 " fill-opacity="1" fill-rule="nonzero"/></g><g fill="#000000" fill-opacity="1"><g transform="translate(101.265875, 269.650285)"><g><path d="M 25.898438 -26.699219 L 17.398438 -8.234375 L 8.988281 -26.699219 L 2.625 -26.699219 L 2.625 0 L 8.5 0 L 8.5 -15.929688 L 15.707031 0 L 19.089844 0 L 26.34375 -15.886719 L 26.34375 0 L 32.21875 0 L 32.21875 -26.699219 Z M 25.898438 -26.699219 "/></g></g></g><g fill="#000000" fill-opacity="1"><g transform="translate(135.393553, 269.650285)"><g><path d="M 5.5625 -20.78125 C 7.253906 -20.78125 8.675781 -22.207031 8.675781 -23.898438 C 8.675781 -25.632812 7.253906 -27.011719 5.5625 -27.011719 C 3.871094 -27.011719 2.449219 -25.632812 2.449219 -23.898438 C 2.449219 -22.207031 3.871094 -20.78125 5.5625 -20.78125 Z M 2.714844 0 L 8.367188 0 L 8.367188 -17.800781 L 2.714844 -17.800781 Z M 2.714844 0 "/></g></g></g><g fill="#000000" fill-opacity="1"><g transform="translate(145.805243, 269.650285)"><g><path d="M 15.261719 -30.484375 L 15.261719 -16.242188 C 13.929688 -17.445312 12.238281 -18.15625 10.191406 -18.15625 C 5.25 -18.15625 1.378906 -14.0625 1.378906 -8.898438 C 1.378906 -3.738281 5.25 0.355469 10.191406 0.355469 C 12.238281 0.355469 13.929688 -0.355469 15.261719 -1.558594 L 15.261719 0.0429688 L 20.914062 0 L 20.914062 -30.484375 Z M 11.304688 -4.671875 C 8.945312 -4.671875 7.074219 -6.542969 7.074219 -8.898438 C 7.074219 -11.257812 8.945312 -13.128906 11.304688 -13.128906 C 13.617188 -13.128906 15.53125 -11.257812 15.53125 -8.898438 C 15.53125 -6.542969 13.617188 -4.671875 11.304688 -4.671875 Z M 11.304688 -4.671875 "/></g></g></g><g fill="#000000" fill-opacity="1"><g transform="translate(168.631112, 269.650285)"><g><path d="M 5.5625 -20.78125 C 7.253906 -20.78125 8.675781 -22.207031 8.675781 -23.898438 C 8.675781 -25.632812 7.253906 -27.011719 5.5625 -27.011719 C 3.871094 -27.011719 2.449219 -25.632812 2.449219 -23.898438 C 2.449219 -22.207031 3.871094 -20.78125 5.5625 -20.78125 Z M 2.714844 0 L 8.367188 0 L 8.367188 -17.800781 L 2.714844 -17.800781 Z M 2.714844 0 "/></g></g></g><g fill="#000000" fill-opacity="1"><g transform="translate(179.042798, 269.650285)"><g><path d="M 11.304688 0.355469 C 16.644531 0.355469 20.292969 -2.757812 21.046875 -7.210938 L 15.175781 -7.210938 C 14.597656 -5.695312 13.128906 -4.71875 11.304688 -4.671875 C 8.855469 -4.71875 7.074219 -6.496094 7.074219 -8.898438 C 7.074219 -11.304688 8.855469 -13.082031 11.304688 -13.128906 C 13.128906 -13.082031 14.597656 -12.105469 15.175781 -10.589844 L 21.046875 -10.589844 C 20.292969 -15.039062 16.644531 -18.15625 11.304688 -18.15625 C 5.339844 -18.15625 1.378906 -14.238281 1.378906 -8.898438 C 1.378906 -3.558594 5.339844 0.355469 11.304688 0.355469 Z M 11.304688 0.355469 "/></g></g></g><g fill="#000000" fill-opacity="1"><g transform="translate(200.400316, 269.650285)"><g><path d="M 22.472656 -4.628906 C 21.714844 -4.628906 20.914062 -4.894531 20.914062 -6.363281 L 20.914062 -17.800781 L 15.261719 -17.800781 L 15.261719 -16.242188 C 13.929688 -17.445312 12.238281 -18.15625 10.191406 -18.15625 C 5.25 -18.15625 1.378906 -14.0625 1.378906 -8.898438 C 1.378906 -3.738281 5.25 0.355469 10.191406 0.355469 C 12.773438 0.355469 14.863281 -0.800781 16.285156 -2.671875 C 17.398438 -0.84375 19.359375 0.355469 21.761719 0.355469 C 22.339844 0.355469 22.871094 0.179688 23.273438 0 L 23.273438 -4.628906 Z M 11.304688 -4.671875 C 8.945312 -4.671875 7.074219 -6.542969 7.074219 -8.898438 C 7.074219 -11.257812 8.945312 -13.128906 11.304688 -13.128906 C 13.617188 -13.128906 15.53125 -11.257812 15.53125 -8.898438 C 15.53125 -6.542969 13.617188 -4.671875 11.304688 -4.671875 Z M 11.304688 -4.671875 "/></g></g></g><g fill="#000000" fill-opacity="1"><g transform="translate(223.626644, 269.650285)"><g><path d="M 13.351562 -13.394531 L 13.351562 -17.800781 L 9.121094 -17.800781 L 9.121094 -24.652344 L 3.472656 -24.652344 L 3.472656 -17.800781 L 0.488281 -17.800781 L 0.488281 -13.394531 L 3.472656 -13.394531 L 3.472656 -6.363281 C 3.472656 -2.582031 6.675781 0.355469 10.457031 0.355469 C 11.660156 0.355469 12.859375 0.0898438 13.304688 -0.222656 L 13.304688 -4.628906 L 11.167969 -4.628906 C 9.96875 -4.628906 9.121094 -5.5625 9.121094 -7.03125 L 9.121094 -13.394531 Z M 13.351562 -13.394531 "/></g></g></g><g fill="#000000" fill-opacity="1"><g transform="translate(237.153003, 269.650285)"><g><path d="M 11.304688 0.355469 C 17.265625 0.355469 21.183594 -3.558594 21.183594 -8.898438 C 21.183594 -14.238281 17.265625 -18.15625 11.304688 -18.15625 C 5.339844 -18.15625 1.378906 -14.238281 1.378906 -8.898438 C 1.378906 -3.558594 5.339844 0.355469 11.304688 0.355469 Z M 11.304688 -4.671875 C 8.855469 -4.71875 7.074219 -6.496094 7.074219 -8.898438 C 7.074219 -11.304688 8.855469 -13.082031 11.304688 -13.128906 C 13.707031 -13.082031 15.53125 -11.304688 15.53125 -8.898438 C 15.53125 -6.496094 13.707031 -4.71875 11.304688 -4.671875 Z M 11.304688 -4.671875 "/></g></g></g><g fill="#000000" fill-opacity="1"><g transform="translate(259.04448, 269.650285)"><g><path d="M 13.304688 -18.15625 C 11.214844 -18.15625 9.476562 -17.089844 8.320312 -15.351562 L 8.320312 -17.800781 L 2.625 -17.800781 L 2.625 0 L 8.320312 0 L 8.320312 -8.5 C 8.320312 -11.4375 10.324219 -13.128906 13.128906 -13.128906 C 13.796875 -13.128906 14.375 -13.039062 14.773438 -12.949219 L 14.773438 -17.976562 C 14.375 -18.113281 13.839844 -18.15625 13.304688 -18.15625 Z M 13.304688 -18.15625 "/></g></g></g><g fill="#000000" fill-opacity="1"><g transform="translate(115.509695, 292.503144)"><g><path d="M 10.265625 -8.5 L 10.265625 0 L 8.5625 0 L 8.5625 -3.9375 C 8.5625 -5.28125 8.570312 -6.25 8.59375 -6.84375 C 8.363281 -5.851562 8.097656 -4.882812 7.796875 -3.9375 L 6.609375 0 L 4.765625 0 L 3.53125 -3.953125 C 3.21875 -4.992188 2.96875 -5.953125 2.78125 -6.828125 C 2.789062 -6.234375 2.796875 -5.269531 2.796875 -3.9375 L 2.796875 0 L 1.09375 0 L 1.09375 -8.5 L 3.78125 -8.5 L 5.703125 -1.5625 L 7.625 -8.5 Z M 10.265625 -8.5 "/></g></g></g><g fill="#000000" fill-opacity="1"><g transform="translate(128.036506, 292.503144)"><g><path d="M 2.796875 0 L 1.09375 0 L 1.09375 -8.5 L 2.796875 -8.5 Z M 2.796875 0 "/></g></g></g><g fill="#000000" fill-opacity="1"><g transform="translate(133.111932, 292.503144)"><g><path d="M 5.109375 -8.453125 C 6.160156 -8.328125 7.007812 -7.921875 7.65625 -7.234375 C 8.300781 -6.554688 8.625 -5.597656 8.625 -4.359375 C 8.625 -3.109375 8.289062 -2.109375 7.625 -1.359375 C 6.96875 -0.609375 6.125 -0.171875 5.09375 -0.046875 C 4.800781 -0.015625 4.4375 0 4 0 L 1.09375 0 L 1.09375 -8.5 L 4.03125 -8.5 C 4.46875 -8.5 4.828125 -8.484375 5.109375 -8.453125 Z M 4.703125 -1.375 C 5.359375 -1.457031 5.875 -1.757812 6.25 -2.28125 C 6.625 -2.800781 6.8125 -3.488281 6.8125 -4.34375 C 6.8125 -5.164062 6.625 -5.8125 6.25 -6.28125 C 5.882812 -6.757812 5.382812 -7.039062 4.75 -7.125 C 4.488281 -7.15625 4.179688 -7.171875 3.828125 -7.171875 L 2.796875 -7.171875 L 2.796875 -1.34375 L 3.8125 -1.34375 C 4.226562 -1.34375 4.523438 -1.351562 4.703125 -1.375 Z M 4.703125 -1.375 "/></g></g></g><g fill="#000000" fill-opacity="1"><g transform="translate(143.594233, 292.503144)"><g><path d="M 5.28125 -8.4375 C 5.957031 -8.363281 6.503906 -8.101562 6.921875 -7.65625 C 7.347656 -7.207031 7.5625 -6.609375 7.5625 -5.859375 C 7.5625 -5.109375 7.34375 -4.507812 6.90625 -4.0625 C 6.476562 -3.613281 5.9375 -3.347656 5.28125 -3.265625 C 4.925781 -3.222656 4.515625 -3.203125 4.046875 -3.203125 L 2.796875 -3.203125 L 2.796875 0 L 1.09375 0 L 1.09375 -8.5 L 4.046875 -8.5 C 4.523438 -8.5 4.9375 -8.476562 5.28125 -8.4375 Z M 4.765625 -4.59375 C 5.441406 -4.6875 5.78125 -5.109375 5.78125 -5.859375 C 5.78125 -6.609375 5.441406 -7.03125 4.765625 -7.125 C 4.578125 -7.144531 4.328125 -7.15625 4.015625 -7.15625 L 2.796875 -7.15625 L 2.796875 -4.546875 L 4.015625 -4.546875 C 4.328125 -4.546875 4.578125 -4.5625 4.765625 -4.59375 Z M 4.765625 -4.59375 "/></g></g></g><g fill="#000000" fill-opacity="1"><g transform="translate(152.746364, 292.503144)"><g><path d="M 4.828125 -8.671875 C 6.128906 -8.671875 7.15625 -8.269531 7.90625 -7.46875 C 8.65625 -6.675781 9.03125 -5.601562 9.03125 -4.25 C 9.03125 -2.914062 8.65625 -1.84375 7.90625 -1.03125 C 7.15625 -0.226562 6.128906 0.171875 4.828125 0.171875 C 3.535156 0.171875 2.507812 -0.226562 1.75 -1.03125 C 1 -1.84375 0.625 -2.914062 0.625 -4.25 C 0.625 -5.601562 1 -6.675781 1.75 -7.46875 C 2.5 -8.269531 3.523438 -8.671875 4.828125 -8.671875 Z M 3.046875 -1.921875 C 3.484375 -1.367188 4.078125 -1.09375 4.828125 -1.09375 C 5.585938 -1.09375 6.179688 -1.375 6.609375 -1.9375 C 7.035156 -2.5 7.25 -3.269531 7.25 -4.25 C 7.25 -5.25 7.035156 -6.023438 6.609375 -6.578125 C 6.179688 -7.128906 5.585938 -7.40625 4.828125 -7.40625 C 4.066406 -7.40625 3.472656 -7.128906 3.046875 -6.578125 C 2.617188 -6.023438 2.40625 -5.25 2.40625 -4.25 C 2.40625 -3.257812 2.617188 -2.484375 3.046875 -1.921875 Z M 3.046875 -1.921875 "/></g></g></g><g fill="#000000" fill-opacity="1"><g transform="translate(163.647416, 292.503144)"><g><path d="M 2.796875 0 L 1.09375 0 L 1.09375 -8.5 L 2.796875 -8.5 Z M 2.796875 0 "/></g></g></g><g fill="#000000" fill-opacity="1"><g transform="translate(168.722842, 292.503144)"><g><path d="M 8.5625 0 L 6.234375 0 L 2.734375 -6.453125 C 2.773438 -5.679688 2.796875 -4.8125 2.796875 -3.84375 L 2.796875 0 L 1.09375 0 L 1.09375 -8.5 L 3.359375 -8.5 L 6.921875 -1.921875 C 6.878906 -2.679688 6.859375 -3.570312 6.859375 -4.59375 L 6.859375 -8.5 L 8.5625 -8.5 Z M 8.5625 0 "/></g></g></g><g fill="#000000" fill-opacity="1"><g transform="translate(179.562313, 292.503144)"><g><path d="M 7.75 -7.171875 L 4.875 -7.171875 L 4.875 0 L 3.171875 0 L 3.171875 -7.171875 L 0.28125 -7.171875 L 0.28125 -8.5 L 7.75 -8.5 Z M 7.75 -7.171875 "/></g></g></g><g fill="#000000" fill-opacity="1"><g transform="translate(188.714444, 292.503144)"><g/></g></g><g fill="#000000" fill-opacity="1"><g transform="translate(192.582862, 292.503144)"><g><path d="M 5 -4.34375 L 8.421875 -4.34375 L 8.421875 0 L 7.046875 0 L 6.9375 -1.375 L 6.5625 -0.515625 C 6.09375 -0.0546875 5.398438 0.171875 4.484375 0.171875 C 3.304688 0.171875 2.367188 -0.21875 1.671875 -1 C 0.972656 -1.789062 0.625 -2.859375 0.625 -4.203125 C 0.625 -5.566406 1.019531 -6.648438 1.8125 -7.453125 C 2.601562 -8.265625 3.601562 -8.671875 4.8125 -8.671875 C 5.925781 -8.671875 6.796875 -8.398438 7.421875 -7.859375 C 8.046875 -7.328125 8.40625 -6.625 8.5 -5.75 L 8.5 -5.625 L 6.8125 -5.625 L 6.78125 -5.75 C 6.5625 -6.851562 5.898438 -7.40625 4.796875 -7.40625 C 4.097656 -7.40625 3.523438 -7.125 3.078125 -6.5625 C 2.640625 -6.007812 2.421875 -5.253906 2.421875 -4.296875 C 2.421875 -3.273438 2.632812 -2.484375 3.0625 -1.921875 C 3.488281 -1.367188 4.050781 -1.09375 4.75 -1.09375 C 5.300781 -1.09375 5.757812 -1.257812 6.125 -1.59375 C 6.488281 -1.9375 6.710938 -2.410156 6.796875 -3.015625 L 5 -3.015625 Z M 5 -4.34375 "/></g></g></g><g fill="#000000" fill-opacity="1"><g transform="translate(203.139057, 292.503144)"><g><path d="M 7.265625 -2.140625 C 7.367188 -1.128906 7.570312 -0.414062 7.875 0 L 6.015625 0 C 5.804688 -0.5625 5.664062 -1.195312 5.59375 -1.90625 C 5.476562 -2.863281 5.097656 -3.367188 4.453125 -3.421875 C 4.296875 -3.421875 4.070312 -3.421875 3.78125 -3.421875 L 2.796875 -3.421875 L 2.796875 0 L 1.09375 0 L 1.09375 -8.5 L 4.203125 -8.5 C 4.671875 -8.5 5.082031 -8.476562 5.4375 -8.4375 C 6.113281 -8.363281 6.65625 -8.140625 7.0625 -7.765625 C 7.46875 -7.398438 7.671875 -6.875 7.671875 -6.1875 C 7.671875 -5.65625 7.519531 -5.210938 7.21875 -4.859375 C 6.925781 -4.515625 6.519531 -4.269531 6 -4.125 C 6.726562 -3.84375 7.148438 -3.179688 7.265625 -2.140625 Z M 2.796875 -4.703125 L 3.96875 -4.703125 C 4.300781 -4.703125 4.53125 -4.703125 4.65625 -4.703125 C 5.46875 -4.773438 5.875 -5.1875 5.875 -5.9375 C 5.875 -6.320312 5.773438 -6.601562 5.578125 -6.78125 C 5.390625 -6.96875 5.117188 -7.085938 4.765625 -7.140625 C 4.566406 -7.160156 4.328125 -7.171875 4.046875 -7.171875 L 2.796875 -7.171875 Z M 2.796875 -4.703125 "/></g></g></g><g fill="#000000" fill-opacity="1"><g transform="translate(212.672992, 292.503144)"><g><path d="M 5.703125 -2.5625 L 2.84375 -2.5625 L 2 0 L 0.1875 0 L 3.25 -8.5 L 5.390625 -8.5 L 8.390625 0 L 6.546875 0 Z M 4.296875 -7.046875 L 3.28125 -3.90625 L 5.28125 -3.90625 Z M 4.296875 -7.046875 "/></g></g></g><g fill="#000000" fill-opacity="1"><g transform="translate(222.477889, 292.503144)"><g><path d="M 5.28125 -8.4375 C 5.957031 -8.363281 6.503906 -8.101562 6.921875 -7.65625 C 7.347656 -7.207031 7.5625 -6.609375 7.5625 -5.859375 C 7.5625 -5.109375 7.34375 -4.507812 6.90625 -4.0625 C 6.476562 -3.613281 5.9375 -3.347656 5.28125 -3.265625 C 4.925781 -3.222656 4.515625 -3.203125 4.046875 -3.203125 L 2.796875 -3.203125 L 2.796875 0 L 1.09375 0 L 1.09375 -8.5 L 4.046875 -8.5 C 4.523438 -8.5 4.9375 -8.476562 5.28125 -8.4375 Z M 4.765625 -4.59375 C 5.441406 -4.6875 5.78125 -5.109375 5.78125 -5.859375 C 5.78125 -6.609375 5.441406 -7.03125 4.765625 -7.125 C 4.578125 -7.144531 4.328125 -7.15625 4.015625 -7.15625 L 2.796875 -7.15625 L 2.796875 -4.546875 L 4.015625 -4.546875 C 4.328125 -4.546875 4.578125 -4.5625 4.765625 -4.59375 Z M 4.765625 -4.59375 "/></g></g></g><g fill="#000000" fill-opacity="1"><g transform="translate(231.630015, 292.503144)"><g><path d="M 8.46875 -8.5 L 8.46875 0 L 6.78125 0 L 6.78125 -3.484375 L 2.796875 -3.484375 L 2.796875 0 L 1.09375 0 L 1.09375 -8.5 L 2.796875 -8.5 L 2.796875 -4.84375 L 6.78125 -4.84375 L 6.78125 -8.5 Z M 8.46875 -8.5 "/></g></g></g><g fill="#000000" fill-opacity="1"><g transform="translate(242.370958, 292.503144)"><g><path d="M 7.234375 -1.34375 L 7.234375 0 L 1.09375 0 L 1.09375 -8.5 L 7.109375 -8.5 L 7.109375 -7.171875 L 2.796875 -7.171875 L 2.796875 -4.9375 L 6.8125 -4.9375 L 6.8125 -3.59375 L 2.796875 -3.59375 L 2.796875 -1.34375 Z M 7.234375 -1.34375 "/></g></g></g><g fill="#000000" fill-opacity="1"><g transform="translate(251.436875, 292.503144)"><g><path d="M 7.265625 -2.140625 C 7.367188 -1.128906 7.570312 -0.414062 7.875 0 L 6.015625 0 C 5.804688 -0.5625 5.664062 -1.195312 5.59375 -1.90625 C 5.476562 -2.863281 5.097656 -3.367188 4.453125 -3.421875 C 4.296875 -3.421875 4.070312 -3.421875 3.78125 -3.421875 L 2.796875 -3.421875 L 2.796875 0 L 1.09375 0 L 1.09375 -8.5 L 4.203125 -8.5 C 4.671875 -8.5 5.082031 -8.476562 5.4375 -8.4375 C 6.113281 -8.363281 6.65625 -8.140625 7.0625 -7.765625 C 7.46875 -7.398438 7.671875 -6.875 7.671875 -6.1875 C 7.671875 -5.65625 7.519531 -5.210938 7.21875 -4.859375 C 6.925781 -4.515625 6.519531 -4.269531 6 -4.125 C 6.726562 -3.84375 7.148438 -3.179688 7.265625 -2.140625 Z M 2.796875 -4.703125 L 3.96875 -4.703125 C 4.300781 -4.703125 4.53125 -4.703125 4.65625 -4.703125 C 5.46875 -4.773438 5.875 -5.1875 5.875 -5.9375 C 5.875 -6.320312 5.773438 -6.601562 5.578125 -6.78125 C 5.390625 -6.96875 5.117188 -7.085938 4.765625 -7.140625 C 4.566406 -7.160156 4.328125 -7.171875 4.046875 -7.171875 L 2.796875 -7.171875 Z M 2.796875 -4.703125 "/></g></g></g></svg>