<svg xmlns="http://www.w3.org/2000/svg" xmlns:xlink="http://www.w3.org/1999/xlink" width="500" zoomAndPan="magnify" viewBox="0 0 375 374.999991" height="500" preserveAspectRatio="xMidYMid meet" version="1.0"><defs><g/><clipPath id="f89d5908f4"><path d="M 141.773438 72.589844 L 232.933594 72.589844 L 232.933594 163.75 L 141.773438 163.75 Z M 141.773438 72.589844 " clip-rule="nonzero"/></clipPath></defs><rect x="-37.5" width="450" fill="#ffffff" y="-37.499999" height="449.999989" fill-opacity="1"/><rect x="-37.5" width="450" fill="#ffffff" y="-37.499999" height="449.999989" fill-opacity="1"/><g fill="#010101" fill-opacity="1"><g transform="translate(73.856941, 232.12337)"><g><path d="M 1.28125 -26.28125 C 1.28125 -29.082031 1.945312 -31.234375 3.28125 -32.734375 C 4.613281 -34.234375 6.613281 -34.984375 9.28125 -34.984375 C 11.957031 -34.984375 13.960938 -34.234375 15.296875 -32.734375 C 16.628906 -31.234375 17.296875 -29.082031 17.296875 -26.28125 L 17.296875 -25.203125 L 12.15625 -25.203125 L 12.15625 -26.625 C 12.15625 -27.875 11.914062 -28.753906 11.4375 -29.265625 C 10.957031 -29.773438 10.289062 -30.03125 9.4375 -30.03125 C 8.582031 -30.03125 7.914062 -29.773438 7.4375 -29.265625 C 6.957031 -28.753906 6.71875 -27.875 6.71875 -26.625 C 6.71875 -25.4375 6.976562 -24.390625 7.5 -23.484375 C 8.03125 -22.585938 8.691406 -21.734375 9.484375 -20.921875 C 10.273438 -20.117188 11.125 -19.3125 12.03125 -18.5 C 12.9375 -17.695312 13.785156 -16.816406 14.578125 -15.859375 C 15.367188 -14.898438 16.023438 -13.8125 16.546875 -12.59375 C 17.078125 -11.375 17.34375 -9.941406 17.34375 -8.296875 C 17.34375 -5.492188 16.65625 -3.34375 15.28125 -1.84375 C 13.914062 -0.351562 11.898438 0.390625 9.234375 0.390625 C 6.566406 0.390625 4.550781 -0.351562 3.1875 -1.84375 C 1.820312 -3.34375 1.140625 -5.492188 1.140625 -8.296875 L 1.140625 -10.421875 L 6.28125 -10.421875 L 6.28125 -7.953125 C 6.28125 -6.703125 6.535156 -5.828125 7.046875 -5.328125 C 7.554688 -4.835938 8.238281 -4.59375 9.09375 -4.59375 C 9.945312 -4.59375 10.628906 -4.835938 11.140625 -5.328125 C 11.648438 -5.828125 11.90625 -6.703125 11.90625 -7.953125 C 11.90625 -9.140625 11.640625 -10.1875 11.109375 -11.09375 C 10.585938 -12 9.929688 -12.851562 9.140625 -13.65625 C 8.347656 -14.46875 7.5 -15.273438 6.59375 -16.078125 C 5.6875 -16.890625 4.835938 -17.769531 4.046875 -18.71875 C 3.253906 -19.675781 2.59375 -20.765625 2.0625 -21.984375 C 1.539062 -23.203125 1.28125 -24.632812 1.28125 -26.28125 Z M 1.28125 -26.28125 "/></g></g></g><g fill="#010101" fill-opacity="1"><g transform="translate(98.75963, 232.12337)"><g><path d="M 1.96875 -34.578125 L 7.40625 -34.578125 L 7.40625 0 L 1.96875 0 Z M 1.96875 -34.578125 "/></g></g></g><g fill="#010101" fill-opacity="1"><g transform="translate(114.57117, 232.12337)"><g><path d="M 17.734375 -12.890625 L 17.734375 -8.296875 C 17.734375 -5.492188 17.050781 -3.34375 15.6875 -1.84375 C 14.320312 -0.351562 12.304688 0.390625 9.640625 0.390625 C 6.960938 0.390625 4.941406 -0.351562 3.578125 -1.84375 C 2.210938 -3.34375 1.53125 -5.492188 1.53125 -8.296875 L 1.53125 -26.28125 C 1.53125 -29.082031 2.210938 -31.234375 3.578125 -32.734375 C 4.941406 -34.234375 6.960938 -34.984375 9.640625 -34.984375 C 12.304688 -34.984375 14.320312 -34.234375 15.6875 -32.734375 C 17.050781 -31.234375 17.734375 -29.082031 17.734375 -26.28125 L 17.734375 -22.921875 L 12.59375 -22.921875 L 12.59375 -26.625 C 12.59375 -27.875 12.335938 -28.753906 11.828125 -29.265625 C 11.316406 -29.773438 10.632812 -30.03125 9.78125 -30.03125 C 8.925781 -30.03125 8.242188 -29.773438 7.734375 -29.265625 C 7.222656 -28.753906 6.96875 -27.875 6.96875 -26.625 L 6.96875 -7.953125 C 6.96875 -6.703125 7.222656 -5.828125 7.734375 -5.328125 C 8.242188 -4.835938 8.925781 -4.59375 9.78125 -4.59375 C 10.632812 -4.59375 11.316406 -4.835938 11.828125 -5.328125 C 12.335938 -5.828125 12.59375 -6.703125 12.59375 -7.953125 L 12.59375 -12.890625 Z M 17.734375 -12.890625 "/></g></g></g><g fill="#010101" fill-opacity="1"><g transform="translate(140.066766, 232.12337)"><g><path d="M 9.09375 -13.78125 L 7.40625 -10.625 L 7.40625 0 L 1.96875 0 L 1.96875 -34.578125 L 7.40625 -34.578125 L 7.40625 -19.515625 L 14.53125 -34.578125 L 19.953125 -34.578125 L 12.40625 -19.171875 L 19.953125 0 L 14.375 0 Z M 9.09375 -13.78125 "/></g></g></g><g fill="#010101" fill-opacity="1"><g transform="translate(166.945798, 232.12337)"><g/></g></g><g fill="#010101" fill-opacity="1"><g transform="translate(181.028039, 232.12337)"><g><path d="M 10.171875 -34.578125 C 13.003906 -34.578125 15.054688 -33.914062 16.328125 -32.59375 C 17.597656 -31.28125 18.234375 -29.289062 18.234375 -26.625 L 18.234375 -25.390625 C 18.234375 -23.617188 17.953125 -22.15625 17.390625 -21 C 16.828125 -19.84375 15.9375 -18.984375 14.71875 -18.421875 C 16.207031 -17.867188 17.253906 -16.957031 17.859375 -15.6875 C 18.472656 -14.414062 18.78125 -12.859375 18.78125 -11.015625 L 18.78125 -8.203125 C 18.78125 -5.535156 18.085938 -3.5 16.703125 -2.09375 C 15.316406 -0.695312 13.257812 0 10.53125 0 L 1.96875 0 L 1.96875 -34.578125 Z M 7.40625 -15.5625 L 7.40625 -4.9375 L 10.53125 -4.9375 C 11.445312 -4.9375 12.144531 -5.179688 12.625 -5.671875 C 13.101562 -6.171875 13.34375 -7.0625 13.34375 -8.34375 L 13.34375 -11.359375 C 13.34375 -12.972656 13.066406 -14.078125 12.515625 -14.671875 C 11.972656 -15.265625 11.078125 -15.5625 9.828125 -15.5625 Z M 7.40625 -29.640625 L 7.40625 -20.5 L 9.53125 -20.5 C 10.550781 -20.5 11.347656 -20.757812 11.921875 -21.28125 C 12.503906 -21.8125 12.796875 -22.769531 12.796875 -24.15625 L 12.796875 -26.09375 C 12.796875 -27.34375 12.570312 -28.242188 12.125 -28.796875 C 11.6875 -29.359375 10.988281 -29.640625 10.03125 -29.640625 Z M 7.40625 -29.640625 "/></g></g></g><g fill="#010101" fill-opacity="1"><g transform="translate(207.511801, 232.12337)"><g><path d="M 7.40625 -20.015625 L 14.875 -20.015625 L 14.875 -15.0625 L 7.40625 -15.0625 L 7.40625 -4.9375 L 16.796875 -4.9375 L 16.796875 0 L 1.96875 0 L 1.96875 -34.578125 L 16.796875 -34.578125 L 16.796875 -29.640625 L 7.40625 -29.640625 Z M 7.40625 -20.015625 "/></g></g></g><g fill="#010101" fill-opacity="1"><g transform="translate(232.118035, 232.12337)"><g><path d="M 19.5625 0 L 14.078125 0 L 13.140625 -6.28125 L 6.46875 -6.28125 L 5.53125 0 L 0.546875 0 L 6.078125 -34.578125 L 14.03125 -34.578125 Z M 7.15625 -10.96875 L 12.40625 -10.96875 L 9.78125 -28.453125 Z M 7.15625 -10.96875 "/></g></g></g><g fill="#010101" fill-opacity="1"><g transform="translate(258.651199, 232.12337)"><g><path d="M 0.390625 -34.578125 L 17.1875 -34.578125 L 17.1875 -29.640625 L 11.515625 -29.640625 L 11.515625 0 L 6.078125 0 L 6.078125 -29.640625 L 0.390625 -29.640625 Z M 0.390625 -34.578125 "/></g></g></g><g fill="#010101" fill-opacity="1"><g transform="translate(282.664529, 232.12337)"><g><path d="M 1.28125 -26.28125 C 1.28125 -29.082031 1.945312 -31.234375 3.28125 -32.734375 C 4.613281 -34.234375 6.613281 -34.984375 9.28125 -34.984375 C 11.957031 -34.984375 13.960938 -34.234375 15.296875 -32.734375 C 16.628906 -31.234375 17.296875 -29.082031 17.296875 -26.28125 L 17.296875 -25.203125 L 12.15625 -25.203125 L 12.15625 -26.625 C 12.15625 -27.875 11.914062 -28.753906 11.4375 -29.265625 C 10.957031 -29.773438 10.289062 -30.03125 9.4375 -30.03125 C 8.582031 -30.03125 7.914062 -29.773438 7.4375 -29.265625 C 6.957031 -28.753906 6.71875 -27.875 6.71875 -26.625 C 6.71875 -25.4375 6.976562 -24.390625 7.5 -23.484375 C 8.03125 -22.585938 8.691406 -21.734375 9.484375 -20.921875 C 10.273438 -20.117188 11.125 -19.3125 12.03125 -18.5 C 12.9375 -17.695312 13.785156 -16.816406 14.578125 -15.859375 C 15.367188 -14.898438 16.023438 -13.8125 16.546875 -12.59375 C 17.078125 -11.375 17.34375 -9.941406 17.34375 -8.296875 C 17.34375 -5.492188 16.65625 -3.34375 15.28125 -1.84375 C 13.914062 -0.351562 11.898438 0.390625 9.234375 0.390625 C 6.566406 0.390625 4.550781 -0.351562 3.1875 -1.84375 C 1.820312 -3.34375 1.140625 -5.492188 1.140625 -8.296875 L 1.140625 -10.421875 L 6.28125 -10.421875 L 6.28125 -7.953125 C 6.28125 -6.703125 6.535156 -5.828125 7.046875 -5.328125 C 7.554688 -4.835938 8.238281 -4.59375 9.09375 -4.59375 C 9.945312 -4.59375 10.628906 -4.835938 11.140625 -5.328125 C 11.648438 -5.828125 11.90625 -6.703125 11.90625 -7.953125 C 11.90625 -9.140625 11.640625 -10.1875 11.109375 -11.09375 C 10.585938 -12 9.929688 -12.851562 9.140625 -13.65625 C 8.347656 -14.46875 7.5 -15.273438 6.59375 -16.078125 C 5.6875 -16.890625 4.835938 -17.769531 4.046875 -18.71875 C 3.253906 -19.675781 2.59375 -20.765625 2.0625 -21.984375 C 1.539062 -23.203125 1.28125 -24.632812 1.28125 -26.28125 Z M 1.28125 -26.28125 "/></g></g></g><g fill="#010101" fill-opacity="1"><g transform="translate(73.607263, 283.612496)"><g><path d="M 10.171875 -6.375 L 14.328125 -34.578125 L 19.3125 -34.578125 L 13.984375 0 L 5.875 0 L 0.546875 -34.578125 L 6.03125 -34.578125 Z M 10.171875 -6.375 "/></g></g></g><g fill="#010101" fill-opacity="1"><g transform="translate(99.893394, 283.612496)"><g><path d="M 1.96875 -34.578125 L 7.40625 -34.578125 L 7.40625 0 L 1.96875 0 Z M 1.96875 -34.578125 "/></g></g></g><g fill="#010101" fill-opacity="1"><g transform="translate(115.704934, 283.612496)"><g><path d="M 1.28125 -26.28125 C 1.28125 -29.082031 1.945312 -31.234375 3.28125 -32.734375 C 4.613281 -34.234375 6.613281 -34.984375 9.28125 -34.984375 C 11.957031 -34.984375 13.960938 -34.234375 15.296875 -32.734375 C 16.628906 -31.234375 17.296875 -29.082031 17.296875 -26.28125 L 17.296875 -25.203125 L 12.15625 -25.203125 L 12.15625 -26.625 C 12.15625 -27.875 11.914062 -28.753906 11.4375 -29.265625 C 10.957031 -29.773438 10.289062 -30.03125 9.4375 -30.03125 C 8.582031 -30.03125 7.914062 -29.773438 7.4375 -29.265625 C 6.957031 -28.753906 6.71875 -27.875 6.71875 -26.625 C 6.71875 -25.4375 6.976562 -24.390625 7.5 -23.484375 C 8.03125 -22.585938 8.691406 -21.734375 9.484375 -20.921875 C 10.273438 -20.117188 11.125 -19.3125 12.03125 -18.5 C 12.9375 -17.695312 13.785156 -16.816406 14.578125 -15.859375 C 15.367188 -14.898438 16.023438 -13.8125 16.546875 -12.59375 C 17.078125 -11.375 17.34375 -9.941406 17.34375 -8.296875 C 17.34375 -5.492188 16.65625 -3.34375 15.28125 -1.84375 C 13.914062 -0.351562 11.898438 0.390625 9.234375 0.390625 C 6.566406 0.390625 4.550781 -0.351562 3.1875 -1.84375 C 1.820312 -3.34375 1.140625 -5.492188 1.140625 -8.296875 L 1.140625 -10.421875 L 6.28125 -10.421875 L 6.28125 -7.953125 C 6.28125 -6.703125 6.535156 -5.828125 7.046875 -5.328125 C 7.554688 -4.835938 8.238281 -4.59375 9.09375 -4.59375 C 9.945312 -4.59375 10.628906 -4.835938 11.140625 -5.328125 C 11.648438 -5.828125 11.90625 -6.703125 11.90625 -7.953125 C 11.90625 -9.140625 11.640625 -10.1875 11.109375 -11.09375 C 10.585938 -12 9.929688 -12.851562 9.140625 -13.65625 C 8.347656 -14.46875 7.5 -15.273438 6.59375 -16.078125 C 5.6875 -16.890625 4.835938 -17.769531 4.046875 -18.71875 C 3.253906 -19.675781 2.59375 -20.765625 2.0625 -21.984375 C 1.539062 -23.203125 1.28125 -24.632812 1.28125 -26.28125 Z M 1.28125 -26.28125 "/></g></g></g><g fill="#010101" fill-opacity="1"><g transform="translate(140.607626, 283.612496)"><g><path d="M 7.15625 -34.578125 L 7.15625 -7.90625 C 7.15625 -6.65625 7.410156 -5.78125 7.921875 -5.28125 C 8.441406 -4.789062 9.128906 -4.546875 9.984375 -4.546875 C 10.835938 -4.546875 11.519531 -4.789062 12.03125 -5.28125 C 12.539062 -5.78125 12.796875 -6.65625 12.796875 -7.90625 L 12.796875 -34.578125 L 17.9375 -34.578125 L 17.9375 -8.25 C 17.9375 -5.445312 17.25 -3.296875 15.875 -1.796875 C 14.507812 -0.304688 12.492188 0.4375 9.828125 0.4375 C 7.160156 0.4375 5.144531 -0.304688 3.78125 -1.796875 C 2.414062 -3.296875 1.734375 -5.445312 1.734375 -8.25 L 1.734375 -34.578125 Z M 7.15625 -34.578125 "/></g></g></g><g fill="#010101" fill-opacity="1"><g transform="translate(166.69612, 283.612496)"><g><path d="M 19.5625 0 L 14.078125 0 L 13.140625 -6.28125 L 6.46875 -6.28125 L 5.53125 0 L 0.546875 0 L 6.078125 -34.578125 L 14.03125 -34.578125 Z M 7.15625 -10.96875 L 12.40625 -10.96875 L 9.78125 -28.453125 Z M 7.15625 -10.96875 "/></g></g></g><g fill="#010101" fill-opacity="1"><g transform="translate(193.229284, 283.612496)"><g><path d="M 1.96875 -34.578125 L 7.40625 -34.578125 L 7.40625 -4.9375 L 16.359375 -4.9375 L 16.359375 0 L 1.96875 0 Z M 1.96875 -34.578125 "/></g></g></g><g fill="#010101" fill-opacity="1"><g transform="translate(216.402674, 283.612496)"><g><path d="M 1.96875 -34.578125 L 7.40625 -34.578125 L 7.40625 0 L 1.96875 0 Z M 1.96875 -34.578125 "/></g></g></g><g fill="#010101" fill-opacity="1"><g transform="translate(232.214211, 283.612496)"><g><path d="M 17.046875 -34.578125 L 17.046875 -29.75 L 6.71875 -4.9375 L 17.046875 -4.9375 L 17.046875 0 L 1.140625 0 L 1.140625 -4.84375 L 11.46875 -29.640625 L 1.625 -29.640625 L 1.625 -34.578125 Z M 17.046875 -34.578125 "/></g></g></g><g fill="#010101" fill-opacity="1"><g transform="translate(256.919263, 283.612496)"><g><path d="M 7.40625 -20.015625 L 14.875 -20.015625 L 14.875 -15.0625 L 7.40625 -15.0625 L 7.40625 -4.9375 L 16.796875 -4.9375 L 16.796875 0 L 1.96875 0 L 1.96875 -34.578125 L 16.796875 -34.578125 L 16.796875 -29.640625 L 7.40625 -29.640625 Z M 7.40625 -20.015625 "/></g></g></g><g fill="#010101" fill-opacity="1"><g transform="translate(281.525497, 283.612496)"><g><path d="M 13.34375 0 C 13.269531 -0.226562 13.203125 -0.441406 13.140625 -0.640625 C 13.078125 -0.835938 13.019531 -1.082031 12.96875 -1.375 C 12.914062 -1.675781 12.878906 -2.054688 12.859375 -2.515625 C 12.847656 -2.984375 12.84375 -3.5625 12.84375 -4.25 L 12.84375 -9.6875 C 12.84375 -11.300781 12.5625 -12.4375 12 -13.09375 C 11.445312 -13.75 10.539062 -14.078125 9.28125 -14.078125 L 7.40625 -14.078125 L 7.40625 0 L 1.96875 0 L 1.96875 -34.578125 L 10.171875 -34.578125 C 13.003906 -34.578125 15.054688 -33.914062 16.328125 -32.59375 C 17.597656 -31.28125 18.234375 -29.289062 18.234375 -26.625 L 18.234375 -23.90625 C 18.234375 -20.351562 17.046875 -18.015625 14.671875 -16.890625 C 16.054688 -16.335938 17.003906 -15.425781 17.515625 -14.15625 C 18.023438 -12.882812 18.28125 -11.34375 18.28125 -9.53125 L 18.28125 -4.203125 C 18.28125 -3.347656 18.3125 -2.597656 18.375 -1.953125 C 18.445312 -1.304688 18.613281 -0.65625 18.875 0 Z M 7.40625 -29.640625 L 7.40625 -19.015625 L 9.53125 -19.015625 C 10.550781 -19.015625 11.347656 -19.28125 11.921875 -19.8125 C 12.503906 -20.34375 12.796875 -21.296875 12.796875 -22.671875 L 12.796875 -26.09375 C 12.796875 -27.34375 12.570312 -28.242188 12.125 -28.796875 C 11.6875 -29.359375 10.988281 -29.640625 10.03125 -29.640625 Z M 7.40625 -29.640625 "/></g></g></g><g clip-path="url(#f89d5908f4)"><path fill="#010101" d="M 232.933594 118.167969 C 232.933594 119.664062 232.859375 121.152344 232.714844 122.636719 C 232.566406 124.125 232.347656 125.597656 232.058594 127.0625 C 231.765625 128.527344 231.40625 129.972656 230.972656 131.402344 C 230.539062 132.828125 230.035156 134.234375 229.464844 135.613281 C 228.894531 136.992188 228.253906 138.339844 227.550781 139.65625 C 226.847656 140.972656 226.082031 142.25 225.253906 143.492188 C 224.421875 144.734375 223.535156 145.929688 222.585938 147.085938 C 221.640625 148.238281 220.640625 149.34375 219.582031 150.398438 C 218.527344 151.457031 217.421875 152.457031 216.269531 153.402344 C 215.117188 154.351562 213.917969 155.238281 212.675781 156.066406 C 211.433594 156.898438 210.15625 157.664062 208.839844 158.367188 C 207.523438 159.070312 206.175781 159.710938 204.796875 160.28125 C 203.417969 160.851562 202.011719 161.355469 200.585938 161.789062 C 199.15625 162.21875 197.710938 162.582031 196.246094 162.875 C 194.78125 163.164062 193.308594 163.382812 191.820312 163.53125 C 190.335938 163.675781 188.847656 163.75 187.355469 163.75 C 185.859375 163.75 184.371094 163.675781 182.886719 163.53125 C 181.398438 163.382812 179.925781 163.164062 178.460938 162.875 C 176.996094 162.582031 175.550781 162.21875 174.121094 161.789062 C 172.695312 161.355469 171.289062 160.851562 169.910156 160.28125 C 168.53125 159.710938 167.183594 159.070312 165.867188 158.367188 C 164.550781 157.664062 163.273438 156.898438 162.03125 156.066406 C 160.789062 155.238281 159.59375 154.351562 158.4375 153.402344 C 157.285156 152.457031 156.179688 151.457031 155.125 150.398438 C 154.066406 149.34375 153.066406 148.238281 152.121094 147.085938 C 151.171875 145.929688 150.285156 144.734375 149.457031 143.492188 C 148.625 142.25 147.859375 140.972656 147.15625 139.65625 C 146.453125 138.339844 145.8125 136.992188 145.242188 135.613281 C 144.671875 134.234375 144.167969 132.828125 143.734375 131.402344 C 143.304688 129.972656 142.941406 128.527344 142.648438 127.0625 C 142.359375 125.597656 142.140625 124.125 141.992188 122.636719 C 141.847656 121.152344 141.773438 119.664062 141.773438 118.167969 C 141.773438 116.675781 141.847656 115.1875 141.992188 113.703125 C 142.140625 112.214844 142.359375 110.742188 142.648438 109.277344 C 142.941406 107.8125 143.304688 106.367188 143.734375 104.9375 C 144.167969 103.511719 144.671875 102.105469 145.242188 100.726562 C 145.8125 99.347656 146.453125 98 147.15625 96.683594 C 147.859375 95.367188 148.625 94.089844 149.457031 92.847656 C 150.285156 91.605469 151.171875 90.40625 152.121094 89.253906 C 153.066406 88.101562 154.066406 86.996094 155.125 85.941406 C 156.179688 84.882812 157.285156 83.882812 158.4375 82.9375 C 159.59375 81.988281 160.789062 81.101562 162.03125 80.269531 C 163.273438 79.441406 164.550781 78.675781 165.867188 77.972656 C 167.183594 77.269531 168.53125 76.628906 169.910156 76.058594 C 171.289062 75.488281 172.695312 74.984375 174.121094 74.550781 C 175.550781 74.117188 176.996094 73.757812 178.460938 73.464844 C 179.925781 73.175781 181.398438 72.957031 182.886719 72.808594 C 184.371094 72.664062 185.859375 72.589844 187.355469 72.589844 C 188.847656 72.589844 190.335938 72.664062 191.820312 72.808594 C 193.308594 72.957031 194.78125 73.175781 196.246094 73.464844 C 197.710938 73.757812 199.15625 74.117188 200.585938 74.550781 C 202.011719 74.984375 203.417969 75.488281 204.796875 76.058594 C 206.175781 76.628906 207.523438 77.269531 208.839844 77.972656 C 210.15625 78.675781 211.433594 79.441406 212.675781 80.269531 C 213.917969 81.101562 215.117188 81.988281 216.269531 82.9375 C 217.421875 83.882812 218.527344 84.882812 219.582031 85.941406 C 220.640625 86.996094 221.640625 88.101562 222.585938 89.253906 C 223.535156 90.40625 224.421875 91.605469 225.253906 92.847656 C 226.082031 94.089844 226.847656 95.367188 227.550781 96.683594 C 228.253906 98 228.894531 99.347656 229.464844 100.726562 C 230.035156 102.105469 230.539062 103.511719 230.972656 104.9375 C 231.40625 106.367188 231.765625 107.8125 232.058594 109.277344 C 232.347656 110.742188 232.566406 112.214844 232.714844 113.703125 C 232.859375 115.1875 232.933594 116.675781 232.933594 118.167969 Z M 232.933594 118.167969 " fill-opacity="1" fill-rule="nonzero"/></g><path fill="#5ce1e6" d="M 218.574219 123.09375 C 217.664062 123.09375 216.980469 122.316406 216.980469 121.40625 L 216.980469 115.390625 C 216.980469 114.476562 217.664062 113.703125 218.574219 113.703125 C 219.488281 113.703125 220.171875 114.476562 220.171875 115.390625 L 220.171875 121.453125 C 220.171875 122.363281 219.488281 123.09375 218.574219 123.09375 Z M 218.574219 123.09375 " fill-opacity="1" fill-rule="nonzero"/><path fill="#5ce1e6" d="M 160.234375 123.09375 C 159.320312 123.09375 158.636719 122.316406 158.636719 121.40625 L 158.636719 115.390625 C 158.636719 114.476562 159.320312 113.703125 160.234375 113.703125 C 161.144531 113.703125 161.828125 114.476562 161.828125 115.390625 L 161.828125 121.453125 C 161.828125 122.363281 161.144531 123.09375 160.234375 123.09375 Z M 160.234375 123.09375 " fill-opacity="1" fill-rule="nonzero"/><path fill="#5ce1e6" d="M 172.996094 142.28125 C 172.039062 142.28125 171.402344 141.371094 171.402344 140.277344 L 171.402344 96.519531 C 171.402344 95.425781 172.039062 94.515625 172.996094 94.515625 C 173.953125 94.515625 174.589844 95.425781 174.589844 96.519531 L 174.589844 140.320312 C 174.589844 141.414062 173.90625 142.28125 172.996094 142.28125 Z M 172.996094 142.28125 " fill-opacity="1" fill-rule="nonzero"/><path fill="#5ce1e6" d="M 166.160156 131.570312 C 165.203125 131.570312 164.5625 130.796875 164.5625 129.882812 L 164.5625 106.957031 C 164.5625 106 165.203125 105.269531 166.160156 105.269531 C 167.117188 105.269531 167.753906 106.046875 167.753906 106.957031 L 167.753906 129.882812 C 167.753906 130.796875 167.070312 131.570312 166.160156 131.570312 Z M 166.160156 131.570312 " fill-opacity="1" fill-rule="nonzero"/><path fill="#5ce1e6" d="M 179.605469 131.570312 C 178.648438 131.570312 177.78125 130.796875 177.78125 129.882812 L 177.78125 106.957031 C 177.78125 106 178.648438 105.269531 179.605469 105.269531 C 180.5625 105.269531 181.429688 106.046875 181.429688 106.957031 L 181.429688 129.882812 C 181.429688 130.796875 180.515625 131.570312 179.605469 131.570312 Z M 179.605469 131.570312 " fill-opacity="1" fill-rule="nonzero"/><path fill="#5ce1e6" d="M 192.367188 131.570312 C 191.410156 131.570312 190.542969 130.796875 190.542969 129.882812 L 190.542969 106.957031 C 190.542969 106 191.410156 105.269531 192.367188 105.269531 C 193.324219 105.269531 194.191406 106.046875 194.191406 106.957031 L 194.191406 129.882812 C 194.191406 130.796875 193.277344 131.570312 192.367188 131.570312 Z M 192.367188 131.570312 " fill-opacity="1" fill-rule="nonzero"/><path fill="#5ce1e6" d="M 205.8125 131.570312 C 204.855469 131.570312 204.21875 130.796875 204.21875 129.882812 L 204.21875 106.957031 C 204.21875 106 204.855469 105.269531 205.8125 105.269531 C 206.769531 105.269531 207.410156 106.046875 207.410156 106.957031 L 207.410156 129.882812 C 207.410156 130.796875 206.726562 131.570312 205.8125 131.570312 Z M 205.8125 131.570312 " fill-opacity="1" fill-rule="nonzero"/><path fill="#5ce1e6" d="M 199.203125 125.597656 C 198.246094 125.597656 197.382812 124.824219 197.382812 123.914062 L 197.382812 112.882812 C 197.382812 111.925781 198.246094 111.195312 199.203125 111.195312 C 200.160156 111.195312 201.027344 111.972656 201.027344 112.882812 L 201.027344 123.914062 C 201.027344 124.871094 200.117188 125.597656 199.203125 125.597656 Z M 199.203125 125.597656 " fill-opacity="1" fill-rule="nonzero"/><path fill="#5ce1e6" d="M 212.652344 125.554688 C 211.695312 125.554688 211.054688 124.777344 211.054688 123.867188 L 211.054688 112.792969 C 211.054688 111.835938 211.695312 111.105469 212.652344 111.105469 C 213.609375 111.105469 214.246094 111.878906 214.246094 112.792969 L 214.246094 123.820312 C 214.246094 124.777344 213.5625 125.554688 212.652344 125.554688 Z M 212.652344 125.554688 " fill-opacity="1" fill-rule="nonzero"/><path fill="#5ce1e6" d="M 186.214844 125.597656 C 185.257812 125.597656 184.617188 124.824219 184.617188 123.914062 L 184.617188 112.882812 C 184.617188 111.925781 185.257812 111.195312 186.214844 111.195312 C 187.171875 111.195312 187.808594 111.972656 187.808594 112.882812 L 187.808594 123.914062 C 187.808594 124.871094 187.125 125.597656 186.214844 125.597656 Z M 186.214844 125.597656 " fill-opacity="1" fill-rule="nonzero"/></svg>